<svg width="62" height="69" viewBox="0 0 62 69" fill="none" xmlns="http://www.w3.org/2000/svg">
<path d="M25.9827 28.6809C24.7153 25.7495 23.6204 23.2182 24.3397 18.9942C25.6451 11.34 39.1601 2.67747 53.9512 3.41834L54.0759 1.00877C37.7863 0.208736 23.4063 9.80024 21.9077 18.5978C21.0696 23.5122 22.4129 26.6171 23.7121 29.6207C24.6909 31.8845 25.7038 34.2242 25.8677 37.5218C26.1271 42.7037 10.1383 51.0013 0 55.0133L0.924933 57.2482C3.77419 56.1217 28.7587 45.9844 28.3317 37.4037C28.1457 33.6784 26.997 31.023 25.9827 28.6809ZM61.9302 45.5591C61.42 38.8687 57.8355 32.4242 52.8563 29.1412C44.1468 23.399 43.4592 20.34 45.2993 17.2653C49.5347 10.1894 60.489 10.0859 60.489 10.0859V7.67501C60.489 7.67501 48.1265 7.77018 43.1728 16.0485C39.5259 22.1412 45.1292 26.9038 51.5581 31.1424C55.9342 34.0279 59.0564 39.7568 59.5127 45.7387C59.9165 51.0375 58.5119 59.0459 49.526 67.1025L51.1923 68.8807C60.905 60.1699 62.3755 51.3904 61.9302 45.5591ZM26.9493 62.3469L27.5243 64.6915C27.5781 64.6782 28.8566 64.3745 30.6403 63.5698L29.6078 61.3794C28.0626 62.077 26.9602 62.3433 26.9493 62.3469ZM35.1375 29.9459C36.1297 31.6664 37.1733 33.517 38.0395 35.5483L40.315 34.6206C39.3963 32.4652 38.3148 30.5447 37.2846 28.7616L35.1375 29.9459ZM34.3326 17.8749L32.0815 16.893C31.5713 18.0111 31.323 19.1304 31.323 20.3159C31.323 21.4859 31.5701 22.7062 32.0778 24.0521L34.3913 23.2159C33.9864 22.1436 33.7895 21.1954 33.7895 20.3159C33.7893 19.4749 33.9667 18.6773 34.3326 17.8749ZM34.7313 58.0493L36.4124 59.8132C38.1607 58.2204 39.5601 56.3759 40.5744 54.3265L38.3552 53.2759C37.4742 55.0542 36.2558 56.6601 34.7313 58.0493ZM42.2284 41.0447L39.7938 41.4314C39.9138 42.1567 40.0006 42.8941 40.052 43.6254C40.0899 44.1881 40.1095 44.7362 40.1095 45.2687C40.1095 46.0326 40.0703 46.7892 39.9921 47.5169L42.445 47.7687C42.5318 46.9566 42.5759 46.1169 42.5759 45.2686C42.5759 44.6843 42.5551 44.0831 42.5123 43.4626C42.456 42.6566 42.3605 41.8422 42.2284 41.0447ZM39.2286 9.69549C38.2866 10.3171 37.4229 10.9413 36.6595 11.5497L38.2146 13.4196C38.9216 12.8581 39.7279 12.2763 40.6087 11.693L39.2286 9.69549Z" fill="#292929"/>
</svg>
