<?xml version="1.0" standalone="no"?>
<svg xmlns="http://www.w3.org/2000/svg" width="500" height="500"><defs><clipPath id="clip-path-dot-color"><path d="M 18 162v 16h 16v -8a 8 8, 0, 0, 0, -8 -8" transform="rotate(-90,26,170)"/><rect x="18" y="178" width="16" height="16" transform="rotate(0,26,186)"/><rect x="18" y="194" width="16" height="16" transform="rotate(0,26,202)"/><path d="M 18 210v 16h 8a 8 8, 0, 0, 0, 0 -16" transform="rotate(90,26,218)"/><path d="M 18 274v 16h 8a 8 8, 0, 0, 0, 0 -16" transform="rotate(-90,26,282)"/><path d="M 18 290v 16h 16v -8a 8 8, 0, 0, 0, -8 -8" transform="rotate(180,26,298)"/><path d="M 18 322v 16h 8a 8 8, 0, 0, 0, 0 -16" transform="rotate(-90,26,330)"/><path d="M 18 338v 16h 8a 8 8, 0, 0, 0, 0 -16" transform="rotate(90,26,346)"/><path d="M 34 146v 16h 16v -8a 8 8, 0, 0, 0, -8 -8" transform="rotate(-90,42,154)"/><rect x="34" y="162" width="16" height="16" transform="rotate(0,42,170)"/><path d="M 34 226v 16h 16v -8a 8 8, 0, 0, 0, -8 -8" transform="rotate(-90,42,234)"/><path d="M 34 242v 16h 16v -8a 8 8, 0, 0, 0, -8 -8" transform="rotate(180,42,250)"/><path d="M 34 290v 16h 16v -8a 8 8, 0, 0, 0, -8 -8" transform="rotate(0,42,298)"/><path d="M 34 306v 16h 16v -8a 8 8, 0, 0, 0, -8 -8" transform="rotate(180,42,314)"/><path d="M 50 146v 16h 16v -8a 8 8, 0, 0, 0, -8 -8" transform="rotate(0,58,154)"/><rect x="50" y="162" width="16" height="16" transform="rotate(0,58,170)"/><path d="M 50 178v 16h 8a 8 8, 0, 0, 0, 0 -16" transform="rotate(90,58,186)"/><path d="M 50 210v 16h 8a 8 8, 0, 0, 0, 0 -16" transform="rotate(-90,58,218)"/><rect x="50" y="226" width="16" height="16" transform="rotate(0,58,234)"/><path d="M 50 242v 16h 16v -8a 8 8, 0, 0, 0, -8 -8" transform="rotate(90,58,250)"/><path d="M 50 274v 16h 8a 8 8, 0, 0, 0, 0 -16" transform="rotate(180,58,282)"/><path d="M 50 306v 16h 8a 8 8, 0, 0, 0, 0 -16" transform="rotate(0,58,314)"/><circle cx="58" cy="346" r="8" transform="rotate(0,58,346)"/><circle cx="74" cy="202" r="8" transform="rotate(0,74,202)"/><path d="M 66 226v 16h 8a 8 8, 0, 0, 0, 0 -16" transform="rotate(0,74,234)"/><rect x="66" y="274" width="16" height="16" transform="rotate(0,74,282)"/><path d="M 66 290v 16h 16v -8a 8 8, 0, 0, 0, -8 -8" transform="rotate(180,74,298)"/><path d="M 66 322v 16h 8a 8 8, 0, 0, 0, 0 -16" transform="rotate(180,74,330)"/><path d="M 82 162v 16h 16v -8a 8 8, 0, 0, 0, -8 -8" transform="rotate(-90,90,170)"/><path d="M 82 178v 16h 8a 8 8, 0, 0, 0, 0 -16" transform="rotate(90,90,186)"/><circle cx="90" cy="218" r="8" transform="rotate(0,90,218)"/><path d="M 82 242v 16h 8a 8 8, 0, 0, 0, 0 -16" transform="rotate(180,90,250)"/><path d="M 82 274v 16h 16v -8a 8 8, 0, 0, 0, -8 -8" transform="rotate(0,90,282)"/><path d="M 82 290v 16h 16v -8a 8 8, 0, 0, 0, -8 -8" transform="rotate(90,90,298)"/><rect x="82" y="322" width="16" height="16" transform="rotate(0,90,330)"/><path d="M 98 162v 16h 8a 8 8, 0, 0, 0, 0 -16" transform="rotate(0,106,170)"/><rect x="98" y="242" width="16" height="16" transform="rotate(0,106,250)"/><path d="M 98 306v 16h 16v -8a 8 8, 0, 0, 0, -8 -8" transform="rotate(-90,106,314)"/><path d="M 98 322v 16h 16v -8a 8 8, 0, 0, 0, -8 -8" transform="rotate(90,106,330)"/><circle cx="122" cy="154" r="8" transform="rotate(0,122,154)"/><circle cx="122" cy="186" r="8" transform="rotate(0,122,186)"/><circle cx="122" cy="218" r="8" transform="rotate(0,122,218)"/><rect x="114" y="242" width="16" height="16" transform="rotate(0,122,250)"/><path d="M 114 274v 16h 8a 8 8, 0, 0, 0, 0 -16" transform="rotate(180,122,282)"/><path d="M 114 306v 16h 8a 8 8, 0, 0, 0, 0 -16" transform="rotate(0,122,314)"/><circle cx="122" cy="346" r="8" transform="rotate(0,122,346)"/><path d="M 130 194v 16h 8a 8 8, 0, 0, 0, 0 -16" transform="rotate(180,138,202)"/><rect x="130" y="242" width="16" height="16" transform="rotate(0,138,250)"/><rect x="130" y="258" width="16" height="16" transform="rotate(0,138,266)"/><rect x="130" y="274" width="16" height="16" transform="rotate(0,138,282)"/><path d="M 130 290v 16h 8a 8 8, 0, 0, 0, 0 -16" transform="rotate(90,138,298)"/><circle cx="138" cy="330" r="8" transform="rotate(0,138,330)"/><path d="M 146 34v 16h 8a 8 8, 0, 0, 0, 0 -16" transform="rotate(-90,154,42)"/><rect x="146" y="50" width="16" height="16" transform="rotate(0,154,58)"/><path d="M 146 66v 16h 16v -8a 8 8, 0, 0, 0, -8 -8" transform="rotate(180,154,74)"/><path d="M 146 98v 16h 8a 8 8, 0, 0, 0, 0 -16" transform="rotate(-90,154,106)"/><path d="M 146 114v 16h 8a 8 8, 0, 0, 0, 0 -16" transform="rotate(90,154,122)"/><circle cx="154" cy="170" r="8" transform="rotate(0,154,170)"/><path d="M 146 194v 16h 8a 8 8, 0, 0, 0, 0 -16" transform="rotate(0,154,202)"/><path d="M 146 226v 16h 8a 8 8, 0, 0, 0, 0 -16" transform="rotate(-90,154,234)"/><rect x="146" y="242" width="16" height="16" transform="rotate(0,154,250)"/><path d="M 146 258v 16h 16v -8a 8 8, 0, 0, 0, -8 -8" transform="rotate(90,154,266)"/><path d="M 146 434v 16h 16v -8a 8 8, 0, 0, 0, -8 -8" transform="rotate(-90,154,442)"/><path d="M 146 450v 16h 8a 8 8, 0, 0, 0, 0 -16" transform="rotate(90,154,458)"/><path d="M 162 50v 16h 16v -8a 8 8, 0, 0, 0, -8 -8" transform="rotate(0,170,58)"/><rect x="162" y="66" width="16" height="16" transform="rotate(0,170,74)"/><circle cx="170" cy="138" r="8" transform="rotate(0,170,138)"/><circle cx="170" cy="186" r="8" transform="rotate(0,170,186)"/><path d="M 162 210v 16h 8a 8 8, 0, 0, 0, 0 -16" transform="rotate(180,170,218)"/><path d="M 162 306v 16h 16v -8a 8 8, 0, 0, 0, -8 -8" transform="rotate(-90,170,314)"/><rect x="162" y="322" width="16" height="16" transform="rotate(0,170,330)"/><rect x="162" y="338" width="16" height="16" transform="rotate(0,170,346)"/><rect x="162" y="354" width="16" height="16" transform="rotate(0,170,362)"/><rect x="162" y="370" width="16" height="16" transform="rotate(0,170,378)"/><rect x="162" y="386" width="16" height="16" transform="rotate(0,170,394)"/><rect x="162" y="402" width="16" height="16" transform="rotate(0,170,410)"/><rect x="162" y="418" width="16" height="16" transform="rotate(0,170,426)"/><path d="M 162 434v 16h 16v -8a 8 8, 0, 0, 0, -8 -8" transform="rotate(90,170,442)"/><circle cx="170" cy="474" r="8" transform="rotate(0,170,474)"/><path d="M 178 18v 16h 16v -8a 8 8, 0, 0, 0, -8 -8" transform="rotate(-90,186,26)"/><path d="M 178 34v 16h 16v -8a 8 8, 0, 0, 0, -8 -8" transform="rotate(180,186,42)"/><rect x="178" y="66" width="16" height="16" transform="rotate(0,186,74)"/><circle cx="186" cy="122" r="8" transform="rotate(0,186,122)"/><path d="M 178 146v 16h 16v -8a 8 8, 0, 0, 0, -8 -8" transform="rotate(-90,186,154)"/><path d="M 178 162v 16h 16v -8a 8 8, 0, 0, 0, -8 -8" transform="rotate(180,186,170)"/><rect x="178" y="210" width="16" height="16" transform="rotate(0,186,218)"/><path d="M 178 226v 16h 8a 8 8, 0, 0, 0, 0 -16" transform="rotate(90,186,234)"/><path d="M 178 258v 16h 8a 8 8, 0, 0, 0, 0 -16" transform="rotate(180,186,266)"/><path d="M 178 290v 16h 8a 8 8, 0, 0, 0, 0 -16" transform="rotate(-90,186,298)"/><rect x="178" y="306" width="16" height="16" transform="rotate(0,186,314)"/><path d="M 178 338v 16h 8a 8 8, 0, 0, 0, 0 -16" transform="rotate(0,186,346)"/><path d="M 178 370v 16h 16v -8a 8 8, 0, 0, 0, -8 -8" transform="rotate(0,186,378)"/><rect x="178" y="386" width="16" height="16" transform="rotate(0,186,394)"/><rect x="178" y="402" width="16" height="16" transform="rotate(0,186,410)"/><path d="M 178 418v 16h 16v -8a 8 8, 0, 0, 0, -8 -8" transform="rotate(90,186,426)"/><circle cx="186" cy="458" r="8" transform="rotate(0,186,458)"/><rect x="194" y="18" width="16" height="16" transform="rotate(0,202,26)"/><rect x="194" y="34" width="16" height="16" transform="rotate(0,202,42)"/><rect x="194" y="50" width="16" height="16" transform="rotate(0,202,58)"/><path d="M 194 66v 16h 16v -8a 8 8, 0, 0, 0, -8 -8" transform="rotate(90,202,74)"/><circle cx="202" cy="106" r="8" transform="rotate(0,202,106)"/><path d="M 194 130v 16h 8a 8 8, 0, 0, 0, 0 -16" transform="rotate(-90,202,138)"/><rect x="194" y="146" width="16" height="16" transform="rotate(0,202,154)"/><rect x="194" y="162" width="16" height="16" transform="rotate(0,202,170)"/><path d="M 194 210v 16h 8a 8 8, 0, 0, 0, 0 -16" transform="rotate(0,202,218)"/><rect x="194" y="258" width="16" height="16" transform="rotate(0,202,266)"/><rect x="194" y="306" width="16" height="16" transform="rotate(0,202,314)"/><path d="M 194 402v 16h 8a 8 8, 0, 0, 0, 0 -16" transform="rotate(0,202,410)"/><path d="M 194 466v 16h 8a 8 8, 0, 0, 0, 0 -16" transform="rotate(180,202,474)"/><path d="M 210 18v 16h 8a 8 8, 0, 0, 0, 0 -16" transform="rotate(0,218,26)"/><circle cx="218" cy="122" r="8" transform="rotate(0,218,122)"/><rect x="210" y="146" width="16" height="16" transform="rotate(0,218,154)"/><rect x="210" y="162" width="16" height="16" transform="rotate(0,218,170)"/><rect x="210" y="178" width="16" height="16" transform="rotate(0,218,186)"/><path d="M 210 194v 16h 16v -8a 8 8, 0, 0, 0, -8 -8" transform="rotate(180,218,202)"/><circle cx="218" cy="234" r="8" transform="rotate(0,218,234)"/><rect x="210" y="258" width="16" height="16" transform="rotate(0,218,266)"/><path d="M 210 290v 16h 8a 8 8, 0, 0, 0, 0 -16" transform="rotate(-90,218,298)"/><path d="M 210 306v 16h 16v -8a 8 8, 0, 0, 0, -8 -8" transform="rotate(90,218,314)"/><circle cx="218" cy="362" r="8" transform="rotate(0,218,362)"/><path d="M 210 386v 16h 8a 8 8, 0, 0, 0, 0 -16" transform="rotate(180,218,394)"/><path d="M 210 418v 16h 16v -8a 8 8, 0, 0, 0, -8 -8" transform="rotate(-90,218,426)"/><rect x="210" y="434" width="16" height="16" transform="rotate(0,218,442)"/><rect x="210" y="450" width="16" height="16" transform="rotate(0,218,458)"/><path d="M 210 466v 16h 16v -8a 8 8, 0, 0, 0, -8 -8" transform="rotate(90,218,474)"/><path d="M 226 50v 16h 8a 8 8, 0, 0, 0, 0 -16" transform="rotate(-90,234,58)"/><rect x="226" y="66" width="16" height="16" transform="rotate(0,234,74)"/><rect x="226" y="82" width="16" height="16" transform="rotate(0,234,90)"/><path d="M 226 98v 16h 8a 8 8, 0, 0, 0, 0 -16" transform="rotate(90,234,106)"/><rect x="226" y="146" width="16" height="16" transform="rotate(0,234,154)"/><rect x="226" y="178" width="16" height="16" transform="rotate(0,234,186)"/><rect x="226" y="194" width="16" height="16" transform="rotate(0,234,202)"/><path d="M 226 210v 16h 8a 8 8, 0, 0, 0, 0 -16" transform="rotate(90,234,218)"/><rect x="226" y="258" width="16" height="16" transform="rotate(0,234,266)"/><path d="M 226 274v 16h 16v -8a 8 8, 0, 0, 0, -8 -8" transform="rotate(180,234,282)"/><path d="M 226 322v 16h 16v -8a 8 8, 0, 0, 0, -8 -8" transform="rotate(-90,234,330)"/><path d="M 226 338v 16h 8a 8 8, 0, 0, 0, 0 -16" transform="rotate(90,234,346)"/><path d="M 226 370v 16h 8a 8 8, 0, 0, 0, 0 -16" transform="rotate(-90,234,378)"/><rect x="226" y="386" width="16" height="16" transform="rotate(0,234,394)"/><rect x="226" y="418" width="16" height="16" transform="rotate(0,234,426)"/><rect x="226" y="434" width="16" height="16" transform="rotate(0,234,442)"/><rect x="226" y="450" width="16" height="16" transform="rotate(0,234,458)"/><path d="M 242 34v 16h 8a 8 8, 0, 0, 0, 0 -16" transform="rotate(180,250,42)"/><rect x="242" y="66" width="16" height="16" transform="rotate(0,250,74)"/><path d="M 242 82v 16h 16v -8a 8 8, 0, 0, 0, -8 -8" transform="rotate(90,250,90)"/><path d="M 242 114v 16h 8a 8 8, 0, 0, 0, 0 -16" transform="rotate(-90,250,122)"/><rect x="242" y="130" width="16" height="16" transform="rotate(0,250,138)"/><path d="M 242 146v 16h 16v -8a 8 8, 0, 0, 0, -8 -8" transform="rotate(90,250,154)"/><rect x="242" y="178" width="16" height="16" transform="rotate(0,250,186)"/><path d="M 242 226v 16h 8a 8 8, 0, 0, 0, 0 -16" transform="rotate(180,250,234)"/><path d="M 242 258v 16h 16v -8a 8 8, 0, 0, 0, -8 -8" transform="rotate(0,250,266)"/><rect x="242" y="274" width="16" height="16" transform="rotate(0,250,282)"/><rect x="242" y="290" width="16" height="16" transform="rotate(0,250,298)"/><rect x="242" y="306" width="16" height="16" transform="rotate(0,250,314)"/><path d="M 242 322v 16h 16v -8a 8 8, 0, 0, 0, -8 -8" transform="rotate(90,250,330)"/><path d="M 242 354v 16h 8a 8 8, 0, 0, 0, 0 -16" transform="rotate(180,250,362)"/><path d="M 242 386v 16h 16v -8a 8 8, 0, 0, 0, -8 -8" transform="rotate(0,250,394)"/><rect x="242" y="402" width="16" height="16" transform="rotate(0,250,410)"/><rect x="242" y="418" width="16" height="16" transform="rotate(0,250,426)"/><path d="M 242 450v 16h 16v -8a 8 8, 0, 0, 0, -8 -8" transform="rotate(0,250,458)"/><path d="M 242 466v 16h 8a 8 8, 0, 0, 0, 0 -16" transform="rotate(90,250,474)"/><rect x="258" y="34" width="16" height="16" transform="rotate(0,266,42)"/><path d="M 258 66v 16h 8a 8 8, 0, 0, 0, 0 -16" transform="rotate(0,266,74)"/><path d="M 258 178v 16h 16v -8a 8 8, 0, 0, 0, -8 -8" transform="rotate(0,266,186)"/><rect x="258" y="194" width="16" height="16" transform="rotate(0,266,202)"/><rect x="258" y="210" width="16" height="16" transform="rotate(0,266,218)"/><rect x="258" y="226" width="16" height="16" transform="rotate(0,266,234)"/><path d="M 258 242v 16h 8a 8 8, 0, 0, 0, 0 -16" transform="rotate(90,266,250)"/><rect x="258" y="290" width="16" height="16" transform="rotate(0,266,298)"/><rect x="258" y="306" width="16" height="16" transform="rotate(0,266,314)"/><path d="M 258 338v 16h 16v -8a 8 8, 0, 0, 0, -8 -8" transform="rotate(-90,266,346)"/><rect x="258" y="354" width="16" height="16" transform="rotate(0,266,362)"/><rect x="258" y="402" width="16" height="16" transform="rotate(0,266,410)"/><rect x="258" y="418" width="16" height="16" transform="rotate(0,266,426)"/><path d="M 274 18v 16h 8a 8 8, 0, 0, 0, 0 -16" transform="rotate(-90,282,26)"/><path d="M 274 34v 16h 16v -8a 8 8, 0, 0, 0, -8 -8" transform="rotate(90,282,42)"/><path d="M 274 82v 16h 8a 8 8, 0, 0, 0, 0 -16" transform="rotate(180,282,90)"/><path d="M 274 114v 16h 8a 8 8, 0, 0, 0, 0 -16" transform="rotate(-90,282,122)"/><path d="M 274 130v 16h 8a 8 8, 0, 0, 0, 0 -16" transform="rotate(90,282,138)"/><rect x="274" y="194" width="16" height="16" transform="rotate(0,282,202)"/><rect x="274" y="210" width="16" height="16" transform="rotate(0,282,218)"/><rect x="274" y="226" width="16" height="16" transform="rotate(0,282,234)"/><path d="M 274 274v 16h 16v -8a 8 8, 0, 0, 0, -8 -8" transform="rotate(-90,282,282)"/><rect x="274" y="290" width="16" height="16" transform="rotate(0,282,298)"/><path d="M 274 306v 16h 16v -8a 8 8, 0, 0, 0, -8 -8" transform="rotate(90,282,314)"/><rect x="274" y="338" width="16" height="16" transform="rotate(0,282,346)"/><path d="M 274 354v 16h 16v -8a 8 8, 0, 0, 0, -8 -8" transform="rotate(90,282,362)"/><path d="M 274 402v 16h 16v -8a 8 8, 0, 0, 0, -8 -8" transform="rotate(0,282,410)"/><rect x="274" y="418" width="16" height="16" transform="rotate(0,282,426)"/><circle cx="282" cy="474" r="8" transform="rotate(0,282,474)"/><path d="M 290 50v 16h 8a 8 8, 0, 0, 0, 0 -16" transform="rotate(180,298,58)"/><path d="M 290 82v 16h 16v -8a 8 8, 0, 0, 0, -8 -8" transform="rotate(0,298,90)"/><path d="M 290 98v 16h 16v -8a 8 8, 0, 0, 0, -8 -8" transform="rotate(180,298,106)"/><rect x="290" y="194" width="16" height="16" transform="rotate(0,298,202)"/><rect x="290" y="210" width="16" height="16" transform="rotate(0,298,218)"/><path d="M 290 226v 16h 16v -8a 8 8, 0, 0, 0, -8 -8" transform="rotate(90,298,234)"/><rect x="290" y="274" width="16" height="16" transform="rotate(0,298,282)"/><rect x="290" y="290" width="16" height="16" transform="rotate(0,298,298)"/><rect x="290" y="338" width="16" height="16" transform="rotate(0,298,346)"/><circle cx="298" cy="394" r="8" transform="rotate(0,298,394)"/><path d="M 290 418v 16h 8a 8 8, 0, 0, 0, 0 -16" transform="rotate(0,298,426)"/><circle cx="314" cy="26" r="8" transform="rotate(0,314,26)"/><path d="M 306 50v 16h 8a 8 8, 0, 0, 0, 0 -16" transform="rotate(0,314,58)"/><path d="M 306 98v 16h 16v -8a 8 8, 0, 0, 0, -8 -8" transform="rotate(0,314,106)"/><path d="M 306 114v 16h 8a 8 8, 0, 0, 0, 0 -16" transform="rotate(90,314,122)"/><path d="M 306 194v 16h 16v -8a 8 8, 0, 0, 0, -8 -8" transform="rotate(0,314,202)"/><path d="M 306 210v 16h 16v -8a 8 8, 0, 0, 0, -8 -8" transform="rotate(90,314,218)"/><path d="M 306 242v 16h 8a 8 8, 0, 0, 0, 0 -16" transform="rotate(-90,314,250)"/><rect x="306" y="258" width="16" height="16" transform="rotate(0,314,266)"/><rect x="306" y="274" width="16" height="16" transform="rotate(0,314,282)"/><rect x="306" y="290" width="16" height="16" transform="rotate(0,314,298)"/><path d="M 306 338v 16h 8a 8 8, 0, 0, 0, 0 -16" transform="rotate(0,314,346)"/><path d="M 306 370v 16h 8a 8 8, 0, 0, 0, 0 -16" transform="rotate(180,314,378)"/><path d="M 322 66v 16h 8a 8 8, 0, 0, 0, 0 -16" transform="rotate(-90,330,74)"/><path d="M 322 82v 16h 16v -8a 8 8, 0, 0, 0, -8 -8" transform="rotate(180,330,90)"/><path d="M 322 162v 16h 8a 8 8, 0, 0, 0, 0 -16" transform="rotate(180,330,170)"/><rect x="322" y="290" width="16" height="16" transform="rotate(0,330,298)"/><rect x="322" y="306" width="16" height="16" transform="rotate(0,330,314)"/><path d="M 322 322v 16h 8a 8 8, 0, 0, 0, 0 -16" transform="rotate(90,330,330)"/><path d="M 322 354v 16h 16v -8a 8 8, 0, 0, 0, -8 -8" transform="rotate(-90,330,362)"/><rect x="322" y="370" width="16" height="16" transform="rotate(0,330,378)"/><rect x="322" y="386" width="16" height="16" transform="rotate(0,330,394)"/><rect x="322" y="402" width="16" height="16" transform="rotate(0,330,410)"/><rect x="322" y="418" width="16" height="16" transform="rotate(0,330,426)"/><path d="M 322 434v 16h 16v -8a 8 8, 0, 0, 0, -8 -8" transform="rotate(180,330,442)"/><path d="M 338 34v 16h 8a 8 8, 0, 0, 0, 0 -16" transform="rotate(-90,346,42)"/><path d="M 338 50v 16h 8a 8 8, 0, 0, 0, 0 -16" transform="rotate(90,346,58)"/><path d="M 338 82v 16h 8a 8 8, 0, 0, 0, 0 -16" transform="rotate(0,346,90)"/><circle cx="346" cy="122" r="8" transform="rotate(0,346,122)"/><path d="M 338 146v 16h 16v -8a 8 8, 0, 0, 0, -8 -8" transform="rotate(-90,346,154)"/><rect x="338" y="162" width="16" height="16" transform="rotate(0,346,170)"/><rect x="338" y="178" width="16" height="16" transform="rotate(0,346,186)"/><path d="M 338 194v 16h 8a 8 8, 0, 0, 0, 0 -16" transform="rotate(90,346,202)"/><circle cx="346" cy="250" r="8" transform="rotate(0,346,250)"/><path d="M 338 290v 16h 16v -8a 8 8, 0, 0, 0, -8 -8" transform="rotate(0,346,298)"/><rect x="338" y="306" width="16" height="16" transform="rotate(0,346,314)"/><path d="M 338 338v 16h 16v -8a 8 8, 0, 0, 0, -8 -8" transform="rotate(-90,346,346)"/><rect x="338" y="354" width="16" height="16" transform="rotate(0,346,362)"/><rect x="338" y="370" width="16" height="16" transform="rotate(0,346,378)"/><rect x="338" y="386" width="16" height="16" transform="rotate(0,346,394)"/><rect x="338" y="402" width="16" height="16" transform="rotate(0,346,410)"/><path d="M 338 434v 16h 16v -8a 8 8, 0, 0, 0, -8 -8" transform="rotate(0,346,442)"/><path d="M 338 450v 16h 8a 8 8, 0, 0, 0, 0 -16" transform="rotate(90,346,458)"/><path d="M 354 146v 16h 8a 8 8, 0, 0, 0, 0 -16" transform="rotate(0,362,154)"/><rect x="354" y="178" width="16" height="16" transform="rotate(0,362,186)"/><path d="M 354 274v 16h 8a 8 8, 0, 0, 0, 0 -16" transform="rotate(180,362,282)"/><path d="M 354 306v 16h 16v -8a 8 8, 0, 0, 0, -8 -8" transform="rotate(0,362,314)"/><rect x="354" y="322" width="16" height="16" transform="rotate(0,362,330)"/><rect x="354" y="338" width="16" height="16" transform="rotate(0,362,346)"/><rect x="354" y="402" width="16" height="16" transform="rotate(0,362,410)"/><path d="M 354 418v 16h 8a 8 8, 0, 0, 0, 0 -16" transform="rotate(90,362,426)"/><circle cx="362" cy="474" r="8" transform="rotate(0,362,474)"/><path d="M 370 178v 16h 16v -8a 8 8, 0, 0, 0, -8 -8" transform="rotate(0,378,186)"/><path d="M 370 194v 16h 8a 8 8, 0, 0, 0, 0 -16" transform="rotate(90,378,202)"/><circle cx="378" cy="234" r="8" transform="rotate(0,378,234)"/><rect x="370" y="274" width="16" height="16" transform="rotate(0,378,282)"/><path d="M 370 290v 16h 8a 8 8, 0, 0, 0, 0 -16" transform="rotate(90,378,298)"/><path d="M 370 322v 16h 16v -8a 8 8, 0, 0, 0, -8 -8" transform="rotate(0,378,330)"/><rect x="370" y="338" width="16" height="16" transform="rotate(0,378,346)"/><circle cx="378" cy="378" r="8" transform="rotate(0,378,378)"/><rect x="370" y="402" width="16" height="16" transform="rotate(0,378,410)"/><path d="M 370 434v 16h 8a 8 8, 0, 0, 0, 0 -16" transform="rotate(-90,378,442)"/><path d="M 370 450v 16h 8a 8 8, 0, 0, 0, 0 -16" transform="rotate(90,378,458)"/><path d="M 386 146v 16h 8a 8 8, 0, 0, 0, 0 -16" transform="rotate(-90,394,154)"/><path d="M 386 162v 16h 8a 8 8, 0, 0, 0, 0 -16" transform="rotate(90,394,170)"/><circle cx="394" cy="218" r="8" transform="rotate(0,394,218)"/><path d="M 386 274v 16h 8a 8 8, 0, 0, 0, 0 -16" transform="rotate(0,394,282)"/><path d="M 386 306v 16h 8a 8 8, 0, 0, 0, 0 -16" transform="rotate(180,394,314)"/><rect x="386" y="338" width="16" height="16" transform="rotate(0,394,346)"/><rect x="386" y="402" width="16" height="16" transform="rotate(0,394,410)"/><circle cx="394" cy="474" r="8" transform="rotate(0,394,474)"/><circle cx="410" cy="186" r="8" transform="rotate(0,410,186)"/><path d="M 402 226v 16h 16v -8a 8 8, 0, 0, 0, -8 -8" transform="rotate(-90,410,234)"/><path d="M 402 242v 16h 8a 8 8, 0, 0, 0, 0 -16" transform="rotate(90,410,250)"/><rect x="402" y="306" width="16" height="16" transform="rotate(0,410,314)"/><path d="M 402 338v 16h 16v -8a 8 8, 0, 0, 0, -8 -8" transform="rotate(0,410,346)"/><rect x="402" y="354" width="16" height="16" transform="rotate(0,410,362)"/><rect x="402" y="370" width="16" height="16" transform="rotate(0,410,378)"/><rect x="402" y="386" width="16" height="16" transform="rotate(0,410,394)"/><rect x="402" y="402" width="16" height="16" transform="rotate(0,410,410)"/><rect x="402" y="418" width="16" height="16" transform="rotate(0,410,426)"/><path d="M 402 434v 16h 16v -8a 8 8, 0, 0, 0, -8 -8" transform="rotate(180,410,442)"/><path d="M 418 146v 16h 8a 8 8, 0, 0, 0, 0 -16" transform="rotate(180,426,154)"/><path d="M 418 194v 16h 16v -8a 8 8, 0, 0, 0, -8 -8" transform="rotate(-90,426,202)"/><rect x="418" y="210" width="16" height="16" transform="rotate(0,426,218)"/><rect x="418" y="226" width="16" height="16" transform="rotate(0,426,234)"/><path d="M 418 274v 16h 16v -8a 8 8, 0, 0, 0, -8 -8" transform="rotate(-90,426,282)"/><rect x="418" y="290" width="16" height="16" transform="rotate(0,426,298)"/><rect x="418" y="306" width="16" height="16" transform="rotate(0,426,314)"/><path d="M 418 322v 16h 8a 8 8, 0, 0, 0, 0 -16" transform="rotate(90,426,330)"/><path d="M 418 402v 16h 16v -8a 8 8, 0, 0, 0, -8 -8" transform="rotate(0,426,410)"/><rect x="418" y="418" width="16" height="16" transform="rotate(0,426,426)"/><rect x="418" y="434" width="16" height="16" transform="rotate(0,426,442)"/><path d="M 418 450v 16h 8a 8 8, 0, 0, 0, 0 -16" transform="rotate(90,426,458)"/><rect x="434" y="146" width="16" height="16" transform="rotate(0,442,154)"/><path d="M 434 178v 16h 16v -8a 8 8, 0, 0, 0, -8 -8" transform="rotate(-90,442,186)"/><rect x="434" y="194" width="16" height="16" transform="rotate(0,442,202)"/><rect x="434" y="210" width="16" height="16" transform="rotate(0,442,218)"/><path d="M 434 226v 16h 16v -8a 8 8, 0, 0, 0, -8 -8" transform="rotate(90,442,234)"/><path d="M 434 258v 16h 8a 8 8, 0, 0, 0, 0 -16" transform="rotate(-90,442,266)"/><rect x="434" y="274" width="16" height="16" transform="rotate(0,442,282)"/><path d="M 434 290v 16h 16v -8a 8 8, 0, 0, 0, -8 -8" transform="rotate(90,442,298)"/><circle cx="442" cy="346" r="8" transform="rotate(0,442,346)"/><circle cx="442" cy="394" r="8" transform="rotate(0,442,394)"/><circle cx="442" cy="474" r="8" transform="rotate(0,442,474)"/><path d="M 450 146v 16h 16v -8a 8 8, 0, 0, 0, -8 -8" transform="rotate(0,458,154)"/><rect x="450" y="162" width="16" height="16" transform="rotate(0,458,170)"/><rect x="450" y="178" width="16" height="16" transform="rotate(0,458,186)"/><rect x="450" y="194" width="16" height="16" transform="rotate(0,458,202)"/><path d="M 450 242v 16h 8a 8 8, 0, 0, 0, 0 -16" transform="rotate(180,458,250)"/><path d="M 450 274v 16h 8a 8 8, 0, 0, 0, 0 -16" transform="rotate(0,458,282)"/><path d="M 450 322v 16h 8a 8 8, 0, 0, 0, 0 -16" transform="rotate(180,458,330)"/><path d="M 450 402v 16h 8a 8 8, 0, 0, 0, 0 -16" transform="rotate(-90,458,410)"/><path d="M 450 418v 16h 16v -8a 8 8, 0, 0, 0, -8 -8" transform="rotate(180,458,426)"/><path d="M 450 450v 16h 8a 8 8, 0, 0, 0, 0 -16" transform="rotate(180,458,458)"/><path d="M 466 162v 16h 16v -8a 8 8, 0, 0, 0, -8 -8" transform="rotate(0,474,170)"/><rect x="466" y="178" width="16" height="16" transform="rotate(0,474,186)"/><path d="M 466 194v 16h 16v -8a 8 8, 0, 0, 0, -8 -8" transform="rotate(90,474,202)"/><path d="M 466 242v 16h 16v -8a 8 8, 0, 0, 0, -8 -8" transform="rotate(0,474,250)"/><path d="M 466 258v 16h 8a 8 8, 0, 0, 0, 0 -16" transform="rotate(90,474,266)"/><path d="M 466 306v 16h 8a 8 8, 0, 0, 0, 0 -16" transform="rotate(-90,474,314)"/><rect x="466" y="322" width="16" height="16" transform="rotate(0,474,330)"/><rect x="466" y="338" width="16" height="16" transform="rotate(0,474,346)"/><path d="M 466 354v 16h 8a 8 8, 0, 0, 0, 0 -16" transform="rotate(90,474,362)"/><circle cx="474" cy="394" r="8" transform="rotate(0,474,394)"/><path d="M 466 418v 16h 8a 8 8, 0, 0, 0, 0 -16" transform="rotate(0,474,426)"/><path d="M 466 450v 16h 8a 8 8, 0, 0, 0, 0 -16" transform="rotate(0,474,458)"/></clipPath><clipPath id="clip-path-corners-square-color-0-0"><path clip-rule="evenodd" d="M 18 18v 112h 112v -112zM 34 34h 80v 80h -80z" transform="rotate(0,74,74)"/></clipPath><clipPath id="clip-path-corners-dot-color-0-0"><rect x="50" y="50" width="48" height="48" transform="rotate(0,74,74)"/></clipPath><clipPath id="clip-path-corners-square-color-1-0"><path clip-rule="evenodd" d="M 370 18v 112h 112v -112zM 386 34h 80v 80h -80z" transform="rotate(90,426,74)"/></clipPath><clipPath id="clip-path-corners-dot-color-1-0"><rect x="402" y="50" width="48" height="48" transform="rotate(90,426,74)"/></clipPath><clipPath id="clip-path-corners-square-color-0-1"><path clip-rule="evenodd" d="M 18 370v 112h 112v -112zM 34 386h 80v 80h -80z" transform="rotate(-90,74,426)"/></clipPath><clipPath id="clip-path-corners-dot-color-0-1"><rect x="50" y="402" width="48" height="48" transform="rotate(-90,74,426)"/></clipPath></defs><rect x="0" y="0" height="500" width="500" clip-path="url('#clip-path-background-color')" fill="#fff"/><rect x="0" y="0" height="500" width="500" clip-path="url('#clip-path-dot-color')" fill="#000000"/><rect x="18" y="18" height="112" width="112" clip-path="url('#clip-path-corners-square-color-0-0')" fill="#000000"/><rect x="50" y="50" height="48" width="48" clip-path="url('#clip-path-corners-dot-color-0-0')" fill="#000000"/><rect x="370" y="18" height="112" width="112" clip-path="url('#clip-path-corners-square-color-1-0')" fill="#000000"/><rect x="402" y="50" height="48" width="48" clip-path="url('#clip-path-corners-dot-color-1-0')" fill="#000000"/><rect x="18" y="370" height="112" width="112" clip-path="url('#clip-path-corners-square-color-0-1')" fill="#000000"/><rect x="50" y="402" height="48" width="48" clip-path="url('#clip-path-corners-dot-color-0-1')" fill="#000000"/></svg>