<svg style="display:none">
    <symbol id="darkSun" width="40" height="40" xmlns="http://www.w3.org/2000/svg" viewBox="0 0 50 50">
        <g>
            <path d="M 24.90625 3.96875 C 24.863281 3.976563 24.820313 3.988281 24.78125 4 C 24.316406 4.105469 23.988281 4.523438 24 5 L 24 11 C 23.996094 11.359375 24.183594 11.695313 24.496094 11.878906 C 24.808594 12.058594 25.191406 12.058594 25.503906 11.878906 C 25.816406 11.695313 26.003906 11.359375 26 11 L 26 5 C 26.011719 4.710938 25.894531 4.433594 25.6875 4.238281 C 25.476563 4.039063 25.191406 3.941406 24.90625 3.96875 Z M 10.65625 9.84375 C 10.28125 9.910156 9.980469 10.183594 9.875 10.546875 C 9.769531 10.914063 9.878906 11.304688 10.15625 11.5625 L 14.40625 15.8125 C 14.648438 16.109375 15.035156 16.246094 15.410156 16.160156 C 15.78125 16.074219 16.074219 15.78125 16.160156 15.410156 C 16.246094 15.035156 16.109375 14.648438 15.8125 14.40625 L 11.5625 10.15625 C 11.355469 9.933594 11.054688 9.820313 10.75 9.84375 C 10.71875 9.84375 10.6875 9.84375 10.65625 9.84375 Z M 39.03125 9.84375 C 38.804688 9.875 38.59375 9.988281 38.4375 10.15625 L 34.1875 14.40625 C 33.890625 14.648438 33.753906 15.035156 33.839844 15.410156 C 33.925781 15.78125 34.21875 16.074219 34.589844 16.160156 C 34.964844 16.246094 35.351563 16.109375 35.59375 15.8125 L 39.84375 11.5625 C 40.15625 11.265625 40.246094 10.800781 40.0625 10.410156 C 39.875 10.015625 39.460938 9.789063 39.03125 9.84375 Z M 24.90625 15 C 24.875 15.007813 24.84375 15.019531 24.8125 15.03125 C 24.75 15.035156 24.6875 15.046875 24.625 15.0625 C 24.613281 15.074219 24.605469 15.082031 24.59375 15.09375 C 19.289063 15.320313 15 19.640625 15 25 C 15 30.503906 19.496094 35 25 35 C 30.503906 35 35 30.503906 35 25 C 35 19.660156 30.746094 15.355469 25.46875 15.09375 C 25.433594 15.09375 25.410156 15.0625 25.375 15.0625 C 25.273438 15.023438 25.167969 15.003906 25.0625 15 C 25.042969 15 25.019531 15 25 15 C 24.96875 15 24.9375 15 24.90625 15 Z M 24.9375 17 C 24.957031 17 24.980469 17 25 17 C 25.03125 17 25.0625 17 25.09375 17 C 29.46875 17.050781 33 20.613281 33 25 C 33 29.421875 29.421875 33 25 33 C 20.582031 33 17 29.421875 17 25 C 17 20.601563 20.546875 17.035156 24.9375 17 Z M 4.71875 24 C 4.167969 24.078125 3.78125 24.589844 3.859375 25.140625 C 3.9375 25.691406 4.449219 26.078125 5 26 L 11 26 C 11.359375 26.003906 11.695313 25.816406 11.878906 25.503906 C 12.058594 25.191406 12.058594 24.808594 11.878906 24.496094 C 11.695313 24.183594 11.359375 23.996094 11 24 L 5 24 C 4.96875 24 4.9375 24 4.90625 24 C 4.875 24 4.84375 24 4.8125 24 C 4.78125 24 4.75 24 4.71875 24 Z M 38.71875 24 C 38.167969 24.078125 37.78125 24.589844 37.859375 25.140625 C 37.9375 25.691406 38.449219 26.078125 39 26 L 45 26 C 45.359375 26.003906 45.695313 25.816406 45.878906 25.503906 C 46.058594 25.191406 46.058594 24.808594 45.878906 24.496094 C 45.695313 24.183594 45.359375 23.996094 45 24 L 39 24 C 38.96875 24 38.9375 24 38.90625 24 C 38.875 24 38.84375 24 38.8125 24 C 38.78125 24 38.75 24 38.71875 24 Z M 15 33.875 C 14.773438 33.90625 14.5625 34.019531 14.40625 34.1875 L 10.15625 38.4375 C 9.859375 38.679688 9.722656 39.066406 9.808594 39.441406 C 9.894531 39.8125 10.1875 40.105469 10.558594 40.191406 C 10.933594 40.277344 11.320313 40.140625 11.5625 39.84375 L 15.8125 35.59375 C 16.109375 35.308594 16.199219 34.867188 16.039063 34.488281 C 15.882813 34.109375 15.503906 33.867188 15.09375 33.875 C 15.0625 33.875 15.03125 33.875 15 33.875 Z M 34.6875 33.875 C 34.3125 33.941406 34.011719 34.214844 33.90625 34.578125 C 33.800781 34.945313 33.910156 35.335938 34.1875 35.59375 L 38.4375 39.84375 C 38.679688 40.140625 39.066406 40.277344 39.441406 40.191406 C 39.8125 40.105469 40.105469 39.8125 40.191406 39.441406 C 40.277344 39.066406 40.140625 38.679688 39.84375 38.4375 L 35.59375 34.1875 C 35.40625 33.988281 35.148438 33.878906 34.875 33.875 C 34.84375 33.875 34.8125 33.875 34.78125 33.875 C 34.75 33.875 34.71875 33.875 34.6875 33.875 Z M 24.90625 37.96875 C 24.863281 37.976563 24.820313 37.988281 24.78125 38 C 24.316406 38.105469 23.988281 38.523438 24 39 L 24 45 C 23.996094 45.359375 24.183594 45.695313 24.496094 45.878906 C 24.808594 46.058594 25.191406 46.058594 25.503906 45.878906 C 25.816406 45.695313 26.003906 45.359375 26 45 L 26 39 C 26.011719 38.710938 25.894531 38.433594 25.6875 38.238281 C 25.476563 38.039063 25.191406 37.941406 24.90625 37.96875 Z"></path>
        </g>
    </symbol>

    <symbol id = "lightMoon" viewBox="0 0 25 25" xmlns="http://www.w3.org/2000/svg" fill="#ff7900">
        <path class="cls-1" d="M22.89,18.24a.49.49,0,0,0-.55-.17,9.4,9.4,0,0,1-11.46-4.78A9.53,9.53,0,0,1,13.7,1.89a.49.49,0,0,0,.17-.55A.5.5,0,0,0,13.39,1,11.38,11.38,0,0,0,5,4.76,11.52,11.52,0,0,0,13.39,24a11.37,11.37,0,0,0,9.53-5.18A.48.48,0,0,0,22.89,18.24ZM13.39,23A10.52,10.52,0,0,1,5.71,5.43,10.39,10.39,0,0,1,12,2.1a10.52,10.52,0,0,0-2,11.61,10.24,10.24,0,0,0,11.27,5.68A10.35,10.35,0,0,1,13.39,23Z"></path>
    </symbol>
    <symbol id="portfolio" xmlns="http://www.w3.org/2000/svg" viewBox="0 0 511.999 511.999" fill="#000000">
        <path style="fill:#FFAD61;" d="M475.515,435.953H36.485c-14.517,0-26.285-11.769-26.285-26.285V156.511 c0-14.518,11.769-26.285,26.285-26.285h439.03c14.518,0,26.285,11.769,26.285,26.285v253.155 C501.801,424.184,490.032,435.953,475.515,435.953z"></path>
        <rect x="215.203" y="317.643" style="fill:#F2F2F2;" width="81.594" height="44.999"></rect>
        <path style="fill:#534741;" d="M475.515,120.027H364.112v-12.873c0-22.777-18.53-41.307-41.307-41.307h-133.61 c-22.777,0-41.307,18.53-41.307,41.307v12.873H36.485C16.367,120.027,0,136.393,0,156.511v253.156 c0,20.118,16.367,36.485,36.485,36.485h439.03c20.118,0,36.485-16.367,36.485-36.485V156.511 C512,136.393,495.632,120.027,475.515,120.027z M168.287,107.153c0-11.529,9.379-20.908,20.908-20.908h133.61 c11.529,0,20.908,9.379,20.908,20.908v12.873H168.287V107.153z M49.204,307.443l-28.806-28.585V156.511 c0-8.87,7.217-16.086,16.086-16.086h439.03c8.87,0,16.086,7.216,16.086,16.086v121.355l-31.898,32.648 c-3.937,4.029-3.861,10.486,0.167,14.423c1.984,1.938,4.556,2.904,7.126,2.904c2.651,0,5.297-1.026,7.296-3.072l17.31-17.714 v102.613c0,8.87-7.216,16.086-16.086,16.086H36.485c-8.87,0-16.086-7.216-16.086-16.086V307.595l17.42,17.287 c1.91,1.896,4.493,2.96,7.184,2.96h160.001v34.802c0,5.633,4.566,10.199,10.199,10.199h81.594c5.632,0,10.199-4.566,10.199-10.199 v-34.802h83.633c5.632,0,10.199-4.566,10.199-10.199s-4.567-10.199-10.199-10.199L49.204,307.443L49.204,307.443z M225.402,327.842 h61.195v24.603h-61.195V327.842z"></path>
        <path style="fill:#534741;" d="M430.406,307.443h-6.12c-5.632,0-10.199,4.566-10.199,10.199s4.567,10.199,10.199,10.199h6.12 c5.632,0,10.199-4.566,10.199-10.199S436.038,307.443,430.406,307.443z"></path>
    </symbol>

</svg>