<?xml version="1.0" encoding="utf-8"?>

<svg version="1.1" id="Icons" xmlns="http://www.w3.org/2000/svg"
     viewBox="0 0 32 32" xml:space="preserve">
<style type="text/css">
	.st0{fill:none;stroke:gray;stroke-width:2;stroke-linecap:round;stroke-linejoin:round;stroke-miterlimit:10;}
	.st1{fill:none;stroke:gray;stroke-width:2;stroke-linejoin:round;stroke-miterlimit:10;}
</style>
    <path class="st0" d="M17,5c-0.27,0-0.54,0.02-0.8,0.04C19.05,6.55,21,9.55,21,13c0,4.97-4.03,9-9,9c-2.74,0-5.19-1.23-6.85-3.17
	C6.04,24.59,11,29,17,29c6.63,0,12-5.37,12-12S23.63,5,17,5z"  />
    <g>
	<path class="st0"
          d="M11,9c-2.58,0.62-3.38,1.42-4,4c-0.62-2.58-1.42-3.38-4-4c2.58-0.62,3.38-1.42,4-4C7.62,7.58,8.42,8.38,11,9z"
    />
</g>
    <line class="st0" x1="12" y1="14" x2="12" y2="16"/>
    <line class="st0" x1="11" y1="15" x2="13" y2="15"/>
</svg>