<svg xmlns="http://www.w3.org/2000/svg" style="display: none;">

    <style type="text/css">
        .st0{fill:none;stroke:gray;stroke-width:2;stroke-linecap:round;stroke-linejoin:round;stroke-miterlimit:10;}
        .st1{fill:none;stroke:gray;stroke-width:2;stroke-linejoin:round;stroke-miterlimit:10;}
    </style>


    <!-- ic_company -->
    <symbol id="ic_company" viewBox="0 0 20 20" width="20" height="20" role="img">
        <path d="M1.75 16A1.75 1.75 0 0 1 0 14.25V1.75C0 .784.784 0 1.75 0h8.5C11.216 0 12 .784 12 1.75v12.5c0 .085-.006.168-.018.25h2.268a.25.25 0 0 0 .25-.25V8.285a.25.25 0 0 0-.111-.208l-1.055-.703a.749.749 0 1 1 .832-1.248l1.055.703c.487.325.779.871.779 1.456v5.965A1.75 1.75 0 0 1 14.25 16h-3.5a.766.766 0 0 1-.197-.026c-.099.017-.2.026-.303.026h-3a.75.75 0 0 1-.75-.75V14h-1v1.25a.75.75 0 0 1-.75.75Zm-.25-1.75c0 .138.112.25.25.25H4v-1.25a.75.75 0 0 1 .75-.75h2.5a.75.75 0 0 1 .75.75v1.25h2.25a.25.25 0 0 0 .25-.25V1.75a.25.25 0 0 0-.25-.25h-8.5a.25.25 0 0 0-.25.25ZM3.75 6h.5a.75.75 0 0 1 0 1.5h-.5a.75.75 0 0 1 0-1.5ZM3 3.75A.75.75 0 0 1 3.75 3h.5a.75.75 0 0 1 0 1.5h-.5A.75.75 0 0 1 3 3.75Zm4 3A.75.75 0 0 1 7.75 6h.5a.75.75 0 0 1 0 1.5h-.5A.75.75 0 0 1 7 6.75ZM7.75 3h.5a.75.75 0 0 1 0 1.5h-.5a.75.75 0 0 1 0-1.5ZM3 9.75A.75.75 0 0 1 3.75 9h.5a.75.75 0 0 1 0 1.5h-.5A.75.75 0 0 1 3 9.75ZM7.75 9h.5a.75.75 0 0 1 0 1.5h-.5a.75.75 0 0 1 0-1.5Z"
              fill="gray"></path>
    </symbol>

    <!-- ic_location -->
    <symbol id="ic_location" viewBox="0 0 20 20" width="20" height="20" role="img">
        <path d="m12.596 11.596-3.535 3.536a1.5 1.5 0 0 1-2.122 0l-3.535-3.536a6.5 6.5 0 1 1 9.192-9.193 6.5 6.5 0 0 1 0 9.193Zm-1.06-8.132v-.001a5 5 0 1 0-7.072 7.072L8 14.07l3.536-3.534a5 5 0 0 0 0-7.072ZM8 9a2 2 0 1 1-.001-3.999A2 2 0 0 1 8 9Z"
              fill="gray"></path>
    </symbol>

    <!-- ic_sun -->
    <symbol id="ic_sun" viewBox="0 0 32 32" width="70" height="70">
        <circle class="st0" cx="16" cy="16" r="7" stroke="var(--sun-stroke-color, #808080)" fill="none" stroke-width="2"
                stroke-linecap="round" stroke-linejoin="round"/>


        <g class="st0" stroke="var(--sun-stroke-color, #808080)" fill="none" stroke-width="2" stroke-linecap="round"
           stroke-linejoin="round">

            <line x1="16" y1="3" x2="16" y2="6"/>
            <line x1="6.81" y1="6.81" x2="8.93" y2="8.93"/>
            <line x1="3" y1="16" x2="6" y2="16"/>
            <line x1="6.81" y1="25.19" x2="8.93" y2="23.07"/>
            <line x1="16" y1="29" x2="16" y2="26"/>
            <line x1="25.19" y1="25.19" x2="23.07" y2="23.07"/>
            <line x1="29" y1="16" x2="26" y2="16"/>
            <line x1="25.19" y1="6.81" x2="23.07" y2="8.93"/>
        </g>
    </symbol>


    <!-- ic_moon_sun -->
    <symbol id="ic_moon_sun" viewBox="0 0 32 32" width="70" height="70" role="img">
        <g class="st0" stroke="var(--sun-stroke-color, #808080)" fill="none" stroke-width="2" stroke-linecap="round"
           stroke-linejoin="round">
            <line class="st0" x1="16" y1="3" x2="16" y2="29"/>
            <path class="st0" d="M16,23c-3.87,0-7-3.13-7-7s3.13-7,7-7"/>
            <line class="st0" x1="6.81" y1="6.81" x2="8.93" y2="8.93"/>
            <line class="st0" x1="3" y1="16" x2="6" y2="16"/>
            <line class="st0" x1="6.81" y1="25.19" x2="8.93" y2="23.07"/>
            <path class="st0" d="M16,12.55C17.2,10.43,19.48,9,22.09,9c0.16,0,0.31,0.01,0.47,0.02c-1.67,0.88-2.8,2.63-2.8,4.64
        c0,2.9,2.35,5.25,5.25,5.25c1.6,0,3.03-0.72,3.99-1.85C28.48,20.43,25.59,23,22.09,23c-2.61,0-4.89-1.43-6.09-3.55"/>
        </g>
    </symbol>

    <!-- ic_moon -->
    <symbol id="ic_moon" viewBox="0 0 32 32" width="70" height="70" role="img">
        <g class="st0" stroke="var(--sun-stroke-color, #808080)" fill="none" stroke-width="2" stroke-linecap="round"
           stroke-linejoin="round">

            <path class="st0" d="M17,5c-0.27,0-0.54,0.02-0.8,0.04C19.05,6.55,21,9.55,21,13c0,4.97-4.03,9-9,9c-2.74,0-5.19-1.23-6.85-3.17
        C6.04,24.59,11,29,17,29c6.63,0,12-5.37,12-12S23.63,5,17,5z"/>
            <g>
                <path class="st0"
                      d="M11,9c-2.58,0.62-3.38,1.42-4,4c-0.62-2.58-1.42-3.38-4-4c2.58-0.62,3.38-1.42,4-4C7.62,7.58,8.42,8.38,11,9z"/>
            </g>
            <line class="st0" x1="12" y1="14" x2="12" y2="16"/>
            <line class="st0" x1="11" y1="15" x2="13" y2="15"/>
        </g>
    </symbol>

</svg>
