<?xml version="1.0" encoding="iso-8859-1"?>
<!-- Uploaded to: SVG Repo, www.svgrepo.com, Generator: SVG Repo Mixer Tools -->
<!DOCTYPE svg PUBLIC "-//W3C//DTD SVG 1.1//EN" "http://www.w3.org/Graphics/SVG/1.1/DTD/svg11.dtd">
<svg fill="#000000" version="1.1" id="Capa_1" xmlns="http://www.w3.org/2000/svg" xmlns:xlink="http://www.w3.org/1999/xlink" 
	 width="800px" height="800px" viewBox="0 0 45.771 45.771"
	 xml:space="preserve">
<g>
	<g>
		<path d="M17.076,6.657c-0.283,0.214-0.459,0.548-0.459,0.903v3.946c0,0.355,0.181,0.689,0.464,0.903
			c0.282,0.213,0.641,0.282,0.981,0.185l3.087-0.885v0.087c0,0.306,0.28,0.552,0.587,0.552h2.305c0.307,0,0.658-0.246,0.658-0.552
			v-0.087l3.056,0.885c0.341,0.097,0.707,0.029,0.991-0.185c0.283-0.214,0.484-0.548,0.484-0.903V7.56
			c0-0.354-0.207-0.689-0.49-0.903c-0.283-0.213-0.639-0.282-0.979-0.184l-3.063,0.884V7.271c0-0.306-0.353-0.587-0.658-0.587
			h-2.305c-0.307,0-0.587,0.281-0.587,0.587v0.087l-3.085-0.884C17.722,6.376,17.359,6.444,17.076,6.657z"/>
		<path d="M28.688,2.228h-2.334l6.431,4.969l-9.899,31.262l-9.9-31.262l6.433-4.969h-2.335C7.937,2.228,0,9.869,0,19.013v20.684
			c0,2.125,1.723,3.847,3.847,3.847h38.078c2.124,0,3.847-1.722,3.847-3.847V19.013C45.771,9.869,37.833,2.228,28.688,2.228z
			 M32.133,27.379c-0.238,0-0.457-0.132-0.568-0.343c-0.112-0.209-0.101-0.465,0.033-0.664l2.281-3.395
			c0.258-0.384,0.689-0.614,1.153-0.614c0.463,0,0.896,0.23,1.153,0.615l2.28,3.394c0.134,0.199,0.146,0.455,0.033,0.664
			c-0.11,0.211-0.331,0.343-0.569,0.343H32.133z"/>
	</g>
</g>
</svg>