<svg width="24" height="24" viewBox="0 0 28 24" fill="none" xmlns="http://www.w3.org/2000/svg">
<g clip-path="url(#clip0_30_110)">
<path d="M3.5 1.5C1.84531 1.5 0.5 2.84531 0.5 4.5V19.5C0.5 21.1547 1.84531 22.5 3.5 22.5H24.5C26.1547 22.5 27.5 21.1547 27.5 19.5V4.5C27.5 2.84531 26.1547 1.5 24.5 1.5H3.5ZM7.25 13.5H10.25C12.3219 13.5 14 15.1781 14 17.25C14 17.6625 13.6625 18 13.25 18H4.25C3.8375 18 3.5 17.6625 3.5 17.25C3.5 15.1781 5.17812 13.5 7.25 13.5ZM5.75 9C5.75 8.20435 6.06607 7.44129 6.62868 6.87868C7.19129 6.31607 7.95435 6 8.75 6C9.54565 6 10.3087 6.31607 10.8713 6.87868C11.4339 7.44129 11.75 8.20435 11.75 9C11.75 9.79565 11.4339 10.5587 10.8713 11.1213C10.3087 11.6839 9.54565 12 8.75 12C7.95435 12 7.19129 11.6839 6.62868 11.1213C6.06607 10.5587 5.75 9.79565 5.75 9ZM17.75 7.5H23.75C24.1625 7.5 24.5 7.8375 24.5 8.25C24.5 8.6625 24.1625 9 23.75 9H17.75C17.3375 9 17 8.6625 17 8.25C17 7.8375 17.3375 7.5 17.75 7.5ZM17.75 10.5H23.75C24.1625 10.5 24.5 10.8375 24.5 11.25C24.5 11.6625 24.1625 12 23.75 12H17.75C17.3375 12 17 11.6625 17 11.25C17 10.8375 17.3375 10.5 17.75 10.5ZM17.75 13.5H23.75C24.1625 13.5 24.5 13.8375 24.5 14.25C24.5 14.6625 24.1625 15 23.75 15H17.75C17.3375 15 17 14.6625 17 14.25C17 13.8375 17.3375 13.5 17.75 13.5Z" fill="white" fill-opacity="0.65"/>
</g>
<defs>
<clipPath id="clip0_30_110">
<rect width="27" height="24" fill="white" transform="translate(0.5)"/>
</clipPath>
</defs>
</svg>
