<svg width="24" height="24" viewBox="0 0 24 24" fill="none" xmlns="http://www.w3.org/2000/svg">
<g clip-path="url(#clip0_30_120)">
<path d="M12 21C18.6281 21 24 16.6359 24 11.25C24 5.86406 18.6281 1.5 12 1.5C5.37187 1.5 -6.07315e-06 5.86406 -6.07315e-06 11.25C-6.07315e-06 13.3641 0.829681 15.3187 2.23593 16.9172C2.14687 18.0656 1.70156 19.0875 1.23281 19.8656C0.974994 20.2969 0.712494 20.6437 0.520306 20.8781C0.421869 20.9953 0.346869 21.0844 0.290619 21.1453C0.262494 21.1734 0.243744 21.1969 0.229681 21.2109L0.215619 21.225C-6.07222e-06 21.4406 -0.0609436 21.7594 0.0562439 22.0406C0.173431 22.3219 0.445306 22.5047 0.749994 22.5047C2.09531 22.5047 3.44999 22.0875 4.57499 21.6C5.64843 21.1312 6.56249 20.5734 7.12031 20.1656C8.61093 20.7047 10.2609 21.0047 12 21.0047V21ZM5.99999 9.75C6.39782 9.75 6.77935 9.90804 7.06065 10.1893C7.34196 10.4706 7.49999 10.8522 7.49999 11.25C7.49999 11.6478 7.34196 12.0294 7.06065 12.3107C6.77935 12.592 6.39782 12.75 5.99999 12.75C5.60217 12.75 5.22064 12.592 4.93933 12.3107C4.65803 12.0294 4.49999 11.6478 4.49999 11.25C4.49999 10.8522 4.65803 10.4706 4.93933 10.1893C5.22064 9.90804 5.60217 9.75 5.99999 9.75ZM12 9.75C12.3978 9.75 12.7793 9.90804 13.0607 10.1893C13.342 10.4706 13.5 10.8522 13.5 11.25C13.5 11.6478 13.342 12.0294 13.0607 12.3107C12.7793 12.592 12.3978 12.75 12 12.75C11.6022 12.75 11.2206 12.592 10.9393 12.3107C10.658 12.0294 10.5 11.6478 10.5 11.25C10.5 10.8522 10.658 10.4706 10.9393 10.1893C11.2206 9.90804 11.6022 9.75 12 9.75ZM16.5 11.25C16.5 10.8522 16.658 10.4706 16.9393 10.1893C17.2206 9.90804 17.6022 9.75 18 9.75C18.3978 9.75 18.7793 9.90804 19.0607 10.1893C19.342 10.4706 19.5 10.8522 19.5 11.25C19.5 11.6478 19.342 12.0294 19.0607 12.3107C18.7793 12.592 18.3978 12.75 18 12.75C17.6022 12.75 17.2206 12.592 16.9393 12.3107C16.658 12.0294 16.5 11.6478 16.5 11.25Z" fill="white" fill-opacity="0.65"/>
</g>
<defs>
<clipPath id="clip0_30_120">
<rect width="24" height="24" fill="white"/>
</clipPath>
</defs>
</svg>
