<svg width="30" height="30" viewBox="0 0 30 30" fill="none" xmlns="http://www.w3.org/2000/svg">
<g clip-path="url(#clip0_64_52)">
<path fill-rule="evenodd" clip-rule="evenodd" d="M6.82641 29.3097V9.99926H0.408691V29.3096H6.82641V29.3097ZM3.61822 7.36371C5.85551 7.36371 7.24916 5.87965 7.24916 4.02662C7.20686 2.1324 5.85551 0.690231 3.66018 0.690231C1.46449 0.69029 0.0292969 2.13246 0.0292969 4.02668C0.0292969 5.8797 1.42219 7.36377 3.57598 7.36377L3.61822 7.36371ZM10.3784 29.3097C10.3784 29.3097 10.4626 11.8111 10.3784 9.99931H16.7971V12.7997H16.7545C17.5985 11.482 19.119 9.54586 22.581 9.54586C26.8048 9.54586 29.9706 12.3058 29.9706 18.2372V29.3098H23.553V18.9792C23.553 16.3835 22.6244 14.6122 20.3012 14.6122C18.5285 14.6122 17.4721 15.8063 17.0081 16.9606C16.8384 17.3715 16.7971 17.9486 16.7971 18.5257V29.3097H10.3784Z" fill="white" fill-opacity="0.87"/>
</g>
<defs>
<clipPath id="clip0_64_52">
<rect width="30" height="30" fill="white"/>
</clipPath>
</defs>
</svg>
