<?xml version="1.0" encoding="utf-8"?>

<!DOCTYPE svg PUBLIC "-//W3C//DTD SVG 1.1//EN" "http://www.w3.org/Graphics/SVG/1.1/DTD/svg11.dtd">
<!-- Uploaded to: SVG Repo, www.svgrepo.com, Generator: SVG Repo Mixer Tools -->
<svg height="800px" width="800px" version="1.1" id="_x32_" xmlns="http://www.w3.org/2000/svg" xmlns:xlink="http://www.w3.org/1999/xlink" 
	 viewBox="0 0 512 512"  xml:space="preserve">
<style type="text/css">
	.st0{fill:#000000;}
</style>
<g>
	<path class="st0" d="M511.735,411.733l-64.819-288.538c-4.356-19.391-17.332-35.718-35.238-44.346l-72.443-34.884l-83.231,213.436
		l-83.24-213.436l-72.442,34.884c-17.906,8.628-30.882,24.955-35.238,44.346L0.265,411.733c-1.309,5.842,2.356,11.633,8.189,12.959
		l53.134,11.996c5.766,1.3,11.507-2.262,12.917-8.003l47.665-195.183l14.335,95.6l-25.64,119.668
		c-0.785,3.672-0.025,7.497,2.127,10.578c2.136,3.073,5.454,5.133,9.169,5.665l117.11,17.036l16.732-46.474l16.724,46.474
		l117.11-17.036c3.707-0.532,7.032-2.592,9.169-5.665c2.152-3.081,2.912-6.906,2.127-10.578l-25.638-119.668l14.335-95.6
		l47.664,195.183c1.401,5.741,7.151,9.304,12.917,8.003l53.135-11.996C509.38,423.366,513.044,417.575,511.735,411.733z
		 M256.004,394.418c-5.598,0-10.131-4.542-10.131-10.131c0-5.597,4.533-10.131,10.131-10.131c5.589,0,10.122,4.534,10.122,10.131
		C266.126,389.876,261.593,394.418,256.004,394.418z M256.004,325.91c-5.598,0-10.131-4.534-10.131-10.131
		c0-5.589,4.533-10.122,10.131-10.122c5.589,0,10.122,4.533,10.122,10.122C266.126,321.377,261.593,325.91,256.004,325.91z"/>
	<polygon class="st0" points="270.348,65.535 273.53,53.075 267.874,29.952 243.156,29.952 237.491,53.075 240.682,65.535 	"/>
	<polygon class="st0" points="275.861,175.343 271.943,83.408 240.057,83.408 236.14,175.343 256.004,227.111 	"/>
</g>
</svg>