<?xml version="1.0" standalone="no"?>
<!DOCTYPE svg PUBLIC "-//W3C//DTD SVG 20010904//EN"
 "http://www.w3.org/TR/2001/REC-SVG-20010904/DTD/svg10.dtd">
<svg version="1.0" xmlns="http://www.w3.org/2000/svg"
 width="70.000000pt" height="65.000000pt" viewBox="0 0 70.000000 65.000000" 
 preserveAspectRatio="xMidYMid meet">

<g transform="translate(0.000000,65.000000) scale(0.100000,-0.100000)"
fill="#000000" stroke="none">
<path d="M130 560 c0 -14 -7 -20 -22 -20 -42 0 -52 -14 -44 -61 9 -59 30 -87
77 -108 22 -10 52 -36 70 -60 17 -24 44 -50 60 -59 29 -17 39 -53 21 -77 -12
-18 -82 -55 -103 -55 -16 0 -19 -7 -19 -50 l0 -50 170 0 170 0 0 50 c0 46 -2
50 -24 50 -13 0 -29 7 -36 15 -7 8 -18 15 -26 15 -21 0 -44 30 -44 59 0 19 8
32 29 44 16 9 42 37 57 61 19 31 37 46 57 50 45 9 84 56 92 110 8 52 0 66 -42
66 -16 0 -23 6 -23 20 0 19 -7 20 -210 20 -203 0 -210 -1 -210 -20z m404 -17
c-41 -190 -110 -293 -196 -293 -81 0 -141 77 -177 228 -10 42 -17 80 -14 85 2
4 92 7 199 7 l194 0 -6 -27z m-389 -70 c25 -85 26 -93 11 -93 -33 0 -68 44
-73 94 -6 47 -6 48 22 44 23 -2 30 -10 40 -45z m452 0 c-5 -51 -40 -93 -76
-93 -18 0 -17 3 3 70 20 65 23 70 50 70 28 0 29 -1 23 -47z m-231 -280 c6 -27
18 -42 39 -53 l30 -15 -47 -3 c-27 -2 -69 -2 -95 0 -46 3 -47 4 -21 15 30 13
48 41 48 72 0 38 35 25 46 -16z m124 -128 l0 -36 -152 3 -151 3 -1 33 -1 32
153 0 152 0 0 -35z"/>
<path d="M330 480 c-6 -11 -20 -20 -30 -20 -24 0 -26 -13 -5 -30 9 -7 13 -21
9 -34 -5 -21 -2 -22 44 -22 44 0 48 2 44 21 -2 12 4 27 12 34 23 19 20 31 -8
31 -16 0 -27 7 -31 20 -3 11 -10 20 -15 20 -5 0 -14 -9 -20 -20z m58 -36 c1
-1 -3 -12 -10 -25 -14 -25 -63 -37 -54 -13 3 8 1 16 -4 19 -15 9 -12 25 5 25
8 0 15 5 15 10 0 6 9 5 23 -2 12 -7 23 -13 25 -14z"/>
</g>
</svg>
