<?xml version="1.0" encoding="iso-8859-1"?>
<!-- Uploaded to: SVG Repo, www.svgrepo.com, Generator: SVG Repo Mixer Tools -->
<svg fill="#000000" height="800px" width="800px" version="1.1" id="Layer_1" xmlns="http://www.w3.org/2000/svg" xmlns:xlink="http://www.w3.org/1999/xlink" 
	 viewBox="0 0 512 512" xml:space="preserve">
<g>
	<g>
		<path d="M415.604,65.976h-44.143V21.213c0-0.075-0.01-0.145-0.011-0.22c0.001-0.073,0.011-0.145,0.011-0.22
			C371.461,9.301,362.16,0,350.688,0H163.61c-11.472,0-20.772,9.301-20.772,20.772c0,0.075,0.01,0.145,0.011,0.22
			c-0.001,0.073-0.011,0.145-0.011,0.22v44.762h-46.44c-23.287,0-42.234,17.098-42.234,38.115v369.796
			c0,21.016,18.947,38.115,42.234,38.115h319.206c23.287,0,42.233-17.099,42.233-38.115V104.091
			C457.837,83.073,438.891,65.976,415.604,65.976z M184.383,48.519l66.131,19.975c2.002,0.605,4.024,0.893,6.014,0.893
			c0.208,0,0.414-0.019,0.62-0.025c0.208,0.007,0.413,0.025,0.622,0.025c1.99,0,4.012-0.288,6.014-0.893l66.131-19.973v46.187
			l-72.766,21.977l-72.767-21.979V48.519z M96.398,470.458c-0.253-0.001-0.483-0.017-0.69-0.042V107.561
			c0.206-0.025,0.436-0.04,0.69-0.04h46.44v1.536c0,4.923,1.721,9.44,4.584,13.001c2.581,3.83,6.445,6.83,11.21,8.27l71.615,21.63
			L188.2,381.416c-0.006,0.031-0.011,0.062-0.017,0.093l-0.013,0.065c-0.018,0.103-0.023,0.204-0.04,0.305
			c-0.097,0.569-0.177,1.143-0.226,1.721c-0.018,0.217-0.017,0.433-0.028,0.651c-0.024,0.461-0.048,0.922-0.042,1.386
			c0.004,0.294,0.032,0.582,0.048,0.872c0.022,0.382,0.037,0.764,0.082,1.148c0.04,0.355,0.107,0.703,0.165,1.054
			c0.053,0.314,0.094,0.63,0.162,0.943c0.09,0.422,0.209,0.836,0.325,1.251c0.066,0.24,0.12,0.481,0.197,0.719
			c0.163,0.512,0.357,1.011,0.56,1.507c0.054,0.132,0.091,0.266,0.148,0.397l0.036,0.083c0.007,0.015,0.014,0.03,0.019,0.047
			l33.038,76.8H96.398z M257.59,446.626l-27.422-63.746l27.422-149.647l27.422,149.647L257.59,446.626z M416.293,470.416h-0.001
			c-0.206,0.025-0.435,0.04-0.688,0.04H292.564l33.038-76.8c0.007-0.015,0.014-0.031,0.019-0.047l0.036-0.083
			c0.057-0.132,0.094-0.266,0.148-0.397c0.202-0.496,0.396-0.994,0.559-1.507c0.076-0.238,0.13-0.479,0.197-0.719
			c0.116-0.414,0.235-0.827,0.325-1.251c0.068-0.314,0.109-0.629,0.162-0.943c0.058-0.35,0.125-0.698,0.165-1.054
			c0.043-0.384,0.06-0.766,0.082-1.148c0.017-0.291,0.044-0.579,0.048-0.872c0.007-0.464-0.017-0.925-0.042-1.386
			c-0.011-0.217-0.01-0.432-0.028-0.651c-0.048-0.579-0.13-1.151-0.226-1.721c-0.017-0.102-0.022-0.204-0.04-0.305l-0.012-0.065
			c-0.006-0.03-0.011-0.062-0.017-0.093l-42.093-229.711l70.781-21.379c4.765-1.439,8.629-4.44,11.21-8.27
			c2.862-3.56,4.584-8.076,4.584-13.001v-1.536h44.143c0.253,0,0.482,0.015,0.688,0.04V470.416z"/>
	</g>
</g>
</svg>