<?xml version="1.0" encoding="iso-8859-1"?>
<!-- Uploaded to: SVG Repo, www.svgrepo.com, Generator: SVG Repo Mixer Tools -->
<svg fill="#000000" height="800px" width="800px" version="1.1" id="Layer_1" xmlns="http://www.w3.org/2000/svg" xmlns:xlink="http://www.w3.org/1999/xlink" 
	 viewBox="0 0 512 512" xml:space="preserve">
<g>
	<g>
		<path d="M256,231.487c-31.925,34.815-84.599,31.583-86.226,31.583c0,10.664,0,229.397,0,243.104c0,3.218,2.609,5.827,5.827,5.827
			h42.595c2.875,0,5.32-2.097,5.759-4.939l32.023-207.634l32.023,207.634c0.438,2.842,2.883,4.939,5.759,4.939h42.595
			c3.218,0,5.827-2.609,5.827-5.827l0.034-243.101C340.334,263.073,289.037,266.673,256,231.487z"/>
	</g>
</g>
<g>
	<g>
		<path d="M256.182,17.509c-8.372,0-15.985-3.208-21.705-8.45C242.29,22.341,248.467,32.84,256,45.645
			c10.991-18.682,10.056-17.094,21.128-35.915C271.501,14.572,264.189,17.509,256.182,17.509z"/>
	</g>
</g>
<g>
	<g>
		<path d="M335.586,209.832v-16.354h44.335v-0.001V52.781c0-24.41-19.772-44.336-44.336-44.336v0.239
			c-5.536-1.712-21.473-6.64-28.084-8.684l-11.89,43.571l-23.258,4.361l5.945,22.69l-29.203,74.339V109.81L233.7,70.624l5.945-22.69
			l-23.258-4.361L204.499,0l-28.085,8.684V8.445c-24.486,0-44.336,19.848-44.336,44.336v140.697h44.335v16.354h-44.335v25.983
			c0,3.01,2.441,5.451,5.451,5.451h33.434c3.015,0,5.451-2.444,5.451-5.451c0,3.011,2.441,5.451,5.451,5.451
			c54.755,0,74.135-48.309,74.135-48.309c12.7,28.723,41.405,48.309,74.135,48.309c3.01,0,5.451-2.44,5.451-5.451
			c0,3.008,2.438,5.451,5.451,5.451h33.434c3.01,0,5.451-2.44,5.451-5.451v-25.983H335.586z M321.413,106.906H292.34V90.554h29.073
			V106.906z"/>
	</g>
</g>
</svg>