<svg>
    <symbol id="profileIcon" viewBox="0 0 16 16">
        <path d="M11 6a3 3 0 1 1-6 0 3 3 0 0 1 6 0z"/>
        <path fill-rule="evenodd" d="M0 8a8 8 0 1 1 16 0A8 8 0 0 1 0 8zm8-7a7 7 0 0 0-5.468 11.37C3.242 11.226 4.805 10 8 10s4.757 1.225 5.468 2.37A7 7 0 0 0 8 1z"/>
    </symbol>
    <symbol id="vaultIcon" viewBox="0 0 16 16">
        <path d="M1 1.5A1.5 1.5 0 0 1 2.5 0h12A1.5 1.5 0 0 1 16 1.5v13a1.5 1.5 0 0 1-1.5 1.5h-12A1.5 1.5 0 0 1 1 14.5V13H.5a.5.5 0 0 1 0-1H1V8.5H.5a.5.5 0 0 1 0-1H1V4H.5a.5.5 0 0 1 0-1H1V1.5zM2.5 1a.5.5 0 0 0-.5.5v13a.5.5 0 0 0 .5.5h12a.5.5 0 0 0 .5-.5v-13a.5.5 0 0 0-.5-.5h-12z"/>
        <path d="M13.5 6a.5.5 0 0 1 .5.5v3a.5.5 0 0 1-1 0v-3a.5.5 0 0 1 .5-.5zM4.828 4.464a.5.5 0 0 1 .708 0l1.09 1.09a3.003 3.003 0 0 1 3.476 0l1.09-1.09a.5.5 0 1 1 .707.708l-1.09 1.09c.74 1.037.74 2.44 0 3.476l1.09 1.09a.5.5 0 1 1-.707.708l-1.09-1.09a3.002 3.002 0 0 1-3.476 0l-1.09 1.09a.5.5 0 1 1-.708-.708l1.09-1.09a3.003 3.003 0 0 1 0-3.476l-1.09-1.09a.5.5 0 0 1 0-.708zM6.95 6.586a2 2 0 1 0 2.828 2.828A2 2 0 0 0 6.95 6.586z"/>
    </symbol>
    <symbol id="addIcon" viewBox="0 0 16 16">
        <path d="M8 15A7 7 0 1 1 8 1a7 7 0 0 1 0 14zm0 1A8 8 0 1 0 8 0a8 8 0 0 0 0 16z"/>
        <path d="M8 4a.5.5 0 0 1 .5.5v3h3a.5.5 0 0 1 0 1h-3v3a.5.5 0 0 1-1 0v-3h-3a.5.5 0 0 1 0-1h3v-3A.5.5 0 0 1 8 4z"/>
    </symbol>
    <symbol id="close" viewBox="0 0 16 16">
        <path fill-rule="evenodd" d="M8 2a.5.5 0 0 1 .5.5v5h5a.5.5 0 0 1 0 1h-5v5a.5.5 0 0 1-1 0v-5h-5a.5.5 0 0 1 0-1h5v-5A.5.5 0 0 1 8 2"/>
    </symbol>
</svg>