
<svg style="display:none" >
  <symbol id="main" width="40" height="40" viewBox="0 0 40 40" fill="none" xmlns="http://www.w3.org/2000/svg">
    <g >
    <path d="M33.3333 5C34.2174 5 35.0652 5.35119 35.6903 5.97631C36.3155 6.60143 36.6667 7.44928 36.6667 8.33333V31.6667C36.6667 32.5507 36.3155 33.3986 35.6903 34.0237C35.0652 34.6488 34.2174 35 33.3333 35H6.66666C5.78261 35 4.93476 34.6488 4.30964 34.0237C3.68452 33.3986 3.33333 32.5507 3.33333 31.6667V8.33333C3.33333 7.44928 3.68452 6.60143 4.30964 5.97631C4.93476 5.35119 5.78261 5 6.66666 5H33.3333ZM28.3333 25H11.6667C11.2246 25 10.8007 25.1756 10.4882 25.4882C10.1756 25.8007 9.99999 26.2246 9.99999 26.6667C9.99999 27.1087 10.1756 27.5326 10.4882 27.8452C10.8007 28.1577 11.2246 28.3333 11.6667 28.3333H28.3333C28.7754 28.3333 29.1993 28.1577 29.5118 27.8452C29.8244 27.5326 30 27.1087 30 26.6667C30 26.2246 29.8244 25.8007 29.5118 25.4882C29.1993 25.1756 28.7754 25 28.3333 25ZM16.6667 11.6667H13.3333C12.4924 11.6664 11.6824 11.984 11.0657 12.5558C10.4491 13.1276 10.0714 13.9114 10.0083 14.75L9.99999 15V18.3333C9.99973 19.1743 10.3173 19.9843 10.8892 20.6009C11.461 21.2175 12.2447 21.5953 13.0833 21.6583L13.3333 21.6667H16.6667C17.5076 21.6669 18.3176 21.3493 18.9342 20.7775C19.5509 20.2057 19.9286 19.4219 19.9917 18.5833L20 18.3333V15C20.0003 14.159 19.6827 13.3491 19.1108 12.7324C18.539 12.1158 17.7553 11.7381 16.9167 11.675L16.6667 11.6667ZM28.3333 18.3333H23.3333C22.9085 18.3338 22.4999 18.4965 22.191 18.7881C21.8822 19.0797 21.6963 19.4783 21.6714 19.9023C21.6465 20.3264 21.7845 20.744 22.0571 21.0697C22.3298 21.3955 22.7165 21.6048 23.1383 21.655L23.3333 21.6667H28.3333C28.7581 21.6662 29.1667 21.5035 29.4756 21.2119C29.7845 20.9203 29.9704 20.5217 29.9953 20.0977C30.0202 19.6736 29.8822 19.256 29.6096 18.9303C29.3369 18.6045 28.9502 18.3952 28.5283 18.345L28.3333 18.3333ZM16.6667 15V18.3333H13.3333V15H16.6667ZM28.3333 11.6667H23.3333C22.8913 11.6667 22.4674 11.8423 22.1548 12.1548C21.8423 12.4674 21.6667 12.8913 21.6667 13.3333C21.6667 13.7754 21.8423 14.1993 22.1548 14.5118C22.4674 14.8244 22.8913 15 23.3333 15H28.3333C28.7754 15 29.1993 14.8244 29.5118 14.5118C29.8244 14.1993 30 13.7754 30 13.3333C30 12.8913 29.8244 12.4674 29.5118 12.1548C29.1993 11.8423 28.7754 11.6667 28.3333 11.6667Z" fill="white"/>
    </g>
  </symbol>

  <symbol id="moon" xmlns="http://www.w3.org/2000/svg"  data-name="Layer 1" viewBox="0 0 24 24"  fill="white">
    <path d="M12,24A12,12,0,1,1,16.058.71a2.931,2.931,0,0,1,.815,5.068c-5.106,3.917-5.089,8.54,0,12.444a2.931,2.931,0,0,1-.816,5.068A12.229,12.229,0,0,1,12,24ZM12,3a9,9,0,1,0,2.925,17.508c-6.511-5.065-6.49-11.968,0-17.016A9.322,9.322,0,0,0,12,3Zm4.863,9.145,1.55.442.442,1.55a1.191,1.191,0,0,0,2.29,0l.442-1.55,1.55-.442a1.191,1.191,0,0,0,0-2.29l-1.55-.442-.442-1.55a1.191,1.191,0,0,0-2.29,0l-.442,1.55-1.55.442A1.191,1.191,0,0,0,16.863,12.145ZM21,18.5a1.5,1.5,0,0,0,3,0A1.5,1.5,0,0,0,21,18.5Z"/>
  </symbol>


  <symbol id="sun" xmlns="http://www.w3.org/2000/svg"  data-name="Layer 1" viewBox="0 0 24 24"  fill="yellow">
    <path d="M12,7c-2.76,0-5,2.24-5,5s2.24,5,5,5,5-2.24,5-5-2.24-5-5-5Zm0,7c-1.1,0-2-.9-2-2s.9-2,2-2,2,.9,2,2-.9,2-2,2Zm4.95-6.95c-.59-.59-.59-1.54,0-2.12l1.41-1.41c.59-.59,1.54-.59,2.12,0,.59,.59,.59,1.54,0,2.12l-1.41,1.41c-.29,.29-.68,.44-1.06,.44s-.77-.15-1.06-.44ZM7.05,16.95c.59,.59,.59,1.54,0,2.12l-1.41,1.41c-.29,.29-.68,.44-1.06,.44s-.77-.15-1.06-.44c-.59-.59-.59-1.54,0-2.12l1.41-1.41c.59-.59,1.54-.59,2.12,0ZM3.51,5.64c-.59-.59-.59-1.54,0-2.12,.59-.59,1.54-.59,2.12,0l1.41,1.41c.59,.59,.59,1.54,0,2.12-.29,.29-.68,.44-1.06,.44s-.77-.15-1.06-.44l-1.41-1.41Zm16.97,12.73c.59,.59,.59,1.54,0,2.12-.29,.29-.68,.44-1.06,.44s-.77-.15-1.06-.44l-1.41-1.41c-.59-.59-.59-1.54,0-2.12,.59-.59,1.54-.59,2.12,0l1.41,1.41Zm3.51-6.36c0,.83-.67,1.5-1.5,1.5h-2c-.83,0-1.5-.67-1.5-1.5s.67-1.5,1.5-1.5h2c.83,0,1.5,.67,1.5,1.5ZM3.5,13.5H1.5c-.83,0-1.5-.67-1.5-1.5s.67-1.5,1.5-1.5H3.5c.83,0,1.5,.67,1.5,1.5s-.67,1.5-1.5,1.5ZM10.5,3.5V1.5c0-.83,.67-1.5,1.5-1.5s1.5,.67,1.5,1.5V3.5c0,.83-.67,1.5-1.5,1.5s-1.5-.67-1.5-1.5Zm3,17v2c0,.83-.67,1.5-1.5,1.5s-1.5-.67-1.5-1.5v-2c0-.83,.67-1.5,1.5-1.5s1.5,.67,1.5,1.5Z"/>
  </symbol>

</svg>