<svg width="25" height="24" viewBox="0 0 25 24" fill="none" xmlns="http://www.w3.org/2000/svg">
<path d="M6.50091 10.95L5.50091 11.5C5.26758 11.6333 5.01758 11.6667 4.75091 11.6C4.48424 11.5333 4.28424 11.3833 4.15091 11.15L2.15091 7.65C2.01758 7.41667 1.98424 7.16667 2.05091 6.9C2.11758 6.63333 2.26758 6.43333 2.50091 6.3L8.25091 3H10.0009C10.1509 3 10.2717 3.04583 10.3634 3.1375C10.4551 3.22917 10.5009 3.35 10.5009 3.5V4C10.5009 4.55 10.6967 5.02083 11.0884 5.4125C11.4801 5.80417 11.9509 6 12.5009 6C13.0509 6 13.5217 5.80417 13.9134 5.4125C14.3051 5.02083 14.5009 4.55 14.5009 4V3.5C14.5009 3.35 14.5467 3.22917 14.6384 3.1375C14.7301 3.04583 14.8509 3 15.0009 3H16.7509L22.5009 6.3C22.7342 6.43333 22.8842 6.63333 22.9509 6.9C23.0176 7.16667 22.9842 7.41667 22.8509 7.65L20.8509 11.15C20.7176 11.3833 20.5217 11.5292 20.2634 11.5875C20.0051 11.6458 19.7509 11.6083 19.5009 11.475L18.5009 10.975V20C18.5009 20.2833 18.4051 20.5208 18.2134 20.7125C18.0217 20.9042 17.7842 21 17.5009 21H7.50091C7.21758 21 6.98008 20.9042 6.78841 20.7125C6.59674 20.5208 6.50091 20.2833 6.50091 20V10.95ZM8.50091 7.6V19H16.5009V7.6L19.6009 9.3L20.6509 7.55L16.3509 5.05C16.1009 5.9 15.6301 6.60417 14.9384 7.1625C14.2467 7.72083 13.4342 8 12.5009 8C11.5676 8 10.7551 7.72083 10.0634 7.1625C9.37175 6.60417 8.90091 5.9 8.65091 5.05L4.35091 7.55L5.40091 9.3L8.50091 7.6Z" fill="black"/>
</svg>
