<svg width="78" height="59" viewBox="0 0 78 59" fill="none" xmlns="http://www.w3.org/2000/svg">
<path d="M12.5723 11.6875L14.4727 5.60352H15.3066L15.1426 6.81348L13.208 13H12.3945L12.5723 11.6875ZM11.2939 5.60352L12.9141 11.7559L13.0303 13H12.1758L10.0293 5.60352H11.2939ZM17.125 11.708L18.6699 5.60352H19.9277L17.7812 13H16.9336L17.125 11.708ZM15.4912 5.60352L17.3506 11.585L17.5625 13H16.7559L14.7666 6.7998L14.6025 5.60352H15.4912ZM25.5879 11.7354V7.92773C25.5879 7.63607 25.5286 7.38314 25.4102 7.16895C25.2962 6.9502 25.123 6.78158 24.8906 6.66309C24.6582 6.5446 24.3711 6.48535 24.0293 6.48535C23.7103 6.48535 23.43 6.54004 23.1885 6.64941C22.9515 6.75879 22.7646 6.90234 22.6279 7.08008C22.4958 7.25781 22.4297 7.44922 22.4297 7.6543H21.165C21.165 7.38997 21.2334 7.12793 21.3701 6.86816C21.5068 6.6084 21.7028 6.3737 21.958 6.16406C22.2178 5.94987 22.5277 5.78125 22.8877 5.6582C23.2523 5.5306 23.6579 5.4668 24.1045 5.4668C24.6423 5.4668 25.1162 5.55794 25.5264 5.74023C25.9411 5.92253 26.2646 6.19824 26.4971 6.56738C26.734 6.93197 26.8525 7.38997 26.8525 7.94141V11.3867C26.8525 11.6328 26.873 11.8949 26.9141 12.1729C26.9596 12.4508 27.0257 12.6901 27.1123 12.8906V13H25.793C25.7292 12.8542 25.679 12.6605 25.6426 12.4189C25.6061 12.1729 25.5879 11.945 25.5879 11.7354ZM25.8066 8.51562L25.8203 9.4043H24.542C24.182 9.4043 23.8607 9.43392 23.5781 9.49316C23.2956 9.54785 23.0586 9.63216 22.8672 9.74609C22.6758 9.86003 22.5299 10.0036 22.4297 10.1768C22.3294 10.3454 22.2793 10.5436 22.2793 10.7715C22.2793 11.0039 22.3317 11.2158 22.4365 11.4072C22.5413 11.5986 22.6986 11.7513 22.9082 11.8652C23.1224 11.9746 23.3844 12.0293 23.6943 12.0293C24.0817 12.0293 24.4235 11.9473 24.7197 11.7832C25.016 11.6191 25.2507 11.4186 25.4238 11.1816C25.6016 10.9447 25.6973 10.7145 25.7109 10.4912L26.251 11.0996C26.2191 11.291 26.1325 11.5029 25.9912 11.7354C25.8499 11.9678 25.6608 12.1911 25.4238 12.4053C25.1914 12.6149 24.9134 12.7904 24.5898 12.9316C24.2708 13.0684 23.9108 13.1367 23.5098 13.1367C23.0085 13.1367 22.5687 13.0387 22.1904 12.8428C21.8167 12.6468 21.5251 12.3848 21.3154 12.0566C21.1104 11.724 21.0078 11.3525 21.0078 10.9424C21.0078 10.5459 21.0853 10.1973 21.2402 9.89648C21.3952 9.59115 21.6185 9.33822 21.9102 9.1377C22.2018 8.93262 22.5527 8.77767 22.9629 8.67285C23.373 8.56803 23.8311 8.51562 24.3369 8.51562H25.8066ZM30.1064 6.76562V13H28.8418V5.60352H30.0723L30.1064 6.76562ZM32.417 5.5625L32.4102 6.73828C32.3053 6.71549 32.2051 6.70182 32.1094 6.69727C32.0182 6.68815 31.9134 6.68359 31.7949 6.68359C31.5033 6.68359 31.2458 6.72917 31.0225 6.82031C30.7992 6.91146 30.61 7.03906 30.4551 7.20312C30.3001 7.36719 30.1771 7.56315 30.0859 7.79102C29.9993 8.01432 29.9424 8.26042 29.915 8.5293L29.5596 8.73438C29.5596 8.28776 29.6029 7.86849 29.6895 7.47656C29.7806 7.08464 29.9196 6.73828 30.1064 6.4375C30.2933 6.13216 30.5303 5.89518 30.8174 5.72656C31.109 5.55339 31.4554 5.4668 31.8564 5.4668C31.9476 5.4668 32.0524 5.47819 32.1709 5.50098C32.2894 5.51921 32.3714 5.53971 32.417 5.5625ZM38.1113 11.5645V2.5H39.3828V13H38.2207L38.1113 11.5645ZM33.1348 9.38379V9.24023C33.1348 8.67513 33.2031 8.16243 33.3398 7.70215C33.4811 7.2373 33.6794 6.83854 33.9346 6.50586C34.1943 6.17318 34.502 5.91797 34.8574 5.74023C35.2174 5.55794 35.6185 5.4668 36.0605 5.4668C36.5254 5.4668 36.931 5.54883 37.2773 5.71289C37.6283 5.8724 37.9245 6.1071 38.166 6.41699C38.4121 6.72233 38.6058 7.09147 38.7471 7.52441C38.8883 7.95736 38.9863 8.44727 39.041 8.99414V9.62305C38.9909 10.1654 38.8929 10.653 38.7471 11.0859C38.6058 11.5189 38.4121 11.888 38.166 12.1934C37.9245 12.4987 37.6283 12.7334 37.2773 12.8975C36.9264 13.057 36.5163 13.1367 36.0469 13.1367C35.6139 13.1367 35.2174 13.0433 34.8574 12.8564C34.502 12.6696 34.1943 12.4076 33.9346 12.0703C33.6794 11.7331 33.4811 11.3366 33.3398 10.8809C33.2031 10.4206 33.1348 9.92155 33.1348 9.38379ZM34.4062 9.24023V9.38379C34.4062 9.75293 34.4427 10.0993 34.5156 10.4229C34.5931 10.7464 34.7116 11.0312 34.8711 11.2773C35.0306 11.5234 35.2334 11.7171 35.4795 11.8584C35.7256 11.9951 36.0195 12.0635 36.3613 12.0635C36.7806 12.0635 37.1247 11.9746 37.3936 11.7969C37.667 11.6191 37.8857 11.3844 38.0498 11.0928C38.2139 10.8011 38.3415 10.4844 38.4326 10.1426V8.49512C38.3779 8.24447 38.2982 8.00293 38.1934 7.77051C38.0931 7.53353 37.9609 7.32389 37.7969 7.1416C37.6374 6.95475 37.4391 6.80664 37.2021 6.69727C36.9697 6.58789 36.694 6.5332 36.375 6.5332C36.0286 6.5332 35.7301 6.60612 35.4795 6.75195C35.2334 6.89323 35.0306 7.08919 34.8711 7.33984C34.7116 7.58594 34.5931 7.87305 34.5156 8.20117C34.4427 8.52474 34.4062 8.87109 34.4062 9.24023ZM42.6162 6.76562V13H41.3516V5.60352H42.582L42.6162 6.76562ZM44.9268 5.5625L44.9199 6.73828C44.8151 6.71549 44.7148 6.70182 44.6191 6.69727C44.528 6.68815 44.4232 6.68359 44.3047 6.68359C44.013 6.68359 43.7555 6.72917 43.5322 6.82031C43.3089 6.91146 43.1198 7.03906 42.9648 7.20312C42.8099 7.36719 42.6868 7.56315 42.5957 7.79102C42.5091 8.01432 42.4521 8.26042 42.4248 8.5293L42.0693 8.73438C42.0693 8.28776 42.1126 7.86849 42.1992 7.47656C42.2904 7.08464 42.4294 6.73828 42.6162 6.4375C42.8031 6.13216 43.04 5.89518 43.3271 5.72656C43.6188 5.55339 43.9652 5.4668 44.3662 5.4668C44.4574 5.4668 44.5622 5.47819 44.6807 5.50098C44.7992 5.51921 44.8812 5.53971 44.9268 5.5625ZM45.624 9.38379V9.22656C45.624 8.69336 45.7015 8.19889 45.8564 7.74316C46.0114 7.28288 46.2347 6.88411 46.5264 6.54688C46.818 6.20508 47.1712 5.94076 47.5859 5.75391C48.0007 5.5625 48.4655 5.4668 48.9805 5.4668C49.5 5.4668 49.9671 5.5625 50.3818 5.75391C50.8011 5.94076 51.1566 6.20508 51.4482 6.54688C51.7445 6.88411 51.9701 7.28288 52.125 7.74316C52.2799 8.19889 52.3574 8.69336 52.3574 9.22656V9.38379C52.3574 9.91699 52.2799 10.4115 52.125 10.8672C51.9701 11.3229 51.7445 11.7217 51.4482 12.0635C51.1566 12.4007 50.8034 12.665 50.3887 12.8564C49.9785 13.0433 49.5137 13.1367 48.9941 13.1367C48.4746 13.1367 48.0075 13.0433 47.5928 12.8564C47.1781 12.665 46.8226 12.4007 46.5264 12.0635C46.2347 11.7217 46.0114 11.3229 45.8564 10.8672C45.7015 10.4115 45.624 9.91699 45.624 9.38379ZM46.8887 9.22656V9.38379C46.8887 9.75293 46.932 10.1016 47.0186 10.4297C47.1051 10.7533 47.235 11.0404 47.4082 11.291C47.5859 11.5417 47.807 11.7399 48.0713 11.8857C48.3356 12.027 48.6432 12.0977 48.9941 12.0977C49.3405 12.0977 49.6436 12.027 49.9033 11.8857C50.1676 11.7399 50.3864 11.5417 50.5596 11.291C50.7327 11.0404 50.8626 10.7533 50.9492 10.4297C51.0404 10.1016 51.0859 9.75293 51.0859 9.38379V9.22656C51.0859 8.86198 51.0404 8.5179 50.9492 8.19434C50.8626 7.86621 50.7305 7.57682 50.5527 7.32617C50.3796 7.07096 50.1608 6.87044 49.8965 6.72461C49.6367 6.57878 49.3314 6.50586 48.9805 6.50586C48.6341 6.50586 48.3288 6.57878 48.0645 6.72461C47.8047 6.87044 47.5859 7.07096 47.4082 7.32617C47.235 7.57682 47.1051 7.86621 47.0186 8.19434C46.932 8.5179 46.8887 8.86198 46.8887 9.22656ZM53.9365 2.5H55.208V11.5645L55.0986 13H53.9365V2.5ZM60.2051 9.24023V9.38379C60.2051 9.92155 60.1413 10.4206 60.0137 10.8809C59.8861 11.3366 59.6992 11.7331 59.4531 12.0703C59.207 12.4076 58.9062 12.6696 58.5508 12.8564C58.1953 13.0433 57.7874 13.1367 57.3271 13.1367C56.8577 13.1367 56.4453 13.057 56.0898 12.8975C55.7389 12.7334 55.4427 12.4987 55.2012 12.1934C54.9596 11.888 54.766 11.5189 54.6201 11.0859C54.4788 10.653 54.3809 10.1654 54.3262 9.62305V8.99414C54.3809 8.44727 54.4788 7.95736 54.6201 7.52441C54.766 7.09147 54.9596 6.72233 55.2012 6.41699C55.4427 6.1071 55.7389 5.8724 56.0898 5.71289C56.4408 5.54883 56.8486 5.4668 57.3135 5.4668C57.7783 5.4668 58.1908 5.55794 58.5508 5.74023C58.9108 5.91797 59.2116 6.17318 59.4531 6.50586C59.6992 6.83854 59.8861 7.2373 60.0137 7.70215C60.1413 8.16243 60.2051 8.67513 60.2051 9.24023ZM58.9336 9.38379V9.24023C58.9336 8.87109 58.8994 8.52474 58.8311 8.20117C58.7627 7.87305 58.6533 7.58594 58.5029 7.33984C58.3525 7.08919 58.1543 6.89323 57.9082 6.75195C57.6621 6.60612 57.359 6.5332 56.999 6.5332C56.68 6.5332 56.402 6.58789 56.165 6.69727C55.9326 6.80664 55.7344 6.95475 55.5703 7.1416C55.4062 7.32389 55.2718 7.53353 55.167 7.77051C55.0667 8.00293 54.9915 8.24447 54.9414 8.49512V10.1426C55.0143 10.4616 55.1328 10.7692 55.2969 11.0654C55.4655 11.3571 55.6888 11.5964 55.9668 11.7832C56.2493 11.9701 56.598 12.0635 57.0127 12.0635C57.3545 12.0635 57.6462 11.9951 57.8877 11.8584C58.1338 11.7171 58.332 11.5234 58.4824 11.2773C58.6374 11.0312 58.7513 10.7464 58.8242 10.4229C58.8971 10.0993 58.9336 9.75293 58.9336 9.38379ZM64.874 13.1367C64.359 13.1367 63.8919 13.0501 63.4727 12.877C63.0579 12.6992 62.7002 12.4508 62.3994 12.1318C62.1032 11.8128 61.8753 11.4346 61.7158 10.9971C61.5563 10.5596 61.4766 10.0811 61.4766 9.56152V9.27441C61.4766 8.67285 61.5654 8.13737 61.7432 7.66797C61.9209 7.19401 62.1624 6.79297 62.4678 6.46484C62.7731 6.13672 63.1195 5.88835 63.5068 5.71973C63.8942 5.55111 64.2952 5.4668 64.71 5.4668C65.2386 5.4668 65.6943 5.55794 66.0771 5.74023C66.4645 5.92253 66.7812 6.17773 67.0273 6.50586C67.2734 6.82943 67.4557 7.21224 67.5742 7.6543C67.6927 8.0918 67.752 8.57031 67.752 9.08984V9.65723H62.2285V8.625H66.4873V8.5293C66.4691 8.20117 66.4007 7.88216 66.2822 7.57227C66.1683 7.26237 65.986 7.00716 65.7354 6.80664C65.4847 6.60612 65.1429 6.50586 64.71 6.50586C64.4229 6.50586 64.1585 6.56738 63.917 6.69043C63.6755 6.80892 63.4681 6.98665 63.2949 7.22363C63.1217 7.46061 62.9873 7.75 62.8916 8.0918C62.7959 8.43359 62.748 8.8278 62.748 9.27441V9.56152C62.748 9.91243 62.7959 10.2428 62.8916 10.5527C62.9919 10.8581 63.1354 11.127 63.3223 11.3594C63.5137 11.5918 63.7438 11.7741 64.0127 11.9062C64.2861 12.0384 64.596 12.1045 64.9424 12.1045C65.389 12.1045 65.7673 12.0133 66.0771 11.8311C66.387 11.6488 66.6582 11.4049 66.8906 11.0996L67.6562 11.708C67.4967 11.9495 67.2939 12.1797 67.0479 12.3984C66.8018 12.6172 66.4987 12.7949 66.1387 12.9316C65.7832 13.0684 65.3617 13.1367 64.874 13.1367Z" fill="#80FFAC"/>
<path d="M27.7087 31.6458C29.0239 30.5068 30.9761 30.5068 32.2913 31.6458L47.5431 44.8542C49.9928 46.9757 48.4925 51 45.2519 51H14.7481C11.5075 51 10.0072 46.9757 12.4569 44.8542L27.7087 31.6458Z" stroke="#80FFAC"/>
<line x1="30" y1="30.5" x2="30" y2="24.5" stroke="#80FFAC" stroke-linecap="round"/>
<path d="M21 24.5H39" stroke="#80FFAC" stroke-linecap="round"/>
<path d="M36.7087 31.6458C38.0239 30.5068 39.9761 30.5068 41.2913 31.6458L56.5431 44.8542C58.9928 46.9757 57.4925 51 54.2519 51H23.7481C20.5075 51 19.0072 46.9757 21.4569 44.8542L36.7087 31.6458Z" stroke="#80FFAC"/>
<line x1="39" y1="30.5" x2="39" y2="24.5" stroke="#80FFAC" stroke-linecap="round"/>
<path d="M30 24.5H48" stroke="#80FFAC" stroke-linecap="round"/>
<path d="M45.7087 31.6458C47.0239 30.5068 48.9761 30.5068 50.2913 31.6458L65.5431 44.8542C67.9928 46.9757 66.4925 51 63.2519 51H32.7481C29.5075 51 28.0072 46.9757 30.4569 44.8542L45.7087 31.6458Z" stroke="#80FFAC"/>
<line x1="48" y1="30.5" x2="48" y2="24.5" stroke="#80FFAC" stroke-linecap="round"/>
<path d="M39 24.5H57" stroke="#80FFAC" stroke-linecap="round"/>
</svg>
