<!-- icon666.com - MILLIONS vector ICONS FREE --><svg version="1.1" id="Layer_1" xmlns="http://www.w3.org/2000/svg" xmlns:xlink="http://www.w3.org/1999/xlink" x="0px" y="0px" viewBox="0 0 512.001 512.001" style="enable-background:new 0 0 512.001 512.001;" xml:space="preserve"><path style="fill: rgb(255, 168, 1);" d="M311.439,159.349h-1.474c10.079,10.574,15.671,23.816,15.671,37.948 c0,12.21-4.257,23.936-12.125,33.842c0.819,0.245,1.628,0.518,2.435,0.79c10.523-8.774,16.505-21.245,16.505-34.634 C332.452,182.055,324.615,167.989,311.439,159.349z" fill="#FFAA2A"></path><polygon style="" points="282.598,121.062 300.457,121.062 292.408,104.515 276.236,104.515 " fill="#333333"></polygon><path style="fill: rgb(172, 92, 247);" d="M273.353,29.975c-0.215-1.352,0.078-2.734,0.824-3.881l6.223-9.564l-15.097,5.62l-39.021,71.321 h57.193L273.353,29.975z" fill="#412559"></path><g><path style="fill: rgb(255, 168, 1);" d="M221.137,169.985c1.257-3.829,2.768-7.368,4.495-10.637h-6.584 c-13.762,9.362-21.639,23.104-21.639,37.948c0,11.456,4.779,22.462,13.511,31.245c3.178-0.399,11.384-0.626,11.384-0.626 c-3.452-9.023-5.295-19.261-5.364-30.012c-0.02-3.049,2.437-5.537,5.487-5.556h0.035c3.032,0,5.501,2.449,5.52,5.487 c0.066,10.441,2.134,20.594,5.825,28.956c7.087-1.608,14.523-2.474,22.192-2.474c7.665,0,15.099,0.865,22.185,2.473 c3.689-8.36,5.764-18.532,5.83-28.955c0.02-3.038,2.488-5.487,5.52-5.487h0.035c3.05,0.02,5.506,2.508,5.487,5.556 c-0.07,10.738-1.941,20.976-5.399,30.012c0,0,8.241,0.227,11.42,0.626c8.733-8.784,13.513-19.791,13.513-31.245 c0-14.841-7.877-28.586-21.64-37.948h-6.564c1.723,3.264,3.219,6.811,4.475,10.631c0.71,2.174,1.334,4.401,1.856,6.627 c0.696,2.968-1.147,5.94-4.117,6.636c-0.424,0.099-0.848,0.147-1.264,0.147c-2.507,0-4.775-1.717-5.371-4.263 c-0.449-1.919-0.988-3.841-1.598-5.707c-1.753-5.335-4.119-10.143-6.9-14.07h-34.939c-2.781,3.927-5.148,8.735-6.901,14.078 c-0.608,1.857-1.146,3.776-1.597,5.699c-0.596,2.545-2.866,4.263-5.371,4.263c-0.417,0-0.84-0.047-1.263-0.147 c-2.969-0.696-4.811-3.666-4.117-6.636C219.805,174.375,220.429,172.147,221.137,169.985z" fill="#FFAA2A"></path><path style="fill: rgb(255, 168, 1);" d="M342.992,299.065c0,14.848-5.163,29.306-14.665,41.53c2.14,0.703,4.249,1.468,6.312,2.318 c12.75-11.356,20.002-27.164,20.002-43.851c0-26.007-17.48-48.202-41.861-56.556C331.259,256.224,342.992,276.483,342.992,299.065z " fill="#FFAA2A"></path><path style="fill: rgb(255, 168, 1);" d="M316.494,337.555c9.986-11.034,15.454-24.596,15.454-38.489c0-26.131-18.861-48.628-45.76-58.442 c5.197,6.452,9.55,14.629,12.693,24.2c0.878,2.679,1.66,5.466,2.322,8.29c0.698,2.969-1.156,5.888-4.111,6.639 c-3.127,0.795-6.042-1.568-6.639-4.111c-0.592-2.517-1.287-4.999-2.066-7.377c-6.663-20.295-19.074-32.904-32.387-32.904 c-13.317,0-25.727,12.61-32.388,32.908c-0.781,2.382-1.476,4.861-2.065,7.369c-0.697,2.968-3.66,4.818-6.638,4.112 c-2.968-0.697-4.809-3.669-4.112-6.638c0.661-2.814,1.442-5.601,2.322-8.286c3.142-9.572,7.495-17.748,12.692-24.202 c-26.897,9.814-45.758,32.31-45.758,58.441c0,13.892,5.466,27.454,15.451,38.49c5.572-1.041,18.538-1.602,18.538-1.602 c-3.972-10.941-6.099-23.252-6.181-36.124c-0.019-3.05,2.437-5.538,5.486-5.557h0.036c3.032,0,5.502,2.449,5.52,5.486 c0.082,12.909,2.405,25.123,6.744,35.628c9.614-2.489,19.802-3.834,30.351-3.834c10.547,0,20.733,1.344,30.346,3.832 c4.338-10.509,6.664-22.729,6.745-35.625c0.02-3.038,2.488-5.487,5.52-5.487h0.035c3.05,0.02,5.506,2.507,5.487,5.556 c-0.081,12.861-2.207,25.178-6.179,36.125C297.958,335.952,310.923,336.513,316.494,337.555z" fill="#FFAA2A"></path></g><polygon style="" points="236.323,121.062 270.767,121.062 264.405,104.515 242.682,104.515 " fill="#808080"></polygon><g><path style="fill: rgb(255, 168, 1);" d="M196.057,231.93c0.806-0.272,1.612-0.544,2.432-0.79c-7.866-9.907-12.123-21.633-12.123-33.842 c0-14.133,5.589-27.376,15.668-37.948h-1.472c-13.175,8.637-21.01,22.704-21.01,37.946 C179.551,210.688,185.532,223.159,196.057,231.93z" fill="#FFAA2A"></path><path style="fill: rgb(255, 168, 1);" d="M318.544,349.271c25.866,16.454,42.664,42.828,42.664,72.505c0,29.675-16.795,56.048-42.658,72.501 c34.08-8.192,59.381-37.588,59.381-72.505C377.929,386.856,352.628,357.461,318.544,349.271z" fill="#FFAA2A"></path><path style="fill: rgb(255, 168, 1);" d="M350.165,421.776c0-33.881-25.444-62.849-61.103-74.132c7.557,8.214,13.86,19.293,18.234,32.617 c1.065,3.24,2.011,6.62,2.815,10.047c0.696,2.968-1.13,6.02-4.117,6.636c-3.564,0.734-6.039-1.57-6.636-4.117 c-0.73-3.114-1.59-6.184-2.554-9.12c-8.326-25.359-23.961-41.112-40.803-41.112c-16.844,0-32.479,15.754-40.801,41.113 c-0.966,2.94-1.825,6.009-2.556,9.12c-0.697,2.968-3.663,4.815-6.638,4.112c-2.968-0.697-4.81-3.668-4.112-6.638 c0.803-3.42,1.75-6.797,2.814-10.039c4.373-13.325,10.675-24.405,18.232-32.618c-35.657,11.284-61.1,40.25-61.1,74.131 c0,33.874,25.433,62.836,61.08,74.124c-2.954-3.228-5.737-6.899-8.302-11.023c-10.353-16.653-16.134-38.733-16.282-62.176 c-0.02-3.049,2.437-5.537,5.487-5.556c0.012,0,0.023,0,0.035,0c3.032,0,5.501,2.449,5.52,5.487 c0.271,43.188,21.186,78.326,46.623,78.326c25.434,0,46.35-35.137,46.621-78.326c0.02-3.038,2.488-5.487,5.52-5.487 c0.012,0,0.023,0,0.035,0c3.05,0.02,5.506,2.508,5.487,5.556c-0.148,23.442-5.93,45.523-16.282,62.176 c-2.564,4.125-5.348,7.796-8.302,11.023C324.729,484.613,350.165,455.651,350.165,421.776z" fill="#FFAA2A"></path></g><polygon style="" points="230.852,104.515 214.682,104.515 206.632,121.062 224.492,121.062 " fill="#333333"></polygon><path style="fill: rgb(255, 168, 1);" d="M150.797,421.776c0-29.678,16.798-56.052,42.665-72.505c-34.084,8.187-59.388,37.584-59.388,72.501 c0,34.918,25.301,64.316,59.383,72.506C167.592,477.825,150.797,451.451,150.797,421.776z" fill="#FFAA2A"></path><path style="fill: rgb(172, 92, 247);" d="M340.405,140.207c0-4.468-3.634-8.102-8.101-8.102H174.785c-4.468,0-8.102,3.634-8.102,8.102 c0,4.467,3.634,8.1,8.102,8.1h157.519C336.771,148.306,340.405,144.673,340.405,140.207z" fill="#412559"></path><path style="fill: rgb(255, 168, 1);" d="M177.363,342.913c2.064-0.85,4.175-1.616,6.317-2.319c-9.504-12.222-14.667-26.68-14.667-41.528 c0-22.582,11.731-42.843,30.213-56.559c-24.382,8.352-41.863,30.548-41.863,56.556C157.362,315.751,164.612,331.557,177.363,342.913 z" fill="#FFAA2A"></path><path d="M345.187,348.081c13.096-13.165,20.496-30.617,20.496-49.019c0-26.851-15.62-50.269-38.614-62.379 c10.518-10.559,16.425-24.497,16.425-39.387c0-14.241-5.462-27.626-15.056-37.946h3.865c10.557,0,19.144-8.587,19.144-19.143 c0-10.557-8.587-19.145-19.144-19.145h-19.566l-11.911-24.483c-0.924-1.901-2.852-3.106-4.965-3.106h-1.205l-10.065-63.136 l14.187-21.803c1.299-1.998,1.172-4.603-0.318-6.462c-1.489-1.86-4.004-2.552-6.237-1.724l-32.703,12.173 c-1.245,0.463-2.281,1.359-2.919,2.524l-42.909,78.428h-2.466c-2.113,0-4.041,1.206-4.965,3.106l-11.911,24.483h-19.566 c-10.556,0-19.145,8.588-19.145,19.145c0,10.556,8.588,19.143,19.145,19.143h8.76c-9.588,10.32-15.037,23.708-15.037,37.946 c0,14.89,5.907,28.83,16.425,39.386c-22.994,12.11-38.615,35.529-38.615,62.38c0,18.402,7.39,35.859,20.487,49.023 c-26.195,15.001-43.777,42.412-43.777,73.688c0,47.324,40.233,85.826,89.686,85.826h10.818c10.232,2.854,21.142,4.403,32.469,4.403 c11.327,0,22.238-1.549,32.469-4.403h10.817c49.453,0,89.686-38.501,89.686-85.826C388.973,390.493,371.387,363.079,345.187,348.081 z M354.64,299.062c0,16.687-7.252,32.495-20.002,43.851c-2.063-0.85-4.172-1.615-6.312-2.318 c9.503-12.224,14.665-26.681,14.665-41.53c0-22.582-11.731-42.841-30.212-56.559C337.16,250.86,354.64,273.054,354.64,299.062z M298.649,294.271h-0.035c-3.032,0-5.501,2.449-5.52,5.487c-0.081,12.896-2.408,25.116-6.745,35.625 c-9.613-2.488-19.8-3.832-30.346-3.832c-10.549,0-20.737,1.345-30.351,3.834c-4.339-10.505-6.661-22.718-6.744-35.628 c-0.019-3.037-2.488-5.486-5.52-5.486h-0.036c-3.049,0.02-5.505,2.508-5.486,5.557c0.081,12.872,2.209,25.182,6.181,36.124 c0,0-12.966,0.561-18.538,1.602c-9.985-11.035-15.451-24.598-15.451-38.49c0-26.131,18.86-48.627,45.758-58.441 c-5.197,6.454-9.55,14.63-12.692,24.202c-0.88,2.685-1.661,5.472-2.322,8.286c-0.698,2.968,1.143,5.941,4.112,6.638 c2.977,0.707,5.941-1.144,6.638-4.112c0.589-2.507,1.284-4.987,2.065-7.369c6.661-20.298,19.071-32.908,32.388-32.908 c13.313,0,25.724,12.609,32.387,32.904c0.78,2.376,1.474,4.859,2.066,7.377c0.597,2.543,3.512,4.905,6.639,4.111 c2.955-0.751,4.808-3.67,4.111-6.639c-0.663-2.824-1.446-5.611-2.322-8.29c-3.143-9.571-7.496-17.747-12.693-24.2 c26.897,9.814,45.76,32.311,45.76,58.442c0,13.892-5.467,27.454-15.454,38.489c-5.572-1.04-18.536-1.601-18.536-1.601 c3.971-10.947,6.097-23.264,6.179-36.125C304.157,296.778,301.699,294.291,298.649,294.271z M223.399,183.243 c0.424,0.099,0.847,0.147,1.263,0.147c2.507,0,4.775-1.718,5.371-4.263c0.451-1.924,0.989-3.843,1.597-5.699 c1.753-5.343,4.12-10.151,6.901-14.078h34.939c2.781,3.928,5.147,8.735,6.9,14.07c0.611,1.866,1.148,3.788,1.598,5.707 c0.596,2.547,2.866,4.263,5.371,4.263c0.416,0,0.84-0.047,1.264-0.147c2.969-0.696,4.811-3.666,4.117-6.636 c-0.522-2.226-1.145-4.453-1.856-6.627c-1.256-3.82-2.752-7.367-4.475-10.631h6.564c13.763,9.363,21.64,23.108,21.64,37.948 c0,11.454-4.781,22.462-13.513,31.245c-3.178-0.399-11.42-0.626-11.42-0.626c3.458-9.035,5.329-19.273,5.399-30.012 c0.02-3.049-2.437-5.537-5.487-5.556h-0.035c-3.032,0-5.501,2.449-5.52,5.487c-0.066,10.422-2.141,20.594-5.83,28.955 c-7.086-1.608-14.519-2.473-22.185-2.473c-7.668,0-15.105,0.866-22.192,2.474c-3.692-8.361-5.759-18.515-5.825-28.956 c-0.02-3.038-2.488-5.487-5.52-5.487h-0.035c-3.05,0.02-5.506,2.508-5.487,5.556c0.068,10.749,1.91,20.988,5.364,30.012 c0,0-8.206,0.227-11.384,0.626c-8.732-8.784-13.511-19.789-13.511-31.245c0-14.844,7.877-28.587,21.639-37.948h6.584 c-1.726,3.269-3.239,6.808-4.495,10.637c-0.708,2.161-1.332,4.39-1.855,6.621C218.586,179.576,220.429,182.547,223.399,183.243z M332.452,197.296c0,13.39-5.982,25.861-16.505,34.634c-0.808-0.272-1.616-0.544-2.435-0.79 c7.868-9.908,12.125-21.633,12.125-33.842c0-14.132-5.592-27.375-15.671-37.948h1.474 C324.615,167.989,332.452,182.055,332.452,197.296z M292.408,104.515l8.049,16.546h-17.859l-6.362-16.546H292.408z M265.303,22.15 l15.097-5.62l-6.223,9.564c-0.745,1.146-1.039,2.529-0.824,3.881l10.122,63.496h-57.193L265.303,22.15z M270.767,121.062h-34.444 l6.36-16.546h21.724L270.767,121.062z M214.682,104.515h16.17l-6.36,16.546h-17.86L214.682,104.515z M174.785,148.306 c-4.468,0-8.102-3.633-8.102-8.1c0-4.468,3.634-8.102,8.102-8.102h157.519c4.467,0,8.101,3.634,8.101,8.102 c0,4.467-3.634,8.1-8.101,8.1H174.785z M179.551,197.296c0-15.243,7.836-29.309,21.01-37.946h1.472 c-10.079,10.573-15.668,23.815-15.668,37.948c0,12.21,4.257,23.937,12.123,33.842c-0.819,0.245-1.626,0.518-2.432,0.79 C185.532,223.159,179.551,210.688,179.551,197.296z M157.362,299.062c0-26.007,17.481-48.203,41.863-56.556 c-18.482,13.717-30.213,33.977-30.213,56.559c0,14.848,5.164,29.306,14.667,41.528c-2.14,0.703-4.253,1.469-6.317,2.319 C164.612,331.557,157.362,315.751,157.362,299.062z M134.072,421.772c0-34.917,25.304-64.313,59.388-72.501 c-25.867,16.454-42.665,42.827-42.665,72.505c0,29.675,16.795,56.049,42.659,72.502C159.373,486.089,134.072,456.69,134.072,421.772 z M289.082,495.901c2.954-3.228,5.737-6.899,8.302-11.023c10.352-16.653,16.134-38.733,16.282-62.176 c0.02-3.049-2.437-5.537-5.487-5.556c-0.012,0-0.024,0-0.035,0c-3.032,0-5.501,2.449-5.52,5.487 c-0.272,43.188-21.187,78.326-46.621,78.326c-25.437,0-46.352-35.137-46.623-78.326c-0.02-3.038-2.488-5.487-5.52-5.487 c-0.012,0-0.023,0-0.035,0c-3.05,0.02-5.506,2.508-5.487,5.556c0.148,23.442,5.929,45.523,16.282,62.176 c2.564,4.125,5.348,7.796,8.302,11.023c-35.647-11.288-61.08-40.25-61.08-74.124c0-33.881,25.443-62.847,61.1-74.131 c-7.557,8.214-13.859,19.293-18.232,32.618c-1.063,3.241-2.01,6.619-2.814,10.039c-0.698,2.969,1.144,5.941,4.112,6.638 c2.974,0.703,5.941-1.143,6.638-4.112c0.731-3.111,1.59-6.181,2.556-9.12c8.322-25.36,23.957-41.113,40.801-41.113 c16.842,0,32.476,15.754,40.803,41.112c0.964,2.936,1.823,6.006,2.554,9.12c0.596,2.547,3.072,4.851,6.636,4.117 c2.987-0.616,4.811-3.666,4.117-6.636c-0.804-3.427-1.75-6.807-2.815-10.047c-4.374-13.323-10.678-24.404-18.234-32.617 c35.659,11.283,61.103,40.251,61.103,74.132C350.165,455.651,324.729,484.613,289.082,495.901z M318.55,494.277 c25.863-16.453,42.658-42.826,42.658-72.501c0-29.677-16.798-56.051-42.664-72.505c34.083,8.189,59.385,37.585,59.385,72.501 C377.929,456.689,352.63,486.085,318.55,494.277z" fill="#000000"></path></svg>