<svg width="60" height="60" viewBox="0 0 60 60" fill="none" xmlns="http://www.w3.org/2000/svg">
<g id="&#208;&#184;&#208;&#186;&#208;&#190;&#208;&#189;&#208;&#186;&#208;&#176; 2">
<rect id="Rectangle 10" width="60" height="60" rx="10" fill="#FF7F7F"/>
<path id="Vector" fill-rule="evenodd" clip-rule="evenodd" d="M34.0533 12C34.7996 12.0002 35.5268 12.2381 36.1321 12.6801C36.7374 13.122 37.19 13.7456 37.4258 14.4624L38.3911 17.4H44.2222C44.6937 17.4 45.1459 17.5896 45.4793 17.9272C45.8127 18.2648 46 18.7226 46 19.2C46 19.6774 45.8127 20.1352 45.4793 20.4728C45.1459 20.8104 44.6937 21 44.2222 21L44.2169 21.1278L42.6756 42.9852C42.5794 44.3471 41.9772 45.6215 40.9903 46.552C40.0034 47.4825 38.705 47.9998 37.3564 48H22.6436C21.295 47.9998 19.9966 47.4825 19.0097 46.552C18.0228 45.6215 17.4206 44.3471 17.3244 42.9852L15.7831 21.126C15.7799 21.0841 15.7781 21.042 15.7778 21C15.3063 21 14.8541 20.8104 14.5207 20.4728C14.1873 20.1352 14 19.6774 14 19.2C14 18.7226 14.1873 18.2648 14.5207 17.9272C14.8541 17.5896 15.3063 17.4 15.7778 17.4H21.6089L22.5742 14.4624C22.8101 13.7453 23.263 13.1215 23.8686 12.6795C24.4742 12.2376 25.2019 11.9998 25.9484 12H34.0533ZM24.6667 26.4C24.2312 26.4001 23.811 26.5619 23.4856 26.8549C23.1602 27.1479 22.9523 27.5515 22.9013 27.9894L22.8889 28.2V39C22.8894 39.4588 23.0629 39.9001 23.374 40.2337C23.685 40.5673 24.1101 40.768 24.5625 40.7949C25.0148 40.8218 25.4602 40.6728 25.8077 40.3783C26.1552 40.0839 26.3785 39.6662 26.432 39.2106L26.4444 39V28.2C26.4444 27.7226 26.2571 27.2648 25.9237 26.9272C25.5903 26.5896 25.1382 26.4 24.6667 26.4ZM35.3333 26.4C34.8618 26.4 34.4097 26.5896 34.0763 26.9272C33.7429 27.2648 33.5556 27.7226 33.5556 28.2V39C33.5556 39.4774 33.7429 39.9352 34.0763 40.2728C34.4097 40.6104 34.8618 40.8 35.3333 40.8C35.8048 40.8 36.257 40.6104 36.5904 40.2728C36.9238 39.9352 37.1111 39.4774 37.1111 39V28.2C37.1111 27.7226 36.9238 27.2648 36.5904 26.9272C36.257 26.5896 35.8048 26.4 35.3333 26.4ZM34.0533 15.6H25.9467L25.3547 17.4H34.6453L34.0533 15.6Z" fill="white"/>
</g>
</svg>
