<svg width="50" height="49" viewBox="0 0 50 49" fill="none" xmlns="http://www.w3.org/2000/svg">
<path id="Vector" d="M2 47H48M6.071 21.0846L2 17L6.6 6.61538L9.13 7.88462C10.395 8.53077 11.2 9.82308 11.2 11.2308C11.2 12.6385 12.005 13.9308 13.27 14.5769L15.8 15.8462L22.7 2L25.115 3.22308C25.7862 3.55848 26.3654 4.0534 26.8024 4.66475C27.2393 5.27611 27.5207 5.98537 27.622 6.73077L29.278 19.1923C29.3793 19.9377 29.6607 20.647 30.0976 21.2583C30.5346 21.8697 31.1138 22.3646 31.785 22.7L41.905 27.7769C42.871 28.2846 43.699 29.0462 44.228 29.9923L45.608 32.3692C46.735 34.4 45.47 36.9385 43.17 37.2154L40.456 37.5615C39.375 37.7 38.271 37.5154 37.305 37.0077L7.267 21.9615C6.82373 21.736 6.41983 21.4398 6.071 21.0846Z" stroke="#627FE6" stroke-width="3" stroke-linecap="round" stroke-linejoin="round"/>
</svg>
