<svg width="50" height="42" viewBox="0 0 50 42" fill="none" xmlns="http://www.w3.org/2000/svg">
<path id="Vector" d="M2 40H47.9417M12.0153 29.5049L6.59417 28.5923L2 19.4661L4.52679 18.2113C5.16804 17.8903 5.87611 17.7231 6.59417 17.7231C7.31223 17.7231 8.02029 17.8903 8.66154 18.2113L9.05205 18.4394C9.6933 18.7604 10.4014 18.9275 11.1194 18.9275C11.8375 18.9275 12.5455 18.7604 13.1868 18.4394L15.7825 17.1846L8.89125 3.49532L10.9586 2.46862C11.7228 2.09524 12.5764 1.94018 13.4242 2.02075C14.272 2.10133 15.0805 2.41437 15.7595 2.92493L24.9938 9.76956C25.6752 10.2845 26.4879 10.6001 27.3403 10.6808C28.1926 10.7614 29.0507 10.6038 29.8177 10.2259L39.4425 5.52589C40.6724 4.91008 42.0893 4.77179 43.4164 5.13803L45.6446 5.77686C46.105 5.90384 46.5311 6.13112 46.8919 6.44217C47.2528 6.75321 47.5393 7.14022 47.7307 7.57504C47.9221 8.00987 48.0135 8.48159 47.9984 8.95591C47.9832 9.43023 47.8618 9.89524 47.6431 10.3171L46.7702 12.0511C46.2418 13.1006 45.3919 13.9676 44.3123 14.5152L14.8177 29.0486C13.9505 29.4753 12.9697 29.619 12.0153 29.4593V29.5049Z" stroke="#627FE6" stroke-width="3" stroke-linecap="round" stroke-linejoin="round"/>
</svg>
