<svg xmlns="http://www.w3.org/2000/svg">
    <symbol id="editIcon" viewBox="0 0 24 24" fill="none">
        <path d="M21.2799 6.40005L11.7399 15.94C10.7899 16.89 7.96987 17.33 7.33987 16.7C6.70987 16.07 7.13987 13.25 8.08987 12.3L17.6399 2.75002C17.8754 2.49308 18.1605 2.28654 18.4781 2.14284C18.7956 1.99914 19.139 1.92124 19.4875 1.9139C19.8359 1.90657 20.1823 1.96991 20.5056 2.10012C20.8289 2.23033 21.1225 2.42473 21.3686 2.67153C21.6147 2.91833 21.8083 3.21243 21.9376 3.53609C22.0669 3.85976 22.1294 4.20626 22.1211 4.55471C22.1128 4.90316 22.0339 5.24635 21.8894 5.5635C21.7448 5.88065 21.5375 6.16524 21.2799 6.40005V6.40005Z"  stroke-width="1.5" stroke-linecap="round" stroke-linejoin="round"/>
        <path d="M11 4H6C4.93913 4 3.92178 4.42142 3.17163 5.17157C2.42149 5.92172 2 6.93913 2 8V18C2 19.0609 2.42149 20.0783 3.17163 20.8284C3.92178 21.5786 4.93913 22 6 22H17C19.21 22 20 20.2 20 18V13" stroke-width="1.5" stroke-linecap="round" stroke-linejoin="round"/>
    </symbol>

    <symbol id="addIcon" viewBox="0 0 24 24" fill="#FFFFFF">
        <path d="M11 8C11 7.44772 11.4477 7 12 7C12.5523 7 13 7.44772 13 8V11H16C16.5523 11 17 11.4477 17 12C17 12.5523 16.5523 13 16 13H13V16C13 16.5523 12.5523 17 12 17C11.4477 17 11 16.5523 11 16V13H8C7.44771 13 7 12.5523 7 12C7 11.4477 7.44772 11 8 11H11V8Z" stroke-width="0.5"/>
        <path fill-rule="evenodd" clip-rule="evenodd" d="M23 12C23 18.0751 18.0751 23 12 23C5.92487 23 1 18.0751 1 12C1 5.92487 5.92487 1 12 1C18.0751 1 23 5.92487 23 12ZM3.00683 12C3.00683 16.9668 7.03321 20.9932 12 20.9932C16.9668 20.9932 20.9932 16.9668 20.9932 12C20.9932 7.03321 16.9668 3.00683 12 3.00683C7.03321 3.00683 3.00683 7.03321 3.00683 12Z" stroke-width="0.5"/>
    </symbol>

    <symbol id="favoriteIcon" viewBox="0 0 611.997 611.997">
    	<g>
		<path d="M549.255,384.017h-50.692v-50.694c0-21.132-17.134-38.264-38.262-38.264c-21.138,0-38.266,17.132-38.266,38.264v50.694
			h-50.697c-21.13,0-38.262,17.132-38.262,38.264c0,21.134,17.134,38.264,38.262,38.264h50.697v50.697
			c0,21.13,17.13,38.264,38.266,38.264c21.13,0,38.262-17.134,38.262-38.264v-50.697h50.692c21.138,0,38.262-17.13,38.262-38.264
			C587.519,401.151,570.394,384.017,549.255,384.017z"/>
		<path d="M383.77,498.809h-12.432c-42.198,0-76.526-34.33-76.526-76.528s34.328-76.528,76.526-76.528h12.432v-12.43
			c0-42.198,34.33-76.528,76.53-76.528c42.198,0,76.526,34.33,76.526,76.528v12.43h12.428c5.073,0,10.028,0.508,14.827,1.454
			c66.899-77.109,63.762-194.319-9.515-267.606c-37.102-37.1-86.429-57.533-138.896-57.533c-39.544,0-77.476,11.685-109.659,33.39
			c-32.185-21.705-70.117-33.39-109.659-33.39c-52.464,0-101.791,20.433-138.896,57.535
			c-76.609,76.617-76.609,201.284,0.002,277.904l215.831,215.829c2.226,2.222,4.583,4.463,7.009,6.664
			c7.293,6.619,16.501,9.93,25.716,9.93c9.198,0,18.396-3.301,25.684-9.903c2.448-2.216,4.826-4.477,7.069-6.72l46.584-46.582
			c-1.033-5.002-1.577-10.181-1.577-15.482v-12.432H383.77z"/>
	    </g>
    </symbol>

    <symbol id="deleteIcon" viewBox="0 0 24 24">
        <path d="M10 12V17" stroke-width="2" stroke-linecap="round" stroke-linejoin="round"/>
        <path d="M14 12V17" stroke-width="2" stroke-linecap="round" stroke-linejoin="round"/>
        <path d="M4 7H20" stroke-width="2" stroke-linecap="round" stroke-linejoin="round"/>
        <path d="M6 10V18C6 19.6569 7.34315 21 9 21H15C16.6569 21 18 19.6569 18 18V10" stroke-width="2" stroke-linecap="round" stroke-linejoin="round"/>
        <path d="M9 5C9 3.89543 9.89543 3 11 3H13C14.1046 3 15 3.89543 15 5V7H9V5Z" stroke-width="2" stroke-linecap="round" stroke-linejoin="round"/>
    </symbol>

    <symbol id="searchIcon" viewBox="0 0 24 24" fill="none">
        <path d="M15.7955 15.8111L21 21M18 10.5C18 14.6421 14.6421 18 10.5 18C6.35786 18 3 14.6421 3 10.5C3 6.35786 6.35786 3 10.5 3C14.6421 3 18 6.35786 18 10.5Z" stroke-width="2" stroke-linecap="round" stroke-linejoin="round"/>
    </symbol>
</svg>
