<svg width="31" height="30" viewBox="0 0 31 30" fill="none" xmlns="http://www.w3.org/2000/svg">
<path fill-rule="evenodd" clip-rule="evenodd" d="M9.25 3.4375C7.23129 3.4375 5.40581 3.94204 4.08082 5.17237C2.74327 6.4144 2.0625 8.25881 2.0625 10.625V19.375C2.0625 21.7412 2.74327 23.5856 4.08082 24.8276C5.40581 26.058 7.23129 26.5625 9.25 26.5625H21.75C23.7687 26.5625 25.5942 26.058 26.9191 24.8276C28.2567 23.5856 28.9375 21.7412 28.9375 19.375V10.625C28.9375 8.25881 28.2567 6.4144 26.9191 5.17237C25.5942 3.94204 23.7687 3.4375 21.75 3.4375H9.25ZM24.5356 10.4529C24.9452 10.1363 25.0207 9.54752 24.7041 9.13782C24.3876 8.72811 23.7989 8.65262 23.3891 8.96921L16.4552 14.327C15.8926 14.7619 15.1072 14.7619 14.5445 14.327L7.61075 8.96921C7.20104 8.65262 6.61227 8.72811 6.29569 9.13782C5.9791 9.54752 6.05459 10.1363 6.4643 10.4529L13.3981 15.8107C14.6361 16.7672 16.3637 16.7672 17.6017 15.8107L24.5356 10.4529Z" fill="#1DFF9E"/>
</svg>
