<svg width="24" height="24" viewBox="0 0 28 24" fill="none" xmlns="http://www.w3.org/2000/svg">
<g clip-path="url(#clip0_30_105)">
<path d="M0.533943 11.9766C0.533943 12.8203 1.23579 13.4813 2.03121 13.4813H3.52848L3.49572 20.9906C3.49572 21.1172 3.50508 21.2437 3.51912 21.3703V22.125C3.51912 23.1609 4.35665 24 5.3907 24H6.13934C6.19081 24 6.24228 24 6.29374 23.9953C6.35925 24 6.42476 24 6.49026 24H8.01092H9.13387C10.1679 24 11.0055 23.1609 11.0055 22.125V21V18C11.0055 17.1703 11.6745 16.5 12.5027 16.5H15.4973C16.3254 16.5 16.9945 17.1703 16.9945 18V21V22.125C16.9945 23.1609 17.8321 24 18.8661 24H19.9891H21.4817C21.5518 24 21.622 23.9953 21.6922 23.9906C21.7484 23.9953 21.8045 24 21.8606 24H22.6093C23.6433 24 24.4809 23.1609 24.4809 22.125V16.875C24.4809 16.8328 24.4809 16.7859 24.4762 16.7438V13.4813H25.9781C26.8203 13.4813 27.4754 12.825 27.4754 11.9766C27.4754 11.5547 27.335 11.1797 27.0075 10.8516L15.0106 0.375C14.6831 0.046875 14.3088 0 13.9813 0C13.6538 0 13.2794 0.09375 12.9987 0.328125L1.04863 10.8516C0.674311 11.1797 0.487152 11.5547 0.533943 11.9766Z" fill="white" fill-opacity="0.87"/>
</g>
<defs>
<clipPath id="clip0_30_105">
<rect width="26.9508" height="24" fill="white" transform="matrix(-1 0 0 1 27.4754 0)"/>
</clipPath>
</defs>
</svg>
