<svg width="22" height="24" viewBox="0 0 22 24" fill="none" xmlns="http://www.w3.org/2000/svg">
<g clip-path="url(#clip0_30_125)">
<path d="M5 0C2.51562 0 0.5 2.01562 0.5 4.5V19.5C0.5 21.9844 2.51562 24 5 24H18.5H20C20.8297 24 21.5 23.3297 21.5 22.5C21.5 21.6703 20.8297 21 20 21V18C20.8297 18 21.5 17.3297 21.5 16.5V1.5C21.5 0.670312 20.8297 0 20 0H18.5H5ZM5 18H17V21H5C4.17031 21 3.5 20.3297 3.5 19.5C3.5 18.6703 4.17031 18 5 18ZM6.5 6.75C6.5 6.3375 6.8375 6 7.25 6H16.25C16.6625 6 17 6.3375 17 6.75C17 7.1625 16.6625 7.5 16.25 7.5H7.25C6.8375 7.5 6.5 7.1625 6.5 6.75ZM7.25 9H16.25C16.6625 9 17 9.3375 17 9.75C17 10.1625 16.6625 10.5 16.25 10.5H7.25C6.8375 10.5 6.5 10.1625 6.5 9.75C6.5 9.3375 6.8375 9 7.25 9Z" fill="white" fill-opacity="0.65"/>
</g>
<defs>
<clipPath id="clip0_30_125">
<rect width="21" height="24" fill="white" transform="translate(0.5)"/>
</clipPath>
</defs>
</svg>
