<svg width="24" height="24" viewBox="0 0 24 24" fill="none" xmlns="http://www.w3.org/2000/svg">
<g opacity="0.5">
<path d="M9.32892 -0.000976562C4.17718 -0.000976562 0 4.1762 0 9.32798C0 14.4798 4.17718 18.6569 9.32896 18.6569C11.31 18.6569 13.1472 18.039 14.6574 16.9865L14.6585 16.9854L21.5773 23.9042C21.7057 24.0326 21.9099 24.0359 22.0416 23.9042L23.9063 22.0395C24.0347 21.9111 24.0281 21.6982 23.9052 21.5753L16.9874 14.6576C18.04 13.1463 18.6579 11.309 18.6579 9.32798C18.6579 4.1762 14.4807 -0.000976562 9.32892 -0.000976562ZM9.32892 16.4619C5.3888 16.4619 2.19502 13.2681 2.19502 9.32798C2.19502 5.38786 5.38884 2.19408 9.32892 2.19408C13.269 2.19408 16.4628 5.38786 16.4628 9.32798C16.4628 13.2681 13.269 16.4619 9.32892 16.4619Z" fill="#292929"/>
</g>
</svg>
