<svg width="45" height="44" viewBox="0 0 45 44" fill="none" xmlns="http://www.w3.org/2000/svg">
<rect x="2.18896" y="1.5" width="41" height="41" rx="1.5" stroke="black" stroke-width="3"/>
<path d="M13.8888 20.6799C13.1598 20.6799 12.5688 21.2709 12.5688 21.9999C12.5688 22.7289 13.1598 23.3199 13.8888 23.3199V20.6799ZM22.6888 23.3199C23.4178 23.3199 24.0088 22.7289 24.0088 21.9999C24.0088 21.2709 23.4178 20.6799 22.6888 20.6799V23.3199ZM22.6888 20.6799C21.9599 20.6799 21.3688 21.2709 21.3688 21.9999C21.3688 22.7289 21.9599 23.3199 22.6888 23.3199V20.6799ZM31.4888 23.3199C32.2178 23.3199 32.8088 22.7289 32.8088 21.9999C32.8088 21.2709 32.2178 20.6799 31.4888 20.6799V23.3199ZM24.0088 21.9999C24.0088 21.2709 23.4178 20.6799 22.6888 20.6799C21.9599 20.6799 21.3688 21.2709 21.3688 21.9999H24.0088ZM21.3688 30.7999C21.3688 31.5289 21.9599 32.1199 22.6888 32.1199C23.4178 32.1199 24.0088 31.5289 24.0088 30.7999H21.3688ZM21.3688 21.9999C21.3688 22.7289 21.9599 23.3199 22.6888 23.3199C23.4178 23.3199 24.0088 22.7289 24.0088 21.9999H21.3688ZM24.0088 13.1999C24.0088 12.4709 23.4178 11.8799 22.6888 11.8799C21.9599 11.8799 21.3688 12.4709 21.3688 13.1999H24.0088ZM13.8888 23.3199H22.6888V20.6799H13.8888V23.3199ZM22.6888 23.3199H31.4888V20.6799H22.6888V23.3199ZM22.6888 21.9999H21.3688V22.0016C21.3688 22.0018 21.3688 22.0038 21.3688 22.0038C21.3688 22.0036 21.3688 22.0039 21.3688 22.0038C21.3688 22.0038 21.3688 22.0057 21.3688 22.0059C21.3688 22.0057 21.3688 22.006 21.3688 22.0059C21.3688 22.006 21.3688 22.0075 21.3688 22.0076C21.3688 22.0078 21.3688 22.0094 21.3688 22.0096C21.3688 22.0097 21.3688 22.0111 21.3688 22.0113C21.3688 22.0115 21.3688 22.0131 21.3688 22.0134C21.3688 22.0136 21.3688 22.0152 21.3688 22.0155C21.3688 22.0157 21.3688 22.0177 21.3688 22.0178C21.3688 22.0175 21.3688 22.0182 21.3688 22.0178C21.3688 22.0182 21.3688 22.0192 21.3688 22.0196C21.3688 22.0192 21.3688 22.0199 21.3688 22.0196C21.3688 22.0199 21.3688 22.0212 21.3688 22.0214C21.3688 22.021 21.3688 22.0217 21.3688 22.0214C21.3688 22.0217 21.3688 22.0229 21.3688 22.0233C21.3688 22.0229 21.3688 22.0236 21.3688 22.0233C21.3688 22.0236 21.3688 22.0251 21.3688 22.0254C21.3688 22.0251 21.3688 22.0258 21.3688 22.0254C21.3688 22.0258 21.3688 22.0272 21.3688 22.0275C21.3688 22.027 21.3688 22.0279 21.3688 22.0275C21.3688 22.0279 21.3688 22.0295 21.3688 22.0298C21.3688 22.0295 21.3688 22.0302 21.3688 22.0298C21.3688 22.0302 21.3688 22.0317 21.3688 22.0323C21.3688 22.0317 21.3688 22.0326 21.3688 22.0323C21.3688 22.0326 21.3688 22.0344 21.3688 22.0347C21.3688 22.0344 21.3688 22.0351 21.3688 22.0347C21.3688 22.0353 21.3688 22.0368 21.3688 22.0374C21.3688 22.0368 21.3688 22.0379 21.3688 22.0374C21.3688 22.0377 21.3688 22.0397 21.3688 22.0402C21.3688 22.0397 21.3688 22.0405 21.3688 22.0402C21.3688 22.0407 21.3688 22.0425 21.3688 22.043C21.3688 22.0425 21.3688 22.0435 21.3688 22.043C21.3688 22.0435 21.3688 22.0456 21.3688 22.0462C21.3688 22.0456 21.3688 22.0467 21.3688 22.0462C21.3688 22.0467 21.3688 22.0488 21.3688 22.0493C21.3688 22.0488 21.3688 22.0499 21.3688 22.0493C21.3688 22.0499 21.3688 22.052 21.3688 22.0527C21.3688 22.0522 21.3688 22.0532 21.3688 22.0527C21.3688 22.0534 21.3688 22.0555 21.3688 22.056C21.3688 22.0567 21.3688 22.0573 21.3688 22.058C21.3688 22.0585 21.3688 22.059 21.3688 22.0597C21.3688 22.0604 21.3688 22.061 21.3688 22.0617C21.3688 22.0622 21.3688 22.0629 21.3688 22.0634C21.3688 22.0641 21.3688 22.0648 21.3688 22.0655C21.3688 22.0661 21.3688 22.0668 21.3688 22.0675C21.3688 22.0682 21.3688 22.0687 21.3688 22.0694C21.3688 22.0701 21.3688 22.0708 21.3688 22.0715C21.3688 22.0722 21.3688 22.0729 21.3688 22.0736C21.3688 22.0743 21.3688 22.075 21.3688 22.0757C21.3688 22.0764 21.3688 22.0773 21.3688 22.078C21.3688 22.0787 21.3688 22.0794 21.3688 22.0801C21.3688 22.081 21.3688 22.0817 21.3688 22.0824C21.3688 22.0833 21.3688 22.084 21.3688 22.0847C21.3688 22.0856 21.3688 22.0863 21.3688 22.0872C21.3688 22.0879 21.3688 22.0888 21.3688 22.0895C21.3688 22.0903 21.3688 22.0912 21.3688 22.0919C21.3688 22.0928 21.3688 22.0937 21.3688 22.0946C21.3688 22.0953 21.3688 22.0962 21.3688 22.097C21.3688 22.0979 21.3688 22.0988 21.3688 22.0997C21.3688 22.1004 21.3688 22.1013 21.3688 22.1021C21.3688 22.103 21.3688 22.1041 21.3688 22.105C21.3688 22.1058 21.3688 22.1067 21.3688 22.1076C21.3688 22.1085 21.3688 22.1094 21.3688 22.1104C21.3688 22.1113 21.3688 22.1122 21.3688 22.1132C21.3688 22.1141 21.3688 22.1152 21.3688 22.116C21.3688 22.1169 21.3688 22.118 21.3688 22.1189C21.3688 22.1199 21.3688 22.121 21.3688 22.1219C21.3688 22.1229 21.3688 22.124 21.3688 22.1248C21.3688 22.1259 21.3688 22.127 21.3688 22.128C21.3688 22.1289 21.3688 22.1299 21.3688 22.131C21.3688 22.1321 21.3688 22.1331 21.3688 22.1342C21.3688 22.1352 21.3688 22.1363 21.3688 22.1373C21.3688 22.1384 21.3688 22.1396 21.3688 22.1407C21.3688 22.1417 21.3688 22.1428 21.3688 22.1439C21.3688 22.1451 21.3688 22.1461 21.3688 22.1472C21.3688 22.1484 21.3688 22.1495 21.3688 22.1507C21.3688 22.1518 21.3688 22.153 21.3688 22.1541C21.3688 22.1553 21.3688 22.1565 21.3688 22.1576C21.3688 22.1588 21.3688 22.16 21.3688 22.1613C21.3688 22.1623 21.3688 22.1636 21.3688 22.1648C21.3688 22.166 21.3688 22.1673 21.3688 22.1685C21.3688 22.1697 21.3688 22.171 21.3688 22.1722C21.3688 22.1734 21.3688 22.1747 21.3688 22.1759C21.3688 22.1773 21.3688 22.1785 21.3688 22.1798C21.3688 22.1812 21.3688 22.1824 21.3688 22.1836C21.3688 22.185 21.3688 22.1863 21.3688 22.1877C21.3688 22.1889 21.3688 22.1903 21.3688 22.1915C21.3688 22.193 21.3688 22.1944 21.3688 22.1956C21.3688 22.197 21.3688 22.1984 21.3688 22.1998C21.3688 22.2012 21.3688 22.2025 21.3688 22.2039C21.3688 22.2053 21.3688 22.2067 21.3688 22.2081C21.3688 22.2095 21.3688 22.2111 21.3688 22.2125C21.3688 22.2139 21.3688 22.2153 21.3688 22.2167C21.3688 22.2183 21.3688 22.2197 21.3688 22.2211C21.3688 22.2227 21.3688 22.2241 21.3688 22.2257C21.3688 22.2271 21.3688 22.2287 21.3688 22.2301C21.3688 22.2317 21.3688 22.2333 21.3688 22.2347C21.3688 22.2363 21.3688 22.2378 21.3688 22.2394C21.3688 22.2408 21.3688 22.2424 21.3688 22.244C21.3688 22.2456 21.3688 22.2472 21.3688 22.2487C21.3688 22.2503 21.3688 22.2519 21.3688 22.2537C21.3688 22.2553 21.3688 22.2568 21.3688 22.2584C21.3688 22.2602 21.3688 22.2618 21.3688 22.2634C21.3688 22.2651 21.3688 22.2667 21.3688 22.2685C21.3688 22.27 21.3688 22.2718 21.3688 22.2736C21.3688 22.2751 21.3688 22.2769 21.3688 22.2787C21.3688 22.2804 21.3688 22.282 21.3688 22.2838C21.3688 22.2855 21.3688 22.2873 21.3688 22.2891C21.3688 22.2908 21.3688 22.2926 21.3688 22.2943C21.3688 22.2963 21.3688 22.298 21.3688 22.2998C21.3688 22.3015 21.3688 22.3035 21.3688 22.3052C21.3688 22.307 21.3688 22.3089 21.3688 22.3107C21.3688 22.3126 21.3688 22.3144 21.3688 22.3163C21.3688 22.3183 21.3688 22.32 21.3688 22.322C21.3688 22.3239 21.3688 22.3258 21.3688 22.3278C21.3688 22.3297 21.3688 22.3316 21.3688 22.3336C21.3688 22.3355 21.3688 22.3375 21.3688 22.3394C21.3688 22.3413 21.3688 22.3433 21.3688 22.3452C21.3688 22.3473 21.3688 22.3492 21.3688 22.3514C21.3688 22.3533 21.3688 22.3552 21.3688 22.3573C21.3688 22.3593 21.3688 22.3614 21.3688 22.3635C21.3688 22.3654 21.3688 22.3675 21.3688 22.3697C21.3688 22.3718 21.3688 22.3739 21.3688 22.376C21.3688 22.3781 21.3688 22.3802 21.3688 22.3823C21.3688 22.3844 21.3688 22.3866 21.3688 22.3887C21.3688 22.3908 21.3688 22.3929 21.3688 22.3952C21.3688 22.3973 21.3688 22.3996 21.3688 22.4017C21.3688 22.404 21.3688 22.4061 21.3688 22.4084C21.3688 22.4105 21.3688 22.4128 21.3688 22.4151C21.3688 22.4172 21.3688 22.4195 21.3688 22.4218C21.3688 22.424 21.3688 22.4263 21.3688 22.4286C21.3688 22.4309 21.3688 22.4332 21.3688 22.4355C21.3688 22.4378 21.3688 22.4402 21.3688 22.4425C21.3688 22.4448 21.3688 22.4473 21.3688 22.4496C21.3688 22.452 21.3688 22.4543 21.3688 22.4568C21.3688 22.4591 21.3688 22.4615 21.3688 22.464C21.3688 22.4663 21.3688 22.4687 21.3688 22.4712C21.3688 22.4737 21.3688 22.4761 21.3688 22.4786C21.3688 22.4811 21.3688 22.4835 21.3688 22.486C21.3688 22.4885 21.3688 22.4911 21.3688 22.4936C21.3688 22.496 21.3688 22.4987 21.3688 22.5011C21.3688 22.5038 21.3688 22.5062 21.3688 22.5089C21.3688 22.5113 21.3688 22.514 21.3688 22.5166C21.3688 22.5193 21.3688 22.5217 21.3688 22.5244C21.3688 22.527 21.3688 22.5296 21.3688 22.5323C21.3688 22.5349 21.3688 22.5376 21.3688 22.5404C21.3688 22.543 21.3688 22.5457 21.3688 22.5483C21.3688 22.5511 21.3688 22.5538 21.3688 22.5566C21.3688 22.5592 21.3688 22.562 21.3688 22.5647C21.3688 22.5675 21.3688 22.5703 21.3688 22.5731C21.3688 22.5758 21.3688 22.5786 21.3688 22.5814C21.3688 22.5842 21.3688 22.587 21.3688 22.5898C21.3688 22.5927 21.3688 22.5956 21.3688 22.5985C21.3688 22.6013 21.3688 22.6043 21.3688 22.6071C21.3688 22.6099 21.3688 22.6129 21.3688 22.6159C21.3688 22.6187 21.3688 22.6217 21.3688 22.6247C21.3688 22.6275 21.3688 22.6305 21.3688 22.6335C21.3688 22.6365 21.3688 22.6395 21.3688 22.6425C21.3688 22.6455 21.3688 22.6484 21.3688 22.6514C21.3688 22.6546 21.3688 22.6576 21.3688 22.6606C21.3688 22.6638 21.3688 22.6667 21.3688 22.6699C21.3688 22.6729 21.3688 22.6761 21.3688 22.6791C21.3688 22.6822 21.3688 22.6854 21.3688 22.6886C21.3688 22.6917 21.3688 22.6949 21.3688 22.6981C21.3688 22.7012 21.3688 22.7044 21.3688 22.7076C21.3688 22.7107 21.3688 22.7139 21.3688 22.7173C21.3688 22.7204 21.3688 22.7238 21.3688 22.7269C21.3688 22.7303 21.3688 22.7335 21.3688 22.7368C21.3688 22.7401 21.3688 22.7433 21.3688 22.7467C21.3688 22.75 21.3688 22.7533 21.3688 22.7567C21.3688 22.76 21.3688 22.7634 21.3688 22.7669C21.3688 22.7702 21.3688 22.7736 21.3688 22.7769C21.3688 22.7804 21.3688 22.7838 21.3688 22.7873C21.3688 22.7907 21.3688 22.7942 21.3688 22.7977C21.3688 22.801 21.3688 22.8046 21.3688 22.8081C21.3688 22.8116 21.3688 22.8151 21.3688 22.8186C21.3688 22.8222 21.3688 22.8257 21.3688 22.8292C21.3688 22.8327 21.3688 22.8364 21.3688 22.8399C21.3688 22.8436 21.3688 22.8471 21.3688 22.8508C21.3688 22.8544 21.3688 22.8581 21.3688 22.8618C21.3688 22.8653 21.3688 22.869 21.3688 22.8727C21.3688 22.8764 21.3688 22.8801 21.3688 22.8838C21.3688 22.8875 21.3688 22.8911 21.3688 22.895C21.3688 22.8987 21.3688 22.9024 21.3688 22.9063C21.3688 22.91 21.3688 22.9139 21.3688 22.9175C21.3688 22.9214 21.3688 22.9253 21.3688 22.9292C21.3688 22.9329 21.3688 22.9367 21.3688 22.9406C21.3688 22.9445 21.3688 22.9483 21.3688 22.9524C21.3688 22.9563 21.3688 22.9601 21.3688 22.964C21.3688 22.9681 21.3688 22.9719 21.3688 22.976C21.3688 22.9799 21.3688 22.9839 21.3688 22.9879C21.3688 22.9918 21.3688 22.9959 21.3688 22.9999C21.3688 23.004 21.3688 23.008 21.3688 23.0121C21.3688 23.0161 21.3688 23.0202 21.3688 23.0244C21.3688 23.0284 21.3688 23.0325 21.3688 23.0367C21.3688 23.0407 21.3688 23.045 21.3688 23.0492C21.3688 23.0532 21.3688 23.0575 21.3688 23.0617C21.3688 23.0659 21.3688 23.0701 21.3688 23.0744C21.3688 23.0786 21.3688 23.0828 21.3688 23.087C21.3688 23.0913 21.3688 23.0957 21.3688 23.0999C21.3688 23.1041 21.3688 23.1085 21.3688 23.1129C21.3688 23.1171 21.3688 23.1215 21.3688 23.1259C21.3688 23.1302 21.3688 23.1346 21.3688 23.139C21.3688 23.1434 21.3688 23.1478 21.3688 23.1523C21.3688 23.1567 21.3688 23.1611 21.3688 23.1655C21.3688 23.1701 21.3688 23.1745 21.3688 23.1791C21.3688 23.1835 21.3688 23.1881 21.3688 23.1926C21.3688 23.1972 21.3688 23.2016 21.3688 23.2062C21.3688 23.2108 21.3688 23.2153 21.3688 23.2201C21.3688 23.2247 21.3688 23.2292 21.3688 23.2338C21.3688 23.2386 21.3688 23.2431 21.3688 23.2479C21.3688 23.2525 21.3688 23.2572 21.3688 23.262C21.3688 23.2667 21.3688 23.2713 21.3688 23.2761C21.3688 23.2808 21.3688 23.2856 21.3688 23.2903C21.3688 23.2952 21.3688 23.3 21.3688 23.3047C21.3688 23.3097 21.3688 23.3144 21.3688 23.3194C21.3688 23.3241 21.3688 23.329 21.3688 23.334C21.3688 23.3387 21.3688 23.3436 21.3688 23.3486C21.3688 23.3535 21.3688 23.3584 21.3688 23.3634C21.3688 23.3685 21.3688 23.3734 21.3688 23.3783C21.3688 23.3834 21.3688 23.3883 21.3688 23.3934C21.3688 23.3984 21.3688 23.4035 21.3688 23.4086C21.3688 23.4137 21.3688 23.4186 21.3688 23.4237C21.3688 23.4288 21.3688 23.4341 21.3688 23.4392C21.3688 23.4443 21.3688 23.4494 21.3688 23.4547C21.3688 23.4598 21.3688 23.4651 21.3688 23.4702C21.3688 23.4755 21.3688 23.4807 21.3688 23.4859C21.3688 23.4911 21.3688 23.4964 21.3688 23.5017C21.3688 23.507 21.3688 23.5123 21.3688 23.5177C21.3688 23.523 21.3688 23.5283 21.3688 23.5337C21.3688 23.539 21.3688 23.5445 21.3688 23.5499C21.3688 23.5552 21.3688 23.5607 21.3688 23.5661C21.3688 23.5716 21.3688 23.577 21.3688 23.5825C21.3688 23.5879 21.3688 23.5934 21.3688 23.599C21.3688 23.6045 21.3688 23.6099 21.3688 23.6156C21.3688 23.621 21.3688 23.6267 21.3688 23.6323C21.3688 23.6379 21.3688 23.6435 21.3688 23.6492C21.3688 23.6546 21.3688 23.6604 21.3688 23.6661C21.3688 23.6717 21.3688 23.6773 21.3688 23.6831C21.3688 23.6888 21.3688 23.6946 21.3688 23.7002C21.3688 23.706 21.3688 23.7118 21.3688 23.7176C21.3688 23.7233 21.3688 23.7291 21.3688 23.7349C21.3688 23.7409 21.3688 23.7467 21.3688 23.7525C21.3688 23.7583 21.3688 23.7643 21.3688 23.7701C21.3688 23.7761 21.3688 23.7819 21.3688 23.7879C21.3688 23.7938 21.3688 23.7998 21.3688 23.8058C21.3688 23.8118 21.3688 23.8178 21.3688 23.8238C21.3688 23.8298 21.3688 23.8359 21.3688 23.8419C21.3688 23.8479 21.3688 23.854 21.3688 23.8602C21.3688 23.8662 21.3688 23.8723 21.3688 23.8785C21.3688 23.8847 21.3688 23.8908 21.3688 23.897C21.3688 23.9031 21.3688 23.9093 21.3688 23.9156C21.3688 23.9218 21.3688 23.928 21.3688 23.9343C21.3688 23.9406 21.3688 23.9468 21.3688 23.9531C21.3688 23.9595 21.3688 23.9658 21.3688 23.9721C21.3688 23.9785 21.3688 23.9848 21.3688 23.9911C21.3688 23.9975 21.3688 24.004 21.3688 24.0103C21.3688 24.0168 21.3688 24.0232 21.3688 24.0297C21.3688 24.0362 21.3688 24.0427 21.3688 24.0492C21.3688 24.0557 21.3688 24.0623 21.3688 24.0688C21.3688 24.0753 21.3688 24.0818 21.3688 24.0885C21.3688 24.095 21.3688 24.1017 21.3688 24.1084C21.3688 24.1149 21.3688 24.1216 21.3688 24.1283C21.3688 24.1349 21.3688 24.1416 21.3688 24.1483C21.3688 24.155 21.3688 24.1617 21.3688 24.1686C21.3688 24.1752 21.3688 24.1821 21.3688 24.1888C21.3688 24.1957 21.3688 24.2025 21.3688 24.2094C21.3688 24.2161 21.3688 24.2229 21.3688 24.23C21.3688 24.2368 21.3688 24.2437 21.3688 24.2506C21.3688 24.2576 21.3688 24.2645 21.3688 24.2715C21.3688 24.2784 21.3688 24.2854 21.3688 24.2925C21.3688 24.2995 21.3688 24.3065 21.3688 24.3136C21.3688 24.3206 21.3688 24.3277 21.3688 24.3347C21.3688 24.3419 21.3688 24.349 21.3688 24.3562C21.3688 24.3632 21.3688 24.3704 21.3688 24.3776C21.3688 24.3847 21.3688 24.3919 21.3688 24.3991C21.3688 24.4065 21.3688 24.4137 21.3688 24.4209C21.3688 24.4282 21.3688 24.4355 21.3688 24.4428C21.3688 24.4502 21.3688 24.4575 21.3688 24.4648C21.3688 24.4722 21.3688 24.4795 21.3688 24.4869C21.3688 24.4943 21.3688 24.5017 21.3688 24.5093C21.3688 24.5167 21.3688 24.5241 21.3688 24.5316C21.3688 24.5392 21.3688 24.5466 21.3688 24.5542C21.3688 24.5617 21.3688 24.5693 21.3688 24.5769C21.3688 24.5844 21.3688 24.592 21.3688 24.5996C21.3688 24.6073 21.3688 24.6149 21.3688 24.6226C21.3688 24.6302 21.3688 24.6379 21.3688 24.6457C21.3688 24.6534 21.3688 24.6612 21.3688 24.6689C21.3688 24.6767 21.3688 24.6844 21.3688 24.6922C21.3688 24.7001 21.3688 24.7078 21.3688 24.7157C21.3688 24.7235 21.3688 24.7314 21.3688 24.7393C21.3688 24.7472 21.3688 24.7552 21.3688 24.7631C21.3688 24.771 21.3688 24.7789 21.3688 24.787C21.3688 24.7949 21.3688 24.803 21.3688 24.811C21.3688 24.8191 21.3688 24.8271 21.3688 24.8351C21.3688 24.8432 21.3688 24.8513 21.3688 24.8595C21.3688 24.8676 21.3688 24.8757 21.3688 24.8838C21.3688 24.8921 21.3688 24.9002 21.3688 24.9085C21.3688 24.9167 21.3688 24.925 21.3688 24.9333C21.3688 24.9414 21.3688 24.9498 21.3688 24.9581C21.3688 24.9664 21.3688 24.9746 21.3688 24.9831C21.3688 24.9914 21.3688 24.9998 21.3688 25.0083C21.3688 25.0165 21.3688 25.025 21.3688 25.0334C21.3688 25.0419 21.3688 25.0503 21.3688 25.0589C21.3688 25.0674 21.3688 25.0758 21.3688 25.0845C21.3688 25.0931 21.3688 25.1015 21.3688 25.1102C21.3688 25.1188 21.3688 25.1274 21.3688 25.136C21.3688 25.1447 21.3688 25.1533 21.3688 25.1621C21.3688 25.1707 21.3688 25.1793 21.3688 25.1881C21.3688 25.1969 21.3688 25.2055 21.3688 25.2143C21.3688 25.2231 21.3688 25.2319 21.3688 25.2407C21.3688 25.2497 21.3688 25.2585 21.3688 25.2673C21.3688 25.2763 21.3688 25.2851 21.3688 25.2941C21.3688 25.3031 21.3688 25.312 21.3688 25.321C21.3688 25.33 21.3688 25.339 21.3688 25.3479C21.3688 25.3569 21.3688 25.3661 21.3688 25.375C21.3688 25.3842 21.3688 25.3933 21.3688 25.4023C21.3688 25.4115 21.3688 25.4206 21.3688 25.4298C21.3688 25.4389 21.3688 25.4483 21.3688 25.4574C21.3688 25.4666 21.3688 25.4759 21.3688 25.4852C21.3688 25.4944 21.3688 25.5037 21.3688 25.513C21.3688 25.5223 21.3688 25.5317 21.3688 25.541C21.3688 25.5505 21.3688 25.5598 21.3688 25.5692C21.3688 25.5787 21.3688 25.5882 21.3688 25.5975C21.3688 25.607 21.3688 25.6165 21.3688 25.626C21.3688 25.6355 21.3688 25.6452 21.3688 25.6547C21.3688 25.6642 21.3688 25.6739 21.3688 25.6834C21.3688 25.6931 21.3688 25.7027 21.3688 25.7124C21.3688 25.7221 21.3688 25.7318 21.3688 25.7415C21.3688 25.7511 21.3688 25.761 21.3688 25.7707C21.3688 25.7805 21.3688 25.7902 21.3688 25.8001C21.3688 25.8099 21.3688 25.8198 21.3688 25.8296C21.3688 25.8395 21.3688 25.8494 21.3688 25.8594C21.3688 25.8692 21.3688 25.8791 21.3688 25.8891C21.3688 25.8992 21.3688 25.9092 21.3688 25.9191C21.3688 25.9291 21.3688 25.9393 21.3688 25.9493C21.3688 25.9594 21.3688 25.9694 21.3688 25.9796C21.3688 25.9896 21.3688 25.9998 21.3688 26.01C21.3688 26.0203 21.3688 26.0305 21.3688 26.0407C21.3688 26.0509 21.3688 26.0611 21.3688 26.0715C21.3688 26.0817 21.3688 26.0921 21.3688 26.1023C21.3688 26.1127 21.3688 26.123 21.3688 26.1334C21.3688 26.1438 21.3688 26.1542 21.3688 26.1646C21.3688 26.1751 21.3688 26.1855 21.3688 26.1961C21.3688 26.2065 21.3688 26.217 21.3688 26.2276C21.3688 26.2381 21.3688 26.2487 21.3688 26.2593C21.3688 26.2698 21.3688 26.2806 21.3688 26.2911C21.3688 26.3019 21.3688 26.3124 21.3688 26.3231C21.3688 26.3339 21.3688 26.3446 21.3688 26.3554C21.3688 26.3661 21.3688 26.377 21.3688 26.3877C21.3688 26.3985 21.3688 26.4094 21.3688 26.4203C21.3688 26.431 21.3688 26.4419 21.3688 26.4529C21.3688 26.4638 21.3688 26.4747 21.3688 26.4858C21.3688 26.4967 21.3688 26.5076 21.3688 26.5187C21.3688 26.5298 21.3688 26.5407 21.3688 26.5518C21.3688 26.5629 21.3688 26.5739 21.3688 26.5852C21.3688 26.5963 21.3688 26.6074 21.3688 26.6187C21.3688 26.6297 21.3688 26.641 21.3688 26.6523C21.3688 26.6635 21.3688 26.6748 21.3688 26.6861C21.3688 26.6973 21.3688 26.7086 21.3688 26.72C21.3688 26.7313 21.3688 26.7427 21.3688 26.7542C21.3688 26.7654 21.3688 26.7769 21.3688 26.7885C21.3688 26.7999 21.3688 26.8114 21.3688 26.8228C21.3688 26.8344 21.3688 26.8459 21.3688 26.8575C21.3688 26.8691 21.3688 26.8807 21.3688 26.8923C21.3688 26.9039 21.3688 26.9156 21.3688 26.9272C21.3688 26.9388 21.3688 26.9506 21.3688 26.9624C21.3688 26.974 21.3688 26.9858 21.3688 26.9976C21.3688 27.0094 21.3688 27.0212 21.3688 27.033C21.3688 27.0449 21.3688 27.0567 21.3688 27.0687C21.3688 27.0805 21.3688 27.0924 21.3688 27.1044C21.3688 27.1164 21.3688 27.1283 21.3688 27.1403C21.3688 27.1525 21.3688 27.1644 21.3688 27.1766C21.3688 27.1885 21.3688 27.2007 21.3688 27.2128C21.3688 27.225 21.3688 27.2371 21.3688 27.2493C21.3688 27.2614 21.3688 27.2735 21.3688 27.2859C21.3688 27.298 21.3688 27.3103 21.3688 27.3226C21.3688 27.335 21.3688 27.3473 21.3688 27.3596C21.3688 27.3719 21.3688 27.3842 21.3688 27.3967C21.3688 27.4091 21.3688 27.4216 21.3688 27.4341C21.3688 27.4466 21.3688 27.4591 21.3688 27.4715C21.3688 27.484 21.3688 27.4965 21.3688 27.5092C21.3688 27.5217 21.3688 27.5344 21.3688 27.5471C21.3688 27.5595 21.3688 27.5722 21.3688 27.5851C21.3688 27.5977 21.3688 27.6104 21.3688 27.6231C21.3688 27.6359 21.3688 27.6486 21.3688 27.6615C21.3688 27.6743 21.3688 27.6871 21.3688 27.7C21.3688 27.7128 21.3688 27.7257 21.3688 27.7387C21.3688 27.7516 21.3688 27.7646 21.3688 27.7776C21.3688 27.7905 21.3688 27.8035 21.3688 27.8165C21.3688 27.8297 21.3688 27.8427 21.3688 27.8558C21.3688 27.869 21.3688 27.882 21.3688 27.8952C21.3688 27.9084 21.3688 27.9216 21.3688 27.9348C21.3688 27.948 21.3688 27.9612 21.3688 27.9746C21.3688 27.9878 21.3688 28.0011 21.3688 28.0145C21.3688 28.0277 21.3688 28.0411 21.3688 28.0545C21.3688 28.0678 21.3688 28.0814 21.3688 28.0948C21.3688 28.1083 21.3688 28.1217 21.3688 28.1352C21.3688 28.1488 21.3688 28.1623 21.3688 28.1759C21.3688 28.1895 21.3688 28.203 21.3688 28.2167C21.3688 28.2303 21.3688 28.244 21.3688 28.2577C21.3688 28.2713 21.3688 28.285 21.3688 28.2989C21.3688 28.3127 21.3688 28.3264 21.3688 28.3403C21.3688 28.354 21.3688 28.3679 21.3688 28.3816C21.3688 28.3955 21.3688 28.4095 21.3688 28.4234C21.3688 28.4374 21.3688 28.4513 21.3688 28.4654C21.3688 28.4793 21.3688 28.4934 21.3688 28.5075C21.3688 28.5214 21.3688 28.5355 21.3688 28.5497C21.3688 28.5638 21.3688 28.5779 21.3688 28.5921C21.3688 28.6062 21.3688 28.6205 21.3688 28.6347C21.3688 28.649 21.3688 28.6632 21.3688 28.6775C21.3688 28.6918 21.3688 28.7062 21.3688 28.7204C21.3688 28.7349 21.3688 28.7493 21.3688 28.7637C21.3688 28.7782 21.3688 28.7926 21.3688 28.807C21.3688 28.8215 21.3688 28.8361 21.3688 28.8505C21.3688 28.8651 21.3688 28.8797 21.3688 28.8943C21.3688 28.9089 21.3688 28.9235 21.3688 28.9382C21.3688 28.9529 21.3688 28.9675 21.3688 28.9823C21.3688 28.9971 21.3688 29.0119 21.3688 29.0267C21.3688 29.0415 21.3688 29.0563 21.3688 29.071C21.3688 29.086 21.3688 29.1008 21.3688 29.1157C21.3688 29.1307 21.3688 29.1457 21.3688 29.1606C21.3688 29.1756 21.3688 29.1905 21.3688 29.2057C21.3688 29.2206 21.3688 29.2358 21.3688 29.2509C21.3688 29.266 21.3688 29.2812 21.3688 29.2963C21.3688 29.3115 21.3688 29.3266 21.3688 29.3419C21.3688 29.357 21.3688 29.3723 21.3688 29.3877C21.3688 29.403 21.3688 29.4183 21.3688 29.4336C21.3688 29.4491 21.3688 29.4644 21.3688 29.4799C21.3688 29.4952 21.3688 29.5107 21.3688 29.5262C21.3688 29.5417 21.3688 29.5571 21.3688 29.5728C21.3688 29.5883 21.3688 29.6038 21.3688 29.6195C21.3688 29.6351 21.3688 29.6508 21.3688 29.6664C21.3688 29.6821 21.3688 29.6978 21.3688 29.7136C21.3688 29.7293 21.3688 29.7451 21.3688 29.761C21.3688 29.7766 21.3688 29.7925 21.3688 29.8085C21.3688 29.8243 21.3688 29.8402 21.3688 29.8562C21.3688 29.872 21.3688 29.888 21.3688 29.904C21.3688 29.9201 21.3688 29.9361 21.3688 29.9521C21.3688 29.9681 21.3688 29.9843 21.3688 30.0003C21.3688 30.0165 21.3688 30.0327 21.3688 30.0489C21.3688 30.0651 21.3688 30.0813 21.3688 30.0976C21.3688 30.1138 21.3688 30.1302 21.3688 30.1464C21.3688 30.1628 21.3688 30.1791 21.3688 30.1955C21.3688 30.2119 21.3688 30.2284 21.3688 30.2448C21.3688 30.2613 21.3688 30.2777 21.3688 30.2942C21.3688 30.3108 21.3688 30.3273 21.3688 30.3439C21.3688 30.3606 21.3688 30.3771 21.3688 30.3939C21.3688 30.4104 21.3688 30.4271 21.3688 30.4438C21.3688 30.4606 21.3688 30.4773 21.3688 30.4942C21.3688 30.5109 21.3688 30.5278 21.3688 30.5445C21.3688 30.5614 21.3688 30.5783 21.3688 30.5952C21.3688 30.6121 21.3688 30.6292 21.3688 30.6461C21.3688 30.6631 21.3688 30.68 21.3688 30.6971C21.3688 30.7142 21.3688 30.7312 21.3688 30.7485C21.3688 30.7656 21.3688 30.7826 21.3688 30.7999H24.0088C24.0088 30.7826 24.0088 30.7656 24.0088 30.7485C24.0088 30.7312 24.0088 30.7142 24.0088 30.6971C24.0088 30.68 24.0088 30.6631 24.0088 30.6461C24.0088 30.6292 24.0088 30.6121 24.0088 30.5952C24.0088 30.5783 24.0088 30.5614 24.0088 30.5445C24.0088 30.5278 24.0088 30.5109 24.0088 30.4942C24.0088 30.4773 24.0088 30.4606 24.0088 30.4438C24.0088 30.4271 24.0088 30.4104 24.0088 30.3939C24.0088 30.3771 24.0088 30.3606 24.0088 30.3439C24.0088 30.3273 24.0088 30.3108 24.0088 30.2942C24.0088 30.2777 24.0088 30.2613 24.0088 30.2448C24.0088 30.2284 24.0088 30.2119 24.0088 30.1955C24.0088 30.1791 24.0088 30.1628 24.0088 30.1464C24.0088 30.1302 24.0088 30.1138 24.0088 30.0976C24.0088 30.0813 24.0088 30.0651 24.0088 30.0489C24.0088 30.0327 24.0088 30.0165 24.0088 30.0003C24.0088 29.9843 24.0088 29.9681 24.0088 29.9521C24.0088 29.9361 24.0088 29.9201 24.0088 29.904C24.0088 29.888 24.0088 29.872 24.0088 29.8562C24.0088 29.8402 24.0088 29.8243 24.0088 29.8085C24.0088 29.7925 24.0088 29.7766 24.0088 29.761C24.0088 29.7451 24.0088 29.7293 24.0088 29.7136C24.0088 29.6978 24.0088 29.6821 24.0088 29.6664C24.0088 29.6508 24.0088 29.6351 24.0088 29.6195C24.0088 29.6038 24.0088 29.5883 24.0088 29.5728C24.0088 29.5571 24.0088 29.5417 24.0088 29.5262C24.0088 29.5107 24.0088 29.4952 24.0088 29.4799C24.0088 29.4644 24.0088 29.4491 24.0088 29.4336C24.0088 29.4183 24.0088 29.403 24.0088 29.3877C24.0088 29.3723 24.0088 29.357 24.0088 29.3419C24.0088 29.3266 24.0088 29.3115 24.0088 29.2963C24.0088 29.2812 24.0088 29.266 24.0088 29.2509C24.0088 29.2358 24.0088 29.2206 24.0088 29.2057C24.0088 29.1905 24.0088 29.1756 24.0088 29.1606C24.0088 29.1457 24.0088 29.1307 24.0088 29.1157C24.0088 29.1008 24.0088 29.086 24.0088 29.071C24.0088 29.0563 24.0088 29.0415 24.0088 29.0267C24.0088 29.0119 24.0088 28.9971 24.0088 28.9823C24.0088 28.9675 24.0088 28.9529 24.0088 28.9382C24.0088 28.9235 24.0088 28.9089 24.0088 28.8943C24.0088 28.8797 24.0088 28.8651 24.0088 28.8505C24.0088 28.8361 24.0088 28.8215 24.0088 28.807C24.0088 28.7926 24.0088 28.7782 24.0088 28.7637C24.0088 28.7493 24.0088 28.7349 24.0088 28.7204C24.0088 28.7062 24.0088 28.6918 24.0088 28.6775C24.0088 28.6632 24.0088 28.649 24.0088 28.6347C24.0088 28.6205 24.0088 28.6062 24.0088 28.5921C24.0088 28.5779 24.0088 28.5638 24.0088 28.5497C24.0088 28.5355 24.0088 28.5214 24.0088 28.5075C24.0088 28.4934 24.0088 28.4793 24.0088 28.4654C24.0088 28.4513 24.0088 28.4374 24.0088 28.4234C24.0088 28.4095 24.0088 28.3955 24.0088 28.3816C24.0088 28.3679 24.0088 28.354 24.0088 28.3403C24.0088 28.3264 24.0088 28.3127 24.0088 28.2989C24.0088 28.285 24.0088 28.2713 24.0088 28.2577C24.0088 28.244 24.0088 28.2303 24.0088 28.2167C24.0088 28.203 24.0088 28.1895 24.0088 28.1759C24.0088 28.1623 24.0088 28.1488 24.0088 28.1352C24.0088 28.1217 24.0088 28.1083 24.0088 28.0948C24.0088 28.0814 24.0088 28.0678 24.0088 28.0545C24.0088 28.0411 24.0088 28.0277 24.0088 28.0145C24.0088 28.0011 24.0088 27.9878 24.0088 27.9746C24.0088 27.9612 24.0088 27.948 24.0088 27.9348C24.0088 27.9216 24.0088 27.9084 24.0088 27.8952C24.0088 27.882 24.0088 27.869 24.0088 27.8558C24.0088 27.8427 24.0088 27.8297 24.0088 27.8165C24.0088 27.8035 24.0088 27.7905 24.0088 27.7776C24.0088 27.7646 24.0088 27.7516 24.0088 27.7387C24.0088 27.7257 24.0088 27.7128 24.0088 27.7C24.0088 27.6871 24.0088 27.6743 24.0088 27.6615C24.0088 27.6486 24.0088 27.6359 24.0088 27.6231C24.0088 27.6104 24.0088 27.5977 24.0088 27.5851C24.0088 27.5722 24.0088 27.5595 24.0088 27.5471C24.0088 27.5344 24.0088 27.5217 24.0088 27.5092C24.0088 27.4965 24.0088 27.484 24.0088 27.4715C24.0088 27.4591 24.0088 27.4466 24.0088 27.4341C24.0088 27.4216 24.0088 27.4091 24.0088 27.3967C24.0088 27.3842 24.0088 27.3719 24.0088 27.3596C24.0088 27.3473 24.0088 27.335 24.0088 27.3226C24.0088 27.3103 24.0088 27.298 24.0088 27.2859C24.0088 27.2735 24.0088 27.2614 24.0088 27.2493C24.0088 27.2371 24.0088 27.225 24.0088 27.2128C24.0088 27.2007 24.0088 27.1885 24.0088 27.1766C24.0088 27.1644 24.0088 27.1525 24.0088 27.1403C24.0088 27.1283 24.0088 27.1164 24.0088 27.1044C24.0088 27.0924 24.0088 27.0805 24.0088 27.0687C24.0088 27.0567 24.0088 27.0449 24.0088 27.033C24.0088 27.0212 24.0088 27.0094 24.0088 26.9976C24.0088 26.9858 24.0088 26.974 24.0088 26.9624C24.0088 26.9506 24.0088 26.9388 24.0088 26.9272C24.0088 26.9156 24.0088 26.9039 24.0088 26.8923C24.0088 26.8807 24.0088 26.8691 24.0088 26.8575C24.0088 26.8459 24.0088 26.8344 24.0088 26.8228C24.0088 26.8114 24.0088 26.7999 24.0088 26.7885C24.0088 26.7769 24.0088 26.7654 24.0088 26.7542C24.0088 26.7427 24.0088 26.7313 24.0088 26.72C24.0088 26.7086 24.0088 26.6973 24.0088 26.6861C24.0088 26.6748 24.0088 26.6635 24.0088 26.6523C24.0088 26.641 24.0088 26.6297 24.0088 26.6187C24.0088 26.6074 24.0088 26.5963 24.0088 26.5852C24.0088 26.5739 24.0088 26.5629 24.0088 26.5518C24.0088 26.5407 24.0088 26.5298 24.0088 26.5187C24.0088 26.5076 24.0088 26.4967 24.0088 26.4858C24.0088 26.4747 24.0088 26.4638 24.0088 26.4529C24.0088 26.4419 24.0088 26.431 24.0088 26.4203C24.0088 26.4094 24.0088 26.3985 24.0088 26.3877C24.0088 26.377 24.0088 26.3661 24.0088 26.3554C24.0088 26.3446 24.0088 26.3339 24.0088 26.3231C24.0088 26.3124 24.0088 26.3019 24.0088 26.2911C24.0088 26.2806 24.0088 26.2698 24.0088 26.2593C24.0088 26.2487 24.0088 26.2381 24.0088 26.2276C24.0088 26.217 24.0088 26.2065 24.0088 26.1961C24.0088 26.1855 24.0088 26.1751 24.0088 26.1646C24.0088 26.1542 24.0088 26.1438 24.0088 26.1334C24.0088 26.123 24.0088 26.1127 24.0088 26.1023C24.0088 26.0921 24.0088 26.0817 24.0088 26.0715C24.0088 26.0611 24.0088 26.0509 24.0088 26.0407C24.0088 26.0305 24.0088 26.0203 24.0088 26.01C24.0088 25.9998 24.0088 25.9896 24.0088 25.9796C24.0088 25.9694 24.0088 25.9594 24.0088 25.9493C24.0088 25.9393 24.0088 25.9291 24.0088 25.9191C24.0088 25.9092 24.0088 25.8992 24.0088 25.8891C24.0088 25.8791 24.0088 25.8692 24.0088 25.8594C24.0088 25.8494 24.0088 25.8395 24.0088 25.8296C24.0088 25.8198 24.0088 25.8099 24.0088 25.8001C24.0088 25.7902 24.0088 25.7805 24.0088 25.7707C24.0088 25.761 24.0088 25.7511 24.0088 25.7415C24.0088 25.7318 24.0088 25.7221 24.0088 25.7124C24.0088 25.7027 24.0088 25.6931 24.0088 25.6834C24.0088 25.6739 24.0088 25.6642 24.0088 25.6547C24.0088 25.6452 24.0088 25.6355 24.0088 25.626C24.0088 25.6165 24.0088 25.607 24.0088 25.5975C24.0088 25.5882 24.0088 25.5787 24.0088 25.5692C24.0088 25.5598 24.0088 25.5505 24.0088 25.541C24.0088 25.5317 24.0088 25.5223 24.0088 25.513C24.0088 25.5037 24.0088 25.4944 24.0088 25.4852C24.0088 25.4759 24.0088 25.4666 24.0088 25.4574C24.0088 25.4483 24.0088 25.4389 24.0088 25.4298C24.0088 25.4206 24.0088 25.4115 24.0088 25.4023C24.0088 25.3933 24.0088 25.3842 24.0088 25.375C24.0088 25.3661 24.0088 25.3569 24.0088 25.3479C24.0088 25.339 24.0088 25.33 24.0088 25.321C24.0088 25.312 24.0088 25.3031 24.0088 25.2941C24.0088 25.2851 24.0088 25.2763 24.0088 25.2673C24.0088 25.2585 24.0088 25.2497 24.0088 25.2407C24.0088 25.2319 24.0088 25.2231 24.0088 25.2143C24.0088 25.2055 24.0088 25.1969 24.0088 25.1881C24.0088 25.1793 24.0088 25.1707 24.0088 25.1621C24.0088 25.1533 24.0088 25.1447 24.0088 25.136C24.0088 25.1274 24.0088 25.1188 24.0088 25.1102C24.0088 25.1015 24.0088 25.0931 24.0088 25.0845C24.0088 25.0758 24.0088 25.0674 24.0088 25.0589C24.0088 25.0503 24.0088 25.0419 24.0088 25.0334C24.0088 25.025 24.0088 25.0165 24.0088 25.0083C24.0088 24.9998 24.0088 24.9914 24.0088 24.9831C24.0088 24.9746 24.0088 24.9664 24.0088 24.9581C24.0088 24.9498 24.0088 24.9414 24.0088 24.9333C24.0088 24.925 24.0088 24.9167 24.0088 24.9085C24.0088 24.9002 24.0088 24.8921 24.0088 24.8838C24.0088 24.8757 24.0088 24.8676 24.0088 24.8595C24.0088 24.8513 24.0088 24.8432 24.0088 24.8351C24.0088 24.8271 24.0088 24.8191 24.0088 24.811C24.0088 24.803 24.0088 24.7949 24.0088 24.787C24.0088 24.7789 24.0088 24.771 24.0088 24.7631C24.0088 24.7552 24.0088 24.7472 24.0088 24.7393C24.0088 24.7314 24.0088 24.7235 24.0088 24.7157C24.0088 24.7078 24.0088 24.7001 24.0088 24.6922C24.0088 24.6844 24.0088 24.6767 24.0088 24.6689C24.0088 24.6612 24.0088 24.6534 24.0088 24.6457C24.0088 24.6379 24.0088 24.6302 24.0088 24.6226C24.0088 24.6149 24.0088 24.6073 24.0088 24.5996C24.0088 24.592 24.0088 24.5844 24.0088 24.5769C24.0088 24.5693 24.0088 24.5617 24.0088 24.5542C24.0088 24.5466 24.0088 24.5392 24.0088 24.5316C24.0088 24.5241 24.0088 24.5167 24.0088 24.5093C24.0088 24.5017 24.0088 24.4943 24.0088 24.4869C24.0088 24.4795 24.0088 24.4722 24.0088 24.4648C24.0088 24.4575 24.0088 24.4502 24.0088 24.4428C24.0088 24.4355 24.0088 24.4282 24.0088 24.4209C24.0088 24.4137 24.0088 24.4065 24.0088 24.3991C24.0088 24.3919 24.0088 24.3847 24.0088 24.3776C24.0088 24.3704 24.0088 24.3632 24.0088 24.3562C24.0088 24.349 24.0088 24.3419 24.0088 24.3347C24.0088 24.3277 24.0088 24.3206 24.0088 24.3136C24.0088 24.3065 24.0088 24.2995 24.0088 24.2925C24.0088 24.2854 24.0088 24.2784 24.0088 24.2715C24.0088 24.2645 24.0088 24.2576 24.0088 24.2506C24.0088 24.2437 24.0088 24.2368 24.0088 24.23C24.0088 24.2229 24.0088 24.2161 24.0088 24.2094C24.0088 24.2025 24.0088 24.1957 24.0088 24.1888C24.0088 24.1821 24.0088 24.1752 24.0088 24.1686C24.0088 24.1617 24.0088 24.155 24.0088 24.1483C24.0088 24.1416 24.0088 24.1349 24.0088 24.1283C24.0088 24.1216 24.0088 24.1149 24.0088 24.1084C24.0088 24.1017 24.0088 24.095 24.0088 24.0885C24.0088 24.0818 24.0088 24.0753 24.0088 24.0688C24.0088 24.0623 24.0088 24.0557 24.0088 24.0492C24.0088 24.0427 24.0088 24.0362 24.0088 24.0297C24.0088 24.0232 24.0088 24.0168 24.0088 24.0103C24.0088 24.004 24.0088 23.9975 24.0088 23.9911C24.0088 23.9848 24.0088 23.9785 24.0088 23.9721C24.0088 23.9658 24.0088 23.9595 24.0088 23.9531C24.0088 23.9468 24.0088 23.9406 24.0088 23.9343C24.0088 23.928 24.0088 23.9218 24.0088 23.9156C24.0088 23.9093 24.0088 23.9031 24.0088 23.897C24.0088 23.8908 24.0088 23.8847 24.0088 23.8785C24.0088 23.8723 24.0088 23.8662 24.0088 23.8602C24.0088 23.854 24.0088 23.8479 24.0088 23.8419C24.0088 23.8359 24.0088 23.8298 24.0088 23.8238C24.0088 23.8178 24.0088 23.8118 24.0088 23.8058C24.0088 23.7998 24.0088 23.7938 24.0088 23.7879C24.0088 23.7819 24.0088 23.7761 24.0088 23.7701C24.0088 23.7643 24.0088 23.7583 24.0088 23.7525C24.0088 23.7467 24.0088 23.7409 24.0088 23.7349C24.0088 23.7291 24.0088 23.7233 24.0088 23.7176C24.0088 23.7118 24.0088 23.706 24.0088 23.7002C24.0088 23.6946 24.0088 23.6888 24.0088 23.6831C24.0088 23.6773 24.0088 23.6717 24.0088 23.6661C24.0088 23.6604 24.0088 23.6546 24.0088 23.6492C24.0088 23.6435 24.0088 23.6379 24.0088 23.6323C24.0088 23.6267 24.0088 23.621 24.0088 23.6156C24.0088 23.6099 24.0088 23.6045 24.0088 23.599C24.0088 23.5934 24.0088 23.5879 24.0088 23.5825C24.0088 23.577 24.0088 23.5716 24.0088 23.5661C24.0088 23.5607 24.0088 23.5552 24.0088 23.5499C24.0088 23.5445 24.0088 23.539 24.0088 23.5337C24.0088 23.5283 24.0088 23.523 24.0088 23.5177C24.0088 23.5123 24.0088 23.507 24.0088 23.5017C24.0088 23.4964 24.0088 23.4911 24.0088 23.4859C24.0088 23.4807 24.0088 23.4755 24.0088 23.4702C24.0088 23.4651 24.0088 23.4598 24.0088 23.4547C24.0088 23.4494 24.0088 23.4443 24.0088 23.4392C24.0088 23.4341 24.0088 23.4288 24.0088 23.4237C24.0088 23.4186 24.0088 23.4137 24.0088 23.4086C24.0088 23.4035 24.0088 23.3984 24.0088 23.3934C24.0088 23.3883 24.0088 23.3834 24.0088 23.3783C24.0088 23.3734 24.0088 23.3685 24.0088 23.3634C24.0088 23.3584 24.0088 23.3535 24.0088 23.3486C24.0088 23.3436 24.0088 23.3387 24.0088 23.334C24.0088 23.329 24.0088 23.3241 24.0088 23.3194C24.0088 23.3144 24.0088 23.3097 24.0088 23.3047C24.0088 23.3 24.0088 23.2952 24.0088 23.2903C24.0088 23.2856 24.0088 23.2808 24.0088 23.2761C24.0088 23.2713 24.0088 23.2667 24.0088 23.262C24.0088 23.2572 24.0088 23.2525 24.0088 23.2479C24.0088 23.2431 24.0088 23.2386 24.0088 23.2338C24.0088 23.2292 24.0088 23.2247 24.0088 23.2201C24.0088 23.2153 24.0088 23.2108 24.0088 23.2062C24.0088 23.2016 24.0088 23.1972 24.0088 23.1926C24.0088 23.1881 24.0088 23.1835 24.0088 23.1791C24.0088 23.1745 24.0088 23.1701 24.0088 23.1655C24.0088 23.1611 24.0088 23.1567 24.0088 23.1523C24.0088 23.1478 24.0088 23.1434 24.0088 23.139C24.0088 23.1346 24.0088 23.1302 24.0088 23.1259C24.0088 23.1215 24.0088 23.1171 24.0088 23.1129C24.0088 23.1085 24.0088 23.1041 24.0088 23.0999C24.0088 23.0957 24.0088 23.0913 24.0088 23.087C24.0088 23.0828 24.0088 23.0786 24.0088 23.0744C24.0088 23.0701 24.0088 23.0659 24.0088 23.0617C24.0088 23.0575 24.0088 23.0532 24.0088 23.0492C24.0088 23.045 24.0088 23.0407 24.0088 23.0367C24.0088 23.0325 24.0088 23.0284 24.0088 23.0244C24.0088 23.0202 24.0088 23.0161 24.0088 23.0121C24.0088 23.008 24.0088 23.004 24.0088 22.9999C24.0088 22.9959 24.0088 22.9918 24.0088 22.9879C24.0088 22.9839 24.0088 22.9799 24.0088 22.976C24.0088 22.9719 24.0088 22.9681 24.0088 22.964C24.0088 22.9601 24.0088 22.9563 24.0088 22.9524C24.0088 22.9483 24.0088 22.9445 24.0088 22.9406C24.0088 22.9367 24.0088 22.9329 24.0088 22.9292C24.0088 22.9253 24.0088 22.9214 24.0088 22.9175C24.0088 22.9139 24.0088 22.91 24.0088 22.9063C24.0088 22.9024 24.0088 22.8987 24.0088 22.895C24.0088 22.8911 24.0088 22.8875 24.0088 22.8838C24.0088 22.8801 24.0088 22.8764 24.0088 22.8727C24.0088 22.869 24.0088 22.8653 24.0088 22.8618C24.0088 22.8581 24.0088 22.8544 24.0088 22.8508C24.0088 22.8471 24.0088 22.8436 24.0088 22.8399C24.0088 22.8364 24.0088 22.8327 24.0088 22.8292C24.0088 22.8257 24.0088 22.8222 24.0088 22.8186C24.0088 22.8151 24.0088 22.8116 24.0088 22.8081C24.0088 22.8046 24.0088 22.801 24.0088 22.7977C24.0088 22.7942 24.0088 22.7907 24.0088 22.7873C24.0088 22.7838 24.0088 22.7804 24.0088 22.7769C24.0088 22.7736 24.0088 22.7702 24.0088 22.7669C24.0088 22.7634 24.0088 22.76 24.0088 22.7567C24.0088 22.7533 24.0088 22.75 24.0088 22.7467C24.0088 22.7433 24.0088 22.7401 24.0088 22.7368C24.0088 22.7335 24.0088 22.7303 24.0088 22.7269C24.0088 22.7238 24.0088 22.7204 24.0088 22.7173C24.0088 22.7139 24.0088 22.7107 24.0088 22.7076C24.0088 22.7044 24.0088 22.7012 24.0088 22.6981C24.0088 22.6949 24.0088 22.6917 24.0088 22.6886C24.0088 22.6854 24.0088 22.6822 24.0088 22.6791C24.0088 22.6761 24.0088 22.6729 24.0088 22.6699C24.0088 22.6667 24.0088 22.6638 24.0088 22.6606C24.0088 22.6576 24.0088 22.6546 24.0088 22.6514C24.0088 22.6484 24.0088 22.6455 24.0088 22.6425C24.0088 22.6395 24.0088 22.6365 24.0088 22.6335C24.0088 22.6305 24.0088 22.6275 24.0088 22.6247C24.0088 22.6217 24.0088 22.6187 24.0088 22.6159C24.0088 22.6129 24.0088 22.6099 24.0088 22.6071C24.0088 22.6043 24.0088 22.6013 24.0088 22.5985C24.0088 22.5956 24.0088 22.5927 24.0088 22.5898C24.0088 22.587 24.0088 22.5842 24.0088 22.5814C24.0088 22.5786 24.0088 22.5758 24.0088 22.5731C24.0088 22.5703 24.0088 22.5675 24.0088 22.5647C24.0088 22.562 24.0088 22.5592 24.0088 22.5566C24.0088 22.5538 24.0088 22.5511 24.0088 22.5483C24.0088 22.5457 24.0088 22.543 24.0088 22.5404C24.0088 22.5376 24.0088 22.5349 24.0088 22.5323C24.0088 22.5296 24.0088 22.527 24.0088 22.5244C24.0088 22.5217 24.0088 22.5193 24.0088 22.5166C24.0088 22.514 24.0088 22.5113 24.0088 22.5089C24.0088 22.5062 24.0088 22.5038 24.0088 22.5011C24.0088 22.4987 24.0088 22.496 24.0088 22.4936C24.0088 22.4911 24.0088 22.4885 24.0088 22.486C24.0088 22.4835 24.0088 22.4811 24.0088 22.4786C24.0088 22.4761 24.0088 22.4737 24.0088 22.4712C24.0088 22.4687 24.0088 22.4663 24.0088 22.464C24.0088 22.4615 24.0088 22.4591 24.0088 22.4568C24.0088 22.4543 24.0088 22.452 24.0088 22.4496C24.0088 22.4473 24.0088 22.4448 24.0088 22.4425C24.0088 22.4402 24.0088 22.4378 24.0088 22.4355C24.0088 22.4332 24.0088 22.4309 24.0088 22.4286C24.0088 22.4263 24.0088 22.424 24.0088 22.4218C24.0088 22.4195 24.0088 22.4172 24.0088 22.4151C24.0088 22.4128 24.0088 22.4105 24.0088 22.4084C24.0088 22.4061 24.0088 22.404 24.0088 22.4017C24.0088 22.3996 24.0088 22.3973 24.0088 22.3952C24.0088 22.3929 24.0088 22.3908 24.0088 22.3887C24.0088 22.3866 24.0088 22.3844 24.0088 22.3823C24.0088 22.3802 24.0088 22.3781 24.0088 22.376C24.0088 22.3739 24.0088 22.3718 24.0088 22.3697C24.0088 22.3675 24.0088 22.3654 24.0088 22.3635C24.0088 22.3614 24.0088 22.3593 24.0088 22.3573C24.0088 22.3552 24.0088 22.3533 24.0088 22.3514C24.0088 22.3492 24.0088 22.3473 24.0088 22.3452C24.0088 22.3433 24.0088 22.3413 24.0088 22.3394C24.0088 22.3375 24.0088 22.3355 24.0088 22.3336C24.0088 22.3316 24.0088 22.3297 24.0088 22.3278C24.0088 22.3258 24.0088 22.3239 24.0088 22.322C24.0088 22.32 24.0088 22.3183 24.0088 22.3163C24.0088 22.3144 24.0088 22.3126 24.0088 22.3107C24.0088 22.3089 24.0088 22.307 24.0088 22.3052C24.0088 22.3035 24.0088 22.3015 24.0088 22.2998C24.0088 22.298 24.0088 22.2963 24.0088 22.2943C24.0088 22.2926 24.0088 22.2908 24.0088 22.2891C24.0088 22.2873 24.0088 22.2855 24.0088 22.2838C24.0088 22.282 24.0088 22.2804 24.0088 22.2787C24.0088 22.2769 24.0088 22.2751 24.0088 22.2736C24.0088 22.2718 24.0088 22.27 24.0088 22.2685C24.0088 22.2667 24.0088 22.2651 24.0088 22.2634C24.0088 22.2618 24.0088 22.2602 24.0088 22.2584C24.0088 22.2568 24.0088 22.2553 24.0088 22.2537C24.0088 22.2519 24.0088 22.2503 24.0088 22.2487C24.0088 22.2472 24.0088 22.2456 24.0088 22.244C24.0088 22.2424 24.0088 22.2408 24.0088 22.2394C24.0088 22.2378 24.0088 22.2363 24.0088 22.2347C24.0088 22.2333 24.0088 22.2317 24.0088 22.2301C24.0088 22.2287 24.0088 22.2271 24.0088 22.2257C24.0088 22.2241 24.0088 22.2227 24.0088 22.2211C24.0088 22.2197 24.0088 22.2183 24.0088 22.2167C24.0088 22.2153 24.0088 22.2139 24.0088 22.2125C24.0088 22.2111 24.0088 22.2095 24.0088 22.2081C24.0088 22.2067 24.0088 22.2053 24.0088 22.2039C24.0088 22.2025 24.0088 22.2012 24.0088 22.1998C24.0088 22.1984 24.0088 22.197 24.0088 22.1956C24.0088 22.1944 24.0088 22.193 24.0088 22.1915C24.0088 22.1903 24.0088 22.1889 24.0088 22.1877C24.0088 22.1863 24.0088 22.185 24.0088 22.1836C24.0088 22.1824 24.0088 22.1812 24.0088 22.1798C24.0088 22.1785 24.0088 22.1773 24.0088 22.1759C24.0088 22.1747 24.0088 22.1734 24.0088 22.1722C24.0088 22.171 24.0088 22.1697 24.0088 22.1685C24.0088 22.1673 24.0088 22.166 24.0088 22.1648C24.0088 22.1636 24.0088 22.1623 24.0088 22.1613C24.0088 22.16 24.0088 22.1588 24.0088 22.1576C24.0088 22.1565 24.0088 22.1553 24.0088 22.1541C24.0088 22.153 24.0088 22.1518 24.0088 22.1507C24.0088 22.1495 24.0088 22.1484 24.0088 22.1472C24.0088 22.1461 24.0088 22.1451 24.0088 22.1439C24.0088 22.1428 24.0088 22.1417 24.0088 22.1407C24.0088 22.1396 24.0088 22.1384 24.0088 22.1373C24.0088 22.1363 24.0088 22.1352 24.0088 22.1342C24.0088 22.1331 24.0088 22.1321 24.0088 22.131C24.0088 22.1299 24.0088 22.1289 24.0088 22.128C24.0088 22.127 24.0088 22.1259 24.0088 22.1248C24.0088 22.124 24.0088 22.1229 24.0088 22.1219C24.0088 22.121 24.0088 22.1199 24.0088 22.1189C24.0088 22.118 24.0088 22.1169 24.0088 22.116C24.0088 22.1152 24.0088 22.1141 24.0088 22.1132C24.0088 22.1122 24.0088 22.1113 24.0088 22.1104C24.0088 22.1094 24.0088 22.1085 24.0088 22.1076C24.0088 22.1067 24.0088 22.1058 24.0088 22.105C24.0088 22.1041 24.0088 22.103 24.0088 22.1021C24.0088 22.1013 24.0088 22.1004 24.0088 22.0997C24.0088 22.0988 24.0088 22.0979 24.0088 22.097C24.0088 22.0962 24.0088 22.0953 24.0088 22.0946C24.0088 22.0937 24.0088 22.0928 24.0088 22.0919C24.0088 22.0912 24.0088 22.0903 24.0088 22.0895C24.0088 22.0888 24.0088 22.0879 24.0088 22.0872C24.0088 22.0863 24.0088 22.0856 24.0088 22.0847C24.0088 22.084 24.0088 22.0833 24.0088 22.0824C24.0088 22.0817 24.0088 22.081 24.0088 22.0801C24.0088 22.0794 24.0088 22.0787 24.0088 22.078C24.0088 22.0773 24.0088 22.0764 24.0088 22.0757C24.0088 22.075 24.0088 22.0743 24.0088 22.0736C24.0088 22.0729 24.0088 22.0722 24.0088 22.0715C24.0088 22.0708 24.0088 22.0701 24.0088 22.0694C24.0088 22.0687 24.0088 22.0682 24.0088 22.0675C24.0088 22.0668 24.0088 22.0661 24.0088 22.0655C24.0088 22.0648 24.0088 22.0641 24.0088 22.0634C24.0088 22.0629 24.0088 22.0622 24.0088 22.0617C24.0088 22.061 24.0088 22.0604 24.0088 22.0597C24.0088 22.059 24.0088 22.0585 24.0088 22.058C24.0088 22.0573 24.0088 22.0567 24.0088 22.056C24.0088 22.0555 24.0088 22.055 24.0088 22.0543C24.0088 22.0537 24.0088 22.0548 24.0088 22.0543C24.0088 22.0536 24.0088 22.0515 24.0088 22.0509C24.0088 22.0504 24.0088 22.0515 24.0088 22.0509C24.0088 22.0504 24.0088 22.0483 24.0088 22.0478C24.0088 22.0472 24.0088 22.0483 24.0088 22.0478C24.0088 22.0472 24.0088 22.0451 24.0088 22.0446C24.0088 22.0441 24.0088 22.0451 24.0088 22.0446C24.0088 22.0441 24.0088 22.0421 24.0088 22.0416C24.0088 22.0411 24.0088 22.0419 24.0088 22.0416C24.0088 22.0411 24.0088 22.0391 24.0088 22.0388C24.0088 22.0383 24.0088 22.0393 24.0088 22.0388C24.0088 22.0383 24.0088 22.0365 24.0088 22.036C24.0088 22.0356 24.0088 22.0363 24.0088 22.036C24.0088 22.0356 24.0088 22.0339 24.0088 22.0335C24.0088 22.033 24.0088 22.0339 24.0088 22.0335C24.0088 22.033 24.0088 22.0314 24.0088 22.031C24.0088 22.0307 24.0088 22.0314 24.0088 22.031C24.0088 22.0307 24.0088 22.0291 24.0088 22.0287C24.0088 22.0282 24.0088 22.0291 24.0088 22.0287C24.0088 22.0284 24.0088 22.0268 24.0088 22.0265C24.0088 22.0261 24.0088 22.0268 24.0088 22.0265C24.0088 22.0261 24.0088 22.0247 24.0088 22.0243C24.0088 22.024 24.0088 22.0247 24.0088 22.0243C24.0088 22.024 24.0088 22.0228 24.0088 22.0224C24.0088 22.0221 24.0088 22.0228 24.0088 22.0224C24.0088 22.0222 24.0088 22.0208 24.0088 22.0205C24.0088 22.0201 24.0088 22.0182 24.0088 22.0178C24.0088 22.0177 24.0088 22.0157 24.0088 22.0155C24.0088 22.0154 24.0088 22.0136 24.0088 22.0134C24.0088 22.0133 24.0088 22.0117 24.0088 22.0113C24.0088 22.0111 24.0088 22.0099 24.0088 22.0096C24.0088 22.0094 24.0088 22.0078 24.0088 22.0076C24.0088 22.0075 24.0088 22.0078 24.0088 22.0076C24.0088 22.0075 24.0088 22.006 24.0088 22.0059C24.0088 22.0057 24.0088 22.0039 24.0088 22.0038C24.0088 22.0038 24.0088 22.0022 24.0088 22.002C24.0088 22.0018 24.0088 21.9999 24.0088 21.9999H22.6888ZM24.0088 21.9999V13.1999H21.3688V21.9999H24.0088Z" fill="black"/>
</svg>
