<svg width="25" height="24" viewBox="0 0 25 24" fill="none" xmlns="http://www.w3.org/2000/svg">
<rect x="1.68896" y="1" width="22" height="22" rx="11" stroke="#4BD828" stroke-width="2"/>
<path d="M6.16723 11C5.62695 11 5.18896 11.438 5.18896 11.9783C5.18896 12.5185 5.62695 12.9565 6.16723 12.9565V11ZM12.689 12.9565C13.2292 12.9565 13.6672 12.5185 13.6672 11.9783C13.6672 11.438 13.2292 11 12.689 11V12.9565ZM12.689 11C12.1487 11 11.7107 11.438 11.7107 11.9783C11.7107 12.5185 12.689 12.9565 12.689 12.9565V11ZM19.2107 12.9565C19.751 12.9565 20.189 12.5185 20.189 11.9783C20.189 11.438 19.751 11 19.2107 11V12.9565ZM13.6672 11.9783C13.6672 11.438 13.2292 11 12.689 11C12.1487 11 11.7107 11.438 11.7107 11.9783H13.6672ZM11.7107 11.9783C11.7107 12.5185 12.689 12.9565 12.689 12.9565C13.2292 12.9565 13.6672 12.5185 13.6672 11.9783H11.7107ZM6.16723 12.9565H12.689V11H6.16723V12.9565ZM12.689 12.9565H19.2107V11H12.689V12.9565Z" fill="#4BD828"/>
<path d="M11.689 18.5217C11.689 19.062 12.127 19.5 12.6672 19.5C13.2075 19.5 13.6455 19.062 13.6455 18.5217H11.689ZM13.6455 12C13.6455 11.4597 13.2075 11.0217 12.6672 11.0217C12.127 11.0217 11.689 11.4597 11.689 12H13.6455ZM11.689 12C11.689 12.5403 12.127 12.9783 12.6672 12.9783C13.2075 12.9783 13.6455 12 13.6455 12H11.689ZM13.6455 5.47826C13.6455 4.938 13.2075 4.5 12.6672 4.5C12.127 4.5 11.689 4.938 11.689 5.47826H13.6455ZM12.6672 11.0217C12.127 11.0217 11.689 11.4597 11.689 12C11.689 12.5403 12.127 12.9783 12.6672 12.9783V11.0217ZM12.6672 12.9783C13.2075 12.9783 13.6455 12 13.6455 12C13.6455 11.4597 13.2075 11.0217 12.6672 11.0217V12.9783ZM13.6455 18.5217V12H11.689V18.5217H13.6455ZM13.6455 12V5.47826H11.689V12H13.6455Z" fill="#4BD828"/>
</svg>
