<svg width="25" height="24" viewBox="0 0 25 24" fill="none" xmlns="http://www.w3.org/2000/svg">
<path d="M19.1888 19.5V4.5M16.6117 9.57395C17.899 10.3784 18.5425 10.7807 18.7633 11.2957C18.956 11.7454 18.956 12.2546 18.7633 12.7044C18.5425 13.2193 17.899 13.6216 16.6117 14.4261L10.5661 18.2047C9.13743 19.0976 8.42311 19.544 7.83364 19.4966C7.31981 19.4553 6.84881 19.1943 6.54145 18.7804C6.18884 18.3057 6.18884 17.4633 6.18884 15.7786V8.22144C6.18884 6.53672 6.18884 5.69438 6.54145 5.21961C6.84881 4.80578 7.31981 4.54473 7.83364 4.50342C8.42311 4.45603 9.13743 4.90248 10.5661 5.79538L16.6117 9.57395Z" stroke="black" stroke-width="2" stroke-linecap="round" stroke-linejoin="round"/>
</svg>
