<svg width="25" height="24" viewBox="0 0 25 24" fill="none" xmlns="http://www.w3.org/2000/svg">
<path d="M6.18884 4.5L6.18884 19.5M8.76594 14.426C7.4787 13.6216 6.83517 13.2193 6.61443 12.7043C6.42168 12.2546 6.42168 11.7454 6.61443 11.2956C6.83517 10.7807 7.4787 10.3784 8.76594 9.57389L14.8116 5.79532C16.2403 4.90244 16.9546 4.45595 17.544 4.50343C18.0579 4.54473 18.5289 4.8057 18.8362 5.21955C19.1888 5.69429 19.1888 6.53666 19.1888 8.22139V15.7786C19.1888 17.4633 19.1888 18.3056 18.8362 18.7804C18.5289 19.1942 18.0579 19.4553 17.544 19.4966C16.9546 19.544 16.2403 19.0975 14.8116 18.2046L8.76594 14.426Z" stroke="black" stroke-width="2" stroke-linecap="round" stroke-linejoin="round"/>
</svg>
