<svg width="25" height="24" viewBox="0 0 25 24" fill="none" xmlns="http://www.w3.org/2000/svg">
<rect x="1.68896" y="1" width="22" height="22" rx="11" stroke="#FF3636" stroke-width="2"/>
<path d="M6.16723 11.0217C5.62695 11.0217 5.18896 11.4597 5.18896 12C5.18896 12.5403 5.62695 12.9783 6.16723 12.9783V11.0217ZM12.689 12.9783C13.2292 12.9783 13.6672 12.5403 13.6672 12C13.6672 11.4597 13.2292 11.0217 12.689 11.0217V12.9783ZM12.689 11.0217C12.1487 11.0217 11.7107 11.4597 11.7107 12C11.7107 12.5403 12.689 12.9783 12.689 12.9783V11.0217ZM19.2107 12.9783C19.751 12.9783 20.189 12.5403 20.189 12C20.189 11.4597 19.751 11.0217 19.2107 11.0217V12.9783ZM13.6672 12C13.6672 11.4597 13.2292 11.0217 12.689 11.0217C12.1487 11.0217 11.7107 11.4597 11.7107 12H13.6672ZM11.7107 12C11.7107 12.5403 12.689 12.9783 12.689 12.9783C13.2292 12.9783 13.6672 12.5403 13.6672 12H11.7107ZM6.16723 12.9783H12.689V11.0217H6.16723V12.9783ZM12.689 12.9783H19.2107V11.0217H12.689V12.9783Z" fill="#FF3636"/>
</svg>
