<svg width="550" height="214" viewBox="0 0 550 214" fill="none" xmlns="http://www.w3.org/2000/svg">
<path d="M189.742 36.3557V38.8557H187.242H179V55.3389L187.241 55.3387L189.742 55.3386V57.8387V72.1609V74.6609H187.242H179V91.1443H187.242H189.742V93.6443V101.886H209.806V93.6443V91.1443H212.306H223.047H225.547V93.6443V105.466H233.789H236.289V107.966V116.208H248.111H250.611V118.708V126.95H302.9V118.708V116.208H305.4H317.222V107.966V105.466H319.722H327.963V93.6443V91.1443H330.463H338.705V38.8557H330.463H327.963V36.3557V24.5334H319.721H317.221V22.0334V13.7919H305.4H302.9V11.2919V3.05042H250.611V11.2919V13.7919H248.111H236.288V22.0334V24.5334H233.788H225.547V36.3557V38.8557H223.047H212.305H209.805V36.3557V28.1142H189.742V36.3557Z" fill="#745EE1" stroke="white" stroke-width="5"/>
<path d="M219.56 50.7988H217.06V53.2988V59.0644V61.5644H219.56H373.5H376V59.0644V53.2988V50.7988H373.5L219.56 50.7988Z" fill="#D9F16F" stroke="#D9F16F" stroke-width="5"/>
<path d="M260.996 56.5739H258.496V59.0739V64.9932V67.4932H260.996H308.351H310.851V64.9932V59.0739V56.5739H308.351H260.996Z" fill="#D9F16F" stroke="#D9F16F" stroke-width="5"/>
<path d="M266.915 62.4937H264.415V64.9937V70.913V73.413H266.915H302.431H304.931V70.913V64.9937V62.4937H302.431H266.915Z" fill="#D9F16F" stroke="#D9F16F" stroke-width="5"/>
<path d="M272.834 68.4135H270.334V70.9135V76.8328V79.3328H272.834H296.512H299.012V76.8328V70.9135V68.4135H296.512H272.834Z" fill="#D9F16F" stroke="#D9F16F" stroke-width="5"/>
<path d="M290.592 56.5739H288.092V59.0739V64.9932V67.4932H290.592H296.511H299.011V64.9932V59.0739V56.5739H296.511H290.592Z" fill="#D9F16F" stroke="#D9F16F" stroke-width="5"/>
<path d="M284.673 62.4937H282.173V64.9937V70.913V73.413H284.673H290.592H293.092V70.913V64.9937V62.4937H290.592H284.673Z" fill="#D9F16F" stroke="#D9F16F" stroke-width="5"/>
<path d="M332.028 62.4937H329.528V64.9937V70.913V73.413H332.028H367.544H370.044V70.913V64.9937V62.4937H367.544H332.028Z" fill="#D9F16F" stroke="#D9F16F" stroke-width="5"/>
<path d="M337.947 68.4135H335.447V70.9135V76.8328V79.3328H337.947H361.625H364.125V76.8328V70.9135V68.4135H361.625H337.947Z" fill="#D9F16F" stroke="#D9F16F" stroke-width="5"/>
<path d="M326.109 56.5739H323.609V59.0739V64.9932V67.4932H326.109H373.464H375.964V64.9932V59.0739V56.5739H373.464H326.109Z" fill="#D9F16F" stroke="#D9F16F" stroke-width="5"/>
<path d="M355.705 56.5739H353.205V59.0739V64.9932V67.4932H355.705H361.625H364.125V64.9932V59.0739V56.5739H361.625H355.705Z" fill="#D9F16F" stroke="#D9F16F" stroke-width="5"/>
<path d="M349.786 62.4937H347.286V64.9937V70.913V73.413H349.786H355.705H358.205V70.913V64.9937V62.4937H355.705H349.786Z" fill="#D9F16F" stroke="#D9F16F" stroke-width="5"/>
<path d="M373.5 53.2988L219.56 53.2988V59.0644L373.5 59.0644V53.2988Z" fill="black"/>
<path d="M308.351 59.0739H260.996V64.9932H308.351V59.0739Z" fill="black"/>
<path d="M302.431 64.9937H266.915V70.913H302.431V64.9937Z" fill="black"/>
<path d="M296.512 70.9135H272.834V76.8328H296.512V70.9135Z" fill="black"/>
<path d="M296.511 59.0739H290.592V64.9932H296.511V59.0739Z" fill="#D9F16F"/>
<path d="M290.592 64.9937H284.673V70.913H290.592V64.9937Z" fill="#D9F16F"/>
<path d="M367.544 64.9937H332.028V70.913H367.544V64.9937Z" fill="black"/>
<path d="M361.625 70.9135H337.947V76.8328H361.625V70.9135Z" fill="black"/>
<path d="M373.464 59.0739H326.109V64.9932H373.464V59.0739Z" fill="black"/>
<path d="M361.625 59.0739H355.705V64.9932H361.625V59.0739Z" fill="#D9F16F"/>
<path d="M355.705 64.9937H349.786V70.913H355.705V64.9937Z" fill="#D9F16F"/>
<path d="M88.5 206.449H81.5V171.449H88.5V185.499H105.95V171.449H112.9V206.449H105.95V192.499H88.5V206.449ZM147.577 206.449H117.877V171.449H147.577V178.449H124.877V185.499H145.827V192.499H124.877V199.449H147.577V206.449ZM155.507 164.499V157.499H162.507V162.049H173.007V157.499H180.007V164.499L176.507 167.999H159.057L155.507 164.499ZM159.057 206.449H152.057V171.449H159.057V194.749L176.507 171.449H183.457V206.449H176.507V183.099L159.057 206.449ZM195.434 188.999H212.884V178.449H195.434V188.999ZM195.434 206.449H188.434V171.449H216.384L219.834 174.999V192.499L216.384 195.999H195.434V206.449ZM231.322 199.449H248.772V178.449H231.322V199.449ZM252.272 206.449H227.772L224.322 202.999V174.999L227.772 171.449H252.272L255.722 174.999V202.999L252.272 206.449Z" fill="#D9F16F"/>
<path d="M288.649 206.449H264.149L260.699 202.999V174.999L264.149 171.449H288.649L292.099 174.999V181.949H285.149V178.449H267.699V199.449H285.149V195.999H292.099V202.999L288.649 206.449ZM326.288 206.449H296.588V171.449H326.288V178.449H303.588V185.499H324.538V192.499H303.588V199.449H326.288V206.449ZM337.268 206.449H330.268V181.949L340.718 171.449H361.668V206.449H354.718V178.449H344.218L337.268 185.449V206.449ZM396.356 206.449H366.656V171.449H396.356V178.449H373.656V185.499H394.606V192.499H373.656V199.449H396.356V206.449ZM409.286 199.449H423.286V178.449H416.286L409.286 185.449V199.449ZM405.836 213.449H398.836V199.449H402.286V181.949L412.786 171.449H430.236V199.449H433.786V213.449H426.786V206.449H405.836V213.449ZM444.262 199.449H461.712V188.999H444.262V199.449ZM465.212 206.449H437.262V171.449H444.262V181.999H465.212L468.662 185.499V202.999L465.212 206.449Z" fill="white"/>
</svg>
