<svg width="25" height="24" viewBox="0 0 25 24" fill="none" xmlns="http://www.w3.org/2000/svg">
<path d="M16.7522 9.57395C18.0395 10.3784 18.683 10.7807 18.9038 11.2957C19.0965 11.7454 19.0965 12.2546 18.9038 12.7044C18.683 13.2193 18.0395 13.6216 16.7522 14.4261L10.7066 18.2047C9.27794 19.0976 8.56362 19.544 7.97414 19.4966C7.46032 19.4553 6.98931 19.1943 6.68196 18.7804C6.32935 18.3057 6.32935 17.4633 6.32935 15.7786V8.22144C6.32935 6.53672 6.32935 5.69438 6.68196 5.21961C6.98931 4.80578 7.46032 4.54473 7.97414 4.50342C8.56362 4.45603 9.27794 4.90248 10.7066 5.79538L16.7522 9.57395Z" stroke="black" stroke-width="2" stroke-linejoin="round"/>
</svg>
