<svg width="51" height="50" viewBox="0 0 51 50" fill="none" xmlns="http://www.w3.org/2000/svg">
<path d="M33.0798 19.4575C34.2395 21.0014 34.9266 22.9205 34.9266 25C34.9266 27.0796 34.2395 28.9986 33.0798 30.5426M36.7741 12.6062C40.1758 15.6509 42.3167 20.0754 42.3167 25C42.3167 29.9246 40.1758 34.3491 36.7741 37.3938M12.0173 19.4575H13.6823C14.7002 19.4575 15.2091 19.4575 15.6807 19.3306C16.0986 19.2181 16.4934 19.0332 16.8473 18.7842C17.2467 18.5031 17.5725 18.1121 18.2241 17.3302L23.0755 11.5085C23.8804 10.5425 24.2828 10.0596 24.6344 10.0093C24.9389 9.96578 25.245 10.0766 25.451 10.305C25.689 10.5686 25.689 11.1973 25.689 12.4547V37.5453C25.689 38.8027 25.689 39.4314 25.451 39.6951C25.245 39.9234 24.9389 40.0343 24.6344 39.9907C24.283 39.9404 23.8804 39.4575 23.0755 38.4916L18.2241 32.6699C17.5725 31.888 17.2467 31.4969 16.8473 31.2158C16.4934 30.9668 16.0986 30.7819 15.6807 30.6695C15.2091 30.5426 14.7002 30.5426 13.6823 30.5426H12.0173C10.9826 30.5426 10.4652 30.5426 10.07 30.3412C9.72242 30.1641 9.43978 29.8814 9.26264 29.5339C9.06128 29.1387 9.06128 28.6212 9.06128 27.5866V22.4135C9.06128 21.3787 9.06128 20.8614 9.26264 20.4662C9.43978 20.1186 9.72242 19.8359 10.07 19.6588C10.4652 19.4575 10.9826 19.4575 12.0173 19.4575Z" stroke="black" stroke-width="3" stroke-linecap="round" stroke-linejoin="round"/>
</svg>
