<svg width="51" height="50" viewBox="0 0 51 50" fill="none" xmlns="http://www.w3.org/2000/svg">
<path d="M33.079 20.3812L42.3166 29.6189M42.3166 20.3812L33.079 29.6189M12.0172 19.4575H13.6822C14.7 19.4575 15.209 19.4575 15.6806 19.3306C16.0984 19.2181 16.4933 19.0332 16.8472 18.7842C17.2466 18.5031 17.5723 18.1121 18.224 17.3302L23.0754 11.5085C23.8803 10.5425 24.2827 10.0596 24.6343 10.0093C24.9388 9.96578 25.2449 10.0766 25.4509 10.305C25.6889 10.5686 25.6889 11.1973 25.6889 12.4547V37.5453C25.6889 38.8027 25.6889 39.4314 25.4509 39.6951C25.2449 39.9234 24.9388 40.0343 24.6343 39.9907C24.2829 39.9404 23.8803 39.4575 23.0754 38.4916L18.224 32.6699C17.5723 31.888 17.2466 31.4969 16.8472 31.2158C16.4933 30.9668 16.0984 30.7819 15.6806 30.6695C15.209 30.5426 14.7 30.5426 13.6822 30.5426H12.0172C10.9825 30.5426 10.4651 30.5426 10.0699 30.3412C9.72229 30.1641 9.43966 29.8814 9.26252 29.5339C9.06116 29.1387 9.06116 28.6212 9.06116 27.5866V22.4135C9.06116 21.3787 9.06116 20.8614 9.26252 20.4662C9.43966 20.1186 9.72229 19.8359 10.0699 19.6588C10.4651 19.4575 10.9825 19.4575 12.0172 19.4575Z" stroke="black" stroke-width="3" stroke-linecap="round" stroke-linejoin="round"/>
</svg>
