<svg xmlns="http://www.w3.org/2000/svg" style="display: none;">

    <symbol id="icon-login" viewBox="0 0 24 24">
        <path d="M15.014 8.468a.75.75 0 0 0-1.058 1.064l1.058-1.064Zm1.957 4.064a.75.75 0 0 0 1.058-1.064l-1.058 1.064Zm1.058 0a.75.75 0 0 0-1.058-1.064l1.058 1.064Zm-4.073 1.936a.75.75 0 0 0 1.058 1.064l-1.058-1.064ZM17.5 12.75a.75.75 0 0 0 0-1.5v1.5Zm-14-1.5a.75.75 0 0 0 0 1.5v-1.5Zm10.456-1.718 3.015 3 1.058-1.064-3.015-3-1.058 1.064Zm3.015 1.936-3.015 3 1.058 1.064 3.015-3-1.058-1.064Zm.529-.218h-14v1.5h14v-1.5Z"></path>
    </symbol>

    <symbol id="icon-signup" viewBox="0 0 24 24">
        <g fill="none" stroke="#fff" stroke-linecap="round" stroke-linejoin="round" stroke-width="2"><path d="M17 21v-2a4 4 0 0 0-4-4H5a4 4 0 0 0-4 4v2"/><circle cx="9" cy="7" r="4"/><path d="M17 11h6M20 8v6"/></g>
    </symbol>

    <symbol id="icon-profile" viewBox="0 0 24 24">
        <path d="M12 2C6.48 2 2 6.48 2 12s4.48 10 10 10 10-4.48 10-10S17.52 2 12 2zm0 18c-2.67 0-5.07-1.1-6.8-2.86C5.09 15.81 6.31 14 8 14h8c1.69 0 2.91 1.81 2.8 4.14C17.07 18.9 14.67 20 12 20zm0-16c2.21 0 4 1.79 4 4s-1.79 4-4 4-4-1.79-4-4 1.79-4 4-4z"></path>
    </symbol>
    <symbol id="icon-user" viewBox="0 0 24 24">
        <path fill="#000" fill-rule="evenodd" d="M11 20c4.971 0 9-4.478 9-10S15.971 0 11 0 2 4.478 2 10s4.029 10 9 10Zm8.703-2.681C17.691 20.161 14.546 22 11 22c-3.546 0-6.691-1.839-8.703-4.681C.904 18.411 0 20.091 0 22v4a6 6 0 0 0 6 6h10a6 6 0 0 0 6-6v-4c0-1.909-.904-3.589-2.297-4.681Z"/>
    </symbol>
    <symbol id="icon-letter" viewBox="0 0 24 24">
        <path fill="#000" fill-rule="evenodd" d="M3.172 5.172C2 6.343 2 8.229 2 12c0 3.771 0 5.657 1.172 6.828C4.343 20 6.229 20 10 20h4c3.771 0 5.657 0 6.828-1.172C22 17.657 22 15.771 22 12c0-3.771 0-5.657-1.172-6.828C19.657 4 17.771 4 14 4h-4C6.229 4 4.343 4 3.172 5.172ZM18.576 7.52a.75.75 0 0 1-.096 1.056l-2.196 1.83c-.887.74-1.605 1.338-2.24 1.746-.66.425-1.303.693-2.044.693-.741 0-1.384-.269-2.045-.693-.634-.408-1.352-1.007-2.239-1.745L5.52 8.577a.75.75 0 0 1 .96-1.153L8.64 9.223c.933.777 1.58 1.315 2.128 1.667.529.34.888.455 1.233.455.345 0 .704-.114 1.233-.455.547-.352 1.195-.89 2.128-1.667l2.159-1.8a.75.75 0 0 1 1.056.097Z" clip-rule="evenodd"/>
    </symbol>
    <symbol id="icon-birthday" viewBox="0 0 24 24">
        <path d="m25 .094-.781 1C23.516 1.992 20 6.578 20 9a5.019 5.019 0 0 0 4 4.906V10c0-.55.45-1 1-1s1 .45 1 1v3.906A5.019 5.019 0 0 0 30 9c0-2.422-3.516-7.008-4.219-7.906ZM23 15c-1.652 0-3 1.348-3 3v8h10v-8c0-1.652-1.348-3-3-3ZM11 28c-2.82 0-5.238 1.684-6.344 4.094.57 1.504 1.149 2.304 1.157 2.312C6.702 35.594 8.39 37 11.405 37c2.457 0 4.281-.844 5.594-2.594l.75-1.031.813 1C20.043 36.152 22.152 37 25 37c2.77 0 5-.898 6.438-2.625l.812-1 .75 1.031C34.313 36.156 36.137 37 38.594 37c2.457 0 4.281-.844 5.593-2.594.028-.035.778-.992 1.188-2.281A6.988 6.988 0 0 0 39 28Zm-7 7.313V42h42v-6.656c-.125.18-.207.265-.219.281C44.113 37.848 41.68 39 38.594 39c-2.653 0-4.809-.832-6.438-2.5C30.754 37.785 28.5 39 25 39c-2.96 0-5.36-.836-7.156-2.5-1.63 1.664-3.79 2.5-6.438 2.5-3.844 0-6.054-1.855-7.219-3.406A14.57 14.57 0 0 1 4 35.312ZM0 44v1c0 5 4.89 5 6.5 5h37c1.605 0 6.5 0 6.5-5v-1Z"/>
    </symbol>
</svg>
