<?xml version="1.0" encoding="iso-8859-1"?>
<!-- Uploaded to: SVG Repo, www.svgrepo.com, Generator: SVG Repo Mixer Tools -->
<svg version="1.1" id="Layer_1" xmlns="http://www.w3.org/2000/svg" xmlns:xlink="http://www.w3.org/1999/xlink" 
	 viewBox="0 0 502 502" xml:space="preserve">
<g>
	<g>
		<rect x="69.432" y="10" style="fill:#D1E2EB;" width="363.136" height="482"/>
		<path d="M432.568,502H69.432c-5.523,0-10-4.478-10-10V10c0-5.522,4.477-10,10-10h363.136c5.522,0,10,4.478,10,10v482
			C442.568,497.522,438.091,502,432.568,502z M79.432,482h343.136V20H79.432V482z"/>
	</g>
	<g>
		<rect x="321.337" y="174.014" style="fill:#4EC9DC;" width="67.611" height="67.611"/>
		<path d="M388.948,251.624h-67.611c-5.522,0-10-4.478-10-10v-67.61c0-5.522,4.478-10,10-10h67.611c5.522,0,10,4.478,10,10v67.61
			C398.948,247.146,394.47,251.624,388.948,251.624z M331.337,231.624h47.611v-47.61h-47.611V231.624z"/>
	</g>
	<g>
		<rect x="216.649" y="174.014" style="fill:#4EC9DC;" width="67.611" height="67.611"/>
		<path d="M284.26,251.624h-67.61c-5.523,0-10-4.478-10-10v-67.61c0-5.522,4.477-10,10-10h67.61c5.522,0,10,4.478,10,10v67.61
			C294.26,247.146,289.782,251.624,284.26,251.624z M226.649,231.624h47.61v-47.61h-47.61V231.624z"/>
	</g>
	<g>
		<rect x="111.961" y="174.014" style="fill:#4EC9DC;" width="67.611" height="67.611"/>
		<path d="M179.572,251.624h-67.611c-5.523,0-10-4.478-10-10v-67.61c0-5.522,4.477-10,10-10h67.611c5.523,0,10,4.478,10,10v67.61
			C189.572,247.146,185.095,251.624,179.572,251.624z M121.961,231.624h47.611v-47.61h-47.611
			C121.961,184.014,121.961,231.624,121.961,231.624z"/>
	</g>
	<g>
		<rect x="111.961" y="48" style="fill:#4EC9DC;" width="276.986" height="84"/>
		<path d="M388.948,142H111.961c-5.523,0-10-4.478-10-10V48c0-5.522,4.477-10,10-10h276.987c5.522,0,10,4.478,10,10v84
			C398.948,137.522,394.47,142,388.948,142z M121.961,122h256.987V58H121.961V122z"/>
	</g>
	<g>
		<rect x="216.649" y="278.701" style="fill:#4EC9DC;" width="67.611" height="67.611"/>
		<path d="M284.26,356.313h-67.61c-5.523,0-10-4.478-10-10v-67.611c0-5.522,4.477-10,10-10h67.61c5.522,0,10,4.478,10,10v67.611
			C294.26,351.835,289.782,356.313,284.26,356.313z M226.649,336.313h47.61v-47.611h-47.61V336.313z"/>
	</g>
	<g>
		<rect x="111.961" y="278.701" style="fill:#4EC9DC;" width="67.611" height="67.611"/>
		<path d="M179.572,356.313h-67.611c-5.523,0-10-4.478-10-10v-67.611c0-5.522,4.477-10,10-10h67.611c5.523,0,10,4.478,10,10v67.611
			C189.572,351.835,185.095,356.313,179.572,356.313z M121.961,336.313h47.611v-47.611h-47.611
			C121.961,288.702,121.961,336.313,121.961,336.313z"/>
	</g>
	<g>
		<rect x="216.649" y="383.389" style="fill:#4EC9DC;" width="67.611" height="67.611"/>
		<path d="M284.26,461h-67.61c-5.523,0-10-4.478-10-10v-67.611c0-5.522,4.477-10,10-10h67.61c5.522,0,10,4.478,10,10V451
			C294.26,456.522,289.782,461,284.26,461z M226.649,441h47.61v-47.611h-47.61V441z"/>
	</g>
	<g>
		<rect x="111.961" y="383.389" style="fill:#4EC9DC;" width="67.611" height="67.611"/>
		<path d="M179.572,461h-67.611c-5.523,0-10-4.478-10-10v-67.611c0-5.522,4.477-10,10-10h67.611c5.523,0,10,4.478,10,10V451
			C189.572,456.522,185.095,461,179.572,461z M121.961,441h47.611v-47.611h-47.611C121.961,393.389,121.961,441,121.961,441z"/>
	</g>
	<g>
		<rect x="321.337" y="278.701" style="fill:#4EC9DC;" width="67.611" height="172.299"/>
		<path d="M388.948,461h-67.611c-5.522,0-10-4.478-10-10V278.701c0-5.522,4.478-10,10-10h67.611c5.522,0,10,4.478,10,10V451
			C398.948,456.522,394.47,461,388.948,461z M331.337,441h47.611V288.701h-47.611V441z"/>
	</g>
	<g>
		<path d="M249,108H148c-5.523,0-10-4.478-10-10s4.477-10,10-10h101c5.522,0,10,4.478,10,10S254.522,108,249,108z"/>
	</g>
	<g>
		<path d="M305,108h-21c-5.522,0-10-4.478-10-10s4.478-10,10-10h21c5.522,0,10,4.478,10,10S310.522,108,305,108z"/>
	</g>
</g>
</svg>