<?xml version="1.0" encoding="utf-8"?>

<!DOCTYPE svg PUBLIC "-//W3C//DTD SVG 1.1//EN" "http://www.w3.org/Graphics/SVG/1.1/DTD/svg11.dtd">
<!-- Uploaded to: SVG Repo, www.svgrepo.com, Generator: SVG Repo Mixer Tools -->
<svg height="800px" width="800px" version="1.1" id="_x32_" xmlns="http://www.w3.org/2000/svg" xmlns:xlink="http://www.w3.org/1999/xlink" 
	 viewBox="0 0 512 512"  xml:space="preserve">
<style type="text/css">
	.st0{fill:#000000;}
</style>
<g>
	<path class="st0" d="M474.234,284.88c23.29-23.268,37.781-55.654,37.766-91.185c0.015-35.53-14.476-67.917-37.766-91.178
		c-23.261-23.298-55.64-37.788-91.185-37.766c-35.53-0.022-67.924,14.469-91.17,37.766c-23.304,23.261-37.795,55.648-37.78,91.178
		c-0.015,35.53,14.476,67.916,37.78,91.185c19.268,19.297,44.809,32.517,73.21,36.488v52.976h-58.486v35.944h58.486v56.766h35.937
		v-56.766h58.486v-35.944h-58.486v-52.976C429.426,317.397,454.966,304.177,474.234,284.88z M383.049,275.921
		c-11.413-0.008-22.172-2.301-32.002-6.454c-14.724-6.222-27.327-16.684-36.198-29.817c-8.857-13.147-14.012-28.844-14.012-45.955
		c0-11.42,2.294-22.172,6.447-31.994c6.214-14.731,16.669-27.326,29.81-36.198c13.155-8.864,28.85-14.019,45.955-14.034
		c11.413,0.008,22.172,2.302,32.002,6.462c14.724,6.214,27.327,16.676,36.198,29.809c8.857,13.156,14.012,28.851,14.026,45.956
		c-0.014,11.42-2.308,22.172-6.461,31.995c-6.214,14.73-16.683,27.333-29.81,36.198
		C415.849,270.759,400.168,275.907,383.049,275.921z"/>
	<path class="st0" d="M146.912,202.305v-88.55l35.69,35.683l25.424-25.41l-79.075-79.082l-79.09,79.082l25.41,25.41l35.704-35.69
		v88.557c-28.401,3.978-53.941,17.199-73.209,36.502C14.462,262.069-0.014,294.448,0,329.979
		c-0.014,35.545,14.462,67.924,37.766,91.184c23.261,23.305,55.64,37.788,91.185,37.774c35.53,0.014,67.91-14.469,91.17-37.774
		c23.304-23.261,37.78-55.64,37.78-91.184c0-35.53-14.476-67.91-37.78-91.171C200.854,219.505,175.313,206.283,146.912,202.305z
		 M204.716,361.981c-6.229,14.73-16.683,27.326-29.81,36.198c-13.154,8.872-28.85,14.027-45.955,14.027
		c-11.427,0-22.172-2.294-32.002-6.447c-14.723-6.229-27.327-16.684-36.198-29.817c-8.872-13.155-14.026-28.844-14.026-45.962
		c0-11.412,2.294-22.164,6.446-31.987c6.229-14.723,16.684-27.326,29.824-36.198c13.14-8.864,28.836-14.011,45.955-14.026
		c11.413,0,22.157,2.294,32.002,6.454c14.709,6.222,27.312,16.676,36.184,29.809c8.871,13.156,14.026,28.844,14.026,45.948
		C211.163,341.405,208.868,352.165,204.716,361.981z"/>
</g>
</svg>