<svg display="none" xmlns="http://www.w3.org/2000/svg">
    <symbol id="Like" viewBox="0 0 512 512">
        <path d="M433.601,67.001c-24.7-24.7-57.4-38.2-92.3-38.2s-67.7,13.6-92.4,38.3l-12.9,12.9l-13.1-13.1
		c-24.7-24.7-57.6-38.4-92.5-38.4c-34.8,0-67.6,13.6-92.2,38.2c-24.7,24.7-38.3,57.5-38.2,92.4c0,34.9,13.7,67.6,38.4,92.3
		l187.8,187.8c2.6,2.6,6.1,4,9.5,4c3.4,0,6.9-1.3,9.5-3.9l188.2-187.5c24.7-24.7,38.3-57.5,38.3-92.4
		C471.801,124.501,458.301,91.701,433.601,67.001z M414.401,232.701l-178.7,178l-178.3-178.3c-19.6-19.6-30.4-45.6-30.4-73.3
		s10.7-53.7,30.3-73.2c19.5-19.5,45.5-30.3,73.1-30.3c27.7,0,53.8,10.8,73.4,30.4l22.6,22.6c5.3,5.3,13.8,5.3,19.1,0l22.4-22.4
		c19.6-19.6,45.7-30.4,73.3-30.4c27.6,0,53.6,10.8,73.2,30.3c19.6,19.6,30.3,45.6,30.3,73.3
		C444.801,187.101,434.001,213.101,414.401,232.701z"/>
    </symbol>
    <symbol id="Liked" viewBox="0 0 512 512">
        <path d="M202.35,20.536C188.735,8.674,169.403,1.592,150.637,1.592c-12.455,0-24.691,3.055-35.638,8.866
	c-10.945-5.81-23.18-8.865-35.633-8.866c-18.768-0.001-38.1,7.081-51.714,18.943c-9.817,8.553-17.194,19.309-21.929,31.97
	C1.557,63.646-0.35,75.784,0.053,88.581c0.749,23.786,9.285,47.851,24.685,69.593c9.355,13.207,23.787,26.735,44.121,41.36
	c13.765,9.9,25.445,16.758,25.936,17.045L115,228.408l20.207-11.828c0.49-0.288,12.171-7.145,25.936-17.045
	c20.335-14.625,34.768-28.154,44.121-41.36c15.399-21.743,23.935-45.807,24.684-69.593c0.403-12.797-1.504-24.935-5.67-36.075
	C219.543,39.846,212.166,29.09,202.35,20.536z M172.622,135.055c-16.063,22.678-57.622,47.004-57.622,47.004
	s-41.558-24.327-57.622-47.004c-22.382-31.601-22.725-67.566-3.449-84.361c5.368-4.678,14.887-9.102,25.434-9.101
	c12.101,0.001,25.555,5.826,35.637,23.772c10.083-17.949,23.535-23.772,35.636-23.772c10.546,0,20.066,4.424,25.435,9.101
	C195.346,67.489,195.003,103.453,172.622,135.055z"/>
    </symbol>
</svg>