<svg xmlns="http://www.w3.org/2000/svg" display="none">
    <symbol id="play" viewBox="0 0 50 50">
        <polygon points="10,5 10,45 40,25"/>
    </symbol>
    <symbol id="pause" viewBox="0 0 50 50">
        <rect x="12" y="5" width="10" height="40"/>
        <rect x="28" y="5" width="10" height="40"/>
    </symbol>
    <symbol id="play-next" viewBox="0 0 24 24">
        <path d="M21 4C21 3.44772 20.5523 3 20 3C19.4477 3 19 3.44772 19 4V20C19 20.5523 19.4477 21 20 21C20.5523 21 21 20.5523 21 20V4Z"/>
        <path d="M3 4.94743C3 3.5226 4.61175 2.69498 5.7697 3.52521L16.2394 11.0318C17.2443 11.7523 17.2053 13.2593 16.1646 13.927L5.69492 20.6434C4.53019 21.3905 3 20.5542 3 19.1704V4.94743Z"/>
    </symbol>
    <symbol id="play-previous" viewBox="0 0 24 24">
        <path d="M2.75 20C2.75 20.5523 3.19772 21 3.75 21C4.30228 21 4.75 20.5523 4.75 20L4.75 4C4.75 3.44772 4.30229 3 3.75 3C3.19772 3 2.75 3.44772 2.75 4V20Z" fill="#212121"/>
        <path d="M20.75 19.0526C20.75 20.4774 19.1383 21.305 17.9803 20.4748L7.51062 12.9682C6.50574 12.2477 6.54467 10.7407 7.5854 10.073L18.0551 3.35665C19.2198 2.60946 20.75 3.44583 20.75 4.82961L20.75 19.0526Z" fill="#212121"/>
    </symbol>
    <symbol id="repeat" viewBox="0 0 24 24" fill="none">
        <path d="M14 7H15.9992C19.3129 7 21.9992 9.68629 21.9992 13C21.9992 16.3137 19.3129 19 15.9992 19H8C4.68629 19 2 16.3137 2 13C2 9.68629 4.68629 7 8 7H10M7 4L10 7M10 7L7 10" stroke-width="2" stroke-linecap="round" stroke-linejoin="round"/>
    </symbol>
    <symbol id="like" viewBox="0 -1 32 32" xmlns:xlink="http://www.w3.org/1999/xlink" xmlns:sketch="http://www.bohemiancoding.com/sketch/ns">
        <g id="Icon-Set-Filled" sketch:type="MSLayerGroup" transform="translate(-102.000000, -882.000000)">
            <path d="M126,882 C122.667,882 119.982,883.842 117.969,886.235 C116.013,883.76 113.333,882 110,882 C105.306,882 102,886.036 102,890.438 C102,892.799 102.967,894.499 104.026,896.097 L116.459,911.003 C117.854,912.312 118.118,912.312 119.513,911.003 L131.974,896.097 C133.22,894.499 134,892.799 134,890.438 C134,886.036 130.694,882 126,882" id="heart-like" sketch:type="MSShapeGroup"></path>
        </g>
    </symbol>
</svg>