<?xml version="1.0" standalone="no"?>
<!DOCTYPE svg PUBLIC "-//W3C//DTD SVG 20010904//EN"
 "http://www.w3.org/TR/2001/REC-SVG-20010904/DTD/svg10.dtd">
<svg version="1.0" xmlns="http://www.w3.org/2000/svg"
 width="70.000000pt" height="65.000000pt" viewBox="0 0 70.000000 65.000000"
 preserveAspectRatio="xMidYMid meet">

<g transform="translate(0.000000,65.000000) scale(0.100000,-0.100000)"
fill="#000000" stroke="none">
<path d="M260 520 l0 -60 -32 0 c-80 0 -141 -60 -142 -140 -1 -48 -2 -50 -28
-50 -16 0 -28 -4 -28 -10 0 -5 15 -10 34 -10 25 0 36 -5 41 -19 3 -10 27 -38
54 -62 47 -43 175 -129 192 -129 4 0 46 24 91 53 78 51 158 125 158 147 0 6
16 10 35 10 19 0 35 5 35 10 0 6 -12 10 -28 10 -26 0 -27 2 -24 42 7 83 -71
154 -155 144 l-43 -6 0 36 c0 21 -4 33 -10 29 -5 -3 -10 -19 -10 -34 0 -15
-10 -41 -23 -58 l-23 -31 -26 23 c-20 17 -28 38 -38 94 -6 39 -16 71 -21 71
-5 0 -9 -27 -9 -60z m17 -62 c-3 -8 -6 -5 -6 6 -1 11 2 17 5 13 3 -3 4 -12 1
-19z m-29 -100 l-3 -83 -72 -3 -73 -3 0 41 c0 77 47 129 118 130 l33 0 -3 -82z
m324 43 c23 -25 28 -41 28 -81 l0 -50 -59 0 c-52 0 -62 -3 -79 -25 -11 -14
-23 -25 -26 -25 -9 0 -7 205 2 214 4 4 29 6 56 3 40 -3 55 -11 78 -36z m-262
-126 c13 -85 27 -155 31 -155 9 0 41 152 60 285 3 19 17 -111 18 -167 1 -32 4
-58 9 -58 4 0 18 16 31 35 22 33 27 35 78 35 49 0 53 -2 44 -18 -15 -28 -88
-89 -163 -137 l-66 -42 -89 57 c-82 53 -143 109 -143 131 0 5 31 9 69 9 l69 0
8 90 c3 50 10 90 14 90 4 0 17 -70 30 -155z m54 104 c12 10 16 10 16 1 0 -20
-32 -191 -36 -188 -4 5 -34 181 -34 203 0 18 2 18 19 -5 16 -20 21 -22 35 -11z"/>
</g>
</svg>
