<?xml version="1.0" standalone="no"?>
<!DOCTYPE svg PUBLIC "-//W3C//DTD SVG 20010904//EN"
 "http://www.w3.org/TR/2001/REC-SVG-20010904/DTD/svg10.dtd">
<svg version="1.0" xmlns="http://www.w3.org/2000/svg"
 width="70.000000pt" height="65.000000pt" viewBox="0 0 70.000000 65.000000"
 preserveAspectRatio="xMidYMid meet">

<g transform="translate(0.000000,65.000000) scale(0.100000,-0.100000)"
fill="#000000" stroke="none">
<path d="M92 490 c-39 -38 -72 -78 -72 -88 0 -10 19 -36 43 -58 75 -72 281
-240 316 -258 53 -28 132 -31 222 -11 l79 18 0 34 c0 45 -34 78 -90 87 -67 11
-97 34 -157 124 -66 99 -81 109 -116 81 l-26 -20 -31 28 c-17 15 -38 50 -48
78 -10 27 -25 51 -33 53 -8 1 -47 -29 -87 -68z m98 29 c0 -32 17 -59 75 -119
30 -30 73 -76 97 -101 35 -38 57 -50 123 -72 44 -14 97 -29 118 -32 20 -4 37
-12 37 -17 0 -7 -31 -9 -89 -6 -103 6 -153 26 -225 90 -77 67 -184 232 -172
264 8 22 36 17 36 -7z m-25 -71 c65 -124 158 -222 252 -265 49 -23 72 -27 151
-27 111 0 108 -14 -5 -23 -113 -8 -154 8 -287 115 l-109 87 -17 65 c-9 36 -20
73 -24 83 -5 10 -4 17 2 17 5 0 22 -24 37 -52z m-39 -14 c8 -20 14 -45 12 -56
-3 -17 -7 -15 -42 17 -38 34 -38 36 -21 55 25 28 34 25 51 -16z m227 -264 c75
-51 146 -66 234 -50 45 7 69 8 76 1 17 -17 -41 -33 -143 -38 -119 -6 -119 -6
-315 159 -165 138 -180 152 -170 167 3 6 63 -37 133 -95 70 -58 153 -123 185
-144z m12 241 c6 -11 -33 -26 -43 -16 -4 3 0 10 8 15 19 12 27 12 35 1z m18
-38 c-18 -7 -16 -23 2 -23 9 0 12 -6 9 -15 -4 -10 0 -15 12 -15 16 0 17 -2 4
-10 -12 -8 -11 -10 6 -10 12 0 29 -12 39 -26 16 -26 16 -26 -7 -19 -33 10 -86
54 -110 93 l-20 32 39 -1 c21 0 32 -3 26 -6z"/>
</g>
</svg>
