

<svg>
<symbol id='cup' version="1.0" xmlns="http://www.w3.org/2000/svg"
 viewBox="0 0 70.000000 65.000000">

    <g transform="translate(0.000000,65.000000) scale(0.100000,-0.100000)"
     stroke="none">
    <path d="M130 560 c0 -14 -7 -20 -22 -20 -42 0 -52 -14 -44 -61 9 -59 30 -87
    77 -108 22 -10 52 -36 70 -60 17 -24 44 -50 60 -59 29 -17 39 -53 21 -77 -12
    -18 -82 -55 -103 -55 -16 0 -19 -7 -19 -50 l0 -50 170 0 170 0 0 50 c0 46 -2
    50 -24 50 -13 0 -29 7 -36 15 -7 8 -18 15 -26 15 -21 0 -44 30 -44 59 0 19 8
    32 29 44 16 9 42 37 57 61 19 31 37 46 57 50 45 9 84 56 92 110 8 52 0 66 -42
    66 -16 0 -23 6 -23 20 0 19 -7 20 -210 20 -203 0 -210 -1 -210 -20z m404 -17
    c-41 -190 -110 -293 -196 -293 -81 0 -141 77 -177 228 -10 42 -17 80 -14 85 2
    4 92 7 199 7 l194 0 -6 -27z m-389 -70 c25 -85 26 -93 11 -93 -33 0 -68 44
    -73 94 -6 47 -6 48 22 44 23 -2 30 -10 40 -45z m452 0 c-5 -51 -40 -93 -76
    -93 -18 0 -17 3 3 70 20 65 23 70 50 70 28 0 29 -1 23 -47z m-231 -280 c6 -27
    18 -42 39 -53 l30 -15 -47 -3 c-27 -2 -69 -2 -95 0 -46 3 -47 4 -21 15 30 13
    48 41 48 72 0 38 35 25 46 -16z m124 -128 l0 -36 -152 3 -151 3 -1 33 -1 32
    153 0 152 0 0 -35z"/>
    <path d="M330 480 c-6 -11 -20 -20 -30 -20 -24 0 -26 -13 -5 -30 9 -7 13 -21
    9 -34 -5 -21 -2 -22 44 -22 44 0 48 2 44 21 -2 12 4 27 12 34 23 19 20 31 -8
    31 -16 0 -27 7 -31 20 -3 11 -10 20 -15 20 -5 0 -14 -9 -20 -20z m58 -36 c1
    -1 -3 -12 -10 -25 -14 -25 -63 -37 -54 -13 3 8 1 16 -4 19 -15 9 -12 25 5 25
    8 0 15 5 15 10 0 6 9 5 23 -2 12 -7 23 -13 25 -14z"/>
    </g>
</symbol>

<symbol id="heart" version="1.0" xmlns="http://www.w3.org/2000/svg" viewBox="0 0 70.000000 65.000000">

    <g transform="translate(0.000000,65.000000) scale(0.100000,-0.100000)"
    stroke="none">
    <path d="M260 520 l0 -60 -32 0 c-80 0 -141 -60 -142 -140 -1 -48 -2 -50 -28
    -50 -16 0 -28 -4 -28 -10 0 -5 15 -10 34 -10 25 0 36 -5 41 -19 3 -10 27 -38
    54 -62 47 -43 175 -129 192 -129 4 0 46 24 91 53 78 51 158 125 158 147 0 6
    16 10 35 10 19 0 35 5 35 10 0 6 -12 10 -28 10 -26 0 -27 2 -24 42 7 83 -71
    154 -155 144 l-43 -6 0 36 c0 21 -4 33 -10 29 -5 -3 -10 -19 -10 -34 0 -15
    -10 -41 -23 -58 l-23 -31 -26 23 c-20 17 -28 38 -38 94 -6 39 -16 71 -21 71
    -5 0 -9 -27 -9 -60z m17 -62 c-3 -8 -6 -5 -6 6 -1 11 2 17 5 13 3 -3 4 -12 1
    -19z m-29 -100 l-3 -83 -72 -3 -73 -3 0 41 c0 77 47 129 118 130 l33 0 -3 -82z
    m324 43 c23 -25 28 -41 28 -81 l0 -50 -59 0 c-52 0 -62 -3 -79 -25 -11 -14
    -23 -25 -26 -25 -9 0 -7 205 2 214 4 4 29 6 56 3 40 -3 55 -11 78 -36z m-262
    -126 c13 -85 27 -155 31 -155 9 0 41 152 60 285 3 19 17 -111 18 -167 1 -32 4
    -58 9 -58 4 0 18 16 31 35 22 33 27 35 78 35 49 0 53 -2 44 -18 -15 -28 -88
    -89 -163 -137 l-66 -42 -89 57 c-82 53 -143 109 -143 131 0 5 31 9 69 9 l69 0
    8 90 c3 50 10 90 14 90 4 0 17 -70 30 -155z m54 104 c12 10 16 10 16 1 0 -20
    -32 -191 -36 -188 -4 5 -34 181 -34 203 0 18 2 18 19 -5 16 -20 21 -22 35 -11z"/>
    </g>
</symbol>

<symbol id="shoe" version="1.0" xmlns="http://www.w3.org/2000/svg" viewBox="0 0 70.000000 65.000000">

<g transform="translate(0.000000,65.000000) scale(0.100000,-0.100000)" stroke="none">
<path d="M92 490 c-39 -38 -72 -78 -72 -88 0 -10 19 -36 43 -58 75 -72 281
-240 316 -258 53 -28 132 -31 222 -11 l79 18 0 34 c0 45 -34 78 -90 87 -67 11
-97 34 -157 124 -66 99 -81 109 -116 81 l-26 -20 -31 28 c-17 15 -38 50 -48
78 -10 27 -25 51 -33 53 -8 1 -47 -29 -87 -68z m98 29 c0 -32 17 -59 75 -119
30 -30 73 -76 97 -101 35 -38 57 -50 123 -72 44 -14 97 -29 118 -32 20 -4 37
-12 37 -17 0 -7 -31 -9 -89 -6 -103 6 -153 26 -225 90 -77 67 -184 232 -172
264 8 22 36 17 36 -7z m-25 -71 c65 -124 158 -222 252 -265 49 -23 72 -27 151
-27 111 0 108 -14 -5 -23 -113 -8 -154 8 -287 115 l-109 87 -17 65 c-9 36 -20
73 -24 83 -5 10 -4 17 2 17 5 0 22 -24 37 -52z m-39 -14 c8 -20 14 -45 12 -56
-3 -17 -7 -15 -42 17 -38 34 -38 36 -21 55 25 28 34 25 51 -16z m227 -264 c75
-51 146 -66 234 -50 45 7 69 8 76 1 17 -17 -41 -33 -143 -38 -119 -6 -119 -6
-315 159 -165 138 -180 152 -170 167 3 6 63 -37 133 -95 70 -58 153 -123 185
-144z m12 241 c6 -11 -33 -26 -43 -16 -4 3 0 10 8 15 19 12 27 12 35 1z m18
-38 c-18 -7 -16 -23 2 -23 9 0 12 -6 9 -15 -4 -10 0 -15 12 -15 16 0 17 -2 4
-10 -12 -8 -11 -10 6 -10 12 0 29 -12 39 -26 16 -26 16 -26 -7 -19 -33 10 -86
54 -110 93 l-20 32 39 -1 c21 0 32 -3 26 -6z"/>
</g>
</symbol>

</svg>