<svg xmlns="http://www.w3.org/2000/svg" style="display: none;">
    <symbol id="next_i" viewBox="0 0 24 24">
        <path fill-rule="evenodd" clip-rule="evenodd"
              d="M5.60439 4.231C4.94586 3.73143 4 4.20112 4 5.02769V18.9725C4 19.7991 4.94586 20.2687 5.60439 19.7692L14.7952 12.7968C15.3227 12.3966 15.3227 11.6036 14.7952 11.2034L5.60439 4.231ZM2 5.02769C2 2.54796 4.83758 1.1389 6.81316 2.63762L16.004 9.61C17.5865 10.8105 17.5865 13.1897 16.004 14.3902L6.81316 21.3626C4.83758 22.8613 2 21.4522 2 18.9725V5.02769Z"
        />
        <path d="M20 3C20 2.44772 20.4477 2 21 2C21.5523 2 22 2.44772 22 3V21C22 21.5523 21.5523 22 21 22C20.4477 22 20 21.5523 20 21V3Z"
        />
    </symbol>
    <symbol id="prev_i" viewBox="0 0 24 24">
        <path fill-rule="evenodd" clip-rule="evenodd"
              d="M17.9865 19.747C18.645 20.2466 19.5909 19.7769 19.5909 18.9503L19.5909 5.00555C19.5909 4.17895 18.645 3.70935 17.9865 4.20885L8.79568 11.1813C8.26818 11.5815 8.26818 12.3745 8.79568 12.7747L17.9865 19.747ZM21.5909 18.9503C21.5909 21.4301 18.7533 22.8391 16.7777 21.3404L7.58688 14.368C6.00438 13.1676 6.00438 10.7884 7.58688 9.58785L16.7777 2.61545C18.7533 1.11675 21.5909 2.52585 21.5909 5.00555L21.5909 18.9503Z"
        />
        <path d="M4 21C4 21.5523 3.5523 22 3 22C2.4477 22 2 21.5523 2 21L2 3C2 2.4477 2.4477 2 3 2C3.5523 2 4 2.4477 4 3L4 21Z"
        />

    </symbol>
</svg>



